<?xml version="1.0" encoding="UTF-8"?>
<svg version="1.1" xmlns="http://www.w3.org/2000/svg" width="212" height="164">
<path d="M0 0 C3 0.25 3 0.25 5 2.25 C5.125 5.375 5.125 5.375 5 8.25 C7.31 8.25 9.62 8.25 12 8.25 C12 15.84 12 23.43 12 31.25 C16.29 31.25 20.58 31.25 25 31.25 C24.98839844 29.67347656 24.97679687 28.09695312 24.96484375 26.47265625 C24.95546757 24.41927201 24.94636718 22.3658865 24.9375 20.3125 C24.92912109 19.27158203 24.92074219 18.23066406 24.91210938 17.15820312 C24.90888672 16.16884766 24.90566406 15.17949219 24.90234375 14.16015625 C24.89710693 13.24371338 24.89187012 12.32727051 24.88647461 11.38305664 C25 9.25 25 9.25 26 8.25 C28.33297433 8.20907063 30.66705225 8.20758277 33 8.25 C32.9690625 6.5484375 32.9690625 6.5484375 32.9375 4.8125 C33 1.25 33 1.25 34 0.25 C40.52542373 0.01271186 40.52542373 0.01271186 43 1.25 C43 3.56 43 5.87 43 8.25 C45.31 8.25 47.62 8.25 50 8.25 C50.33 20.46 50.66 32.67 51 45.25 C57.86587717 45.53924869 57.86587717 45.53924869 64.73217773 45.81811523 C65.58239502 45.85622314 66.4326123 45.89433105 67.30859375 45.93359375 C68.18314209 45.97025146 69.05769043 46.00690918 69.95874023 46.04467773 C72 46.25 72 46.25 73 47.25 C73.0991657 48.87257544 73.13079777 50.49939831 73.1328125 52.125 C73.13410156 53.10984375 73.13539063 54.0946875 73.13671875 55.109375 C73.13285156 56.14578125 73.12898437 57.1821875 73.125 58.25 C73.12886719 59.28640625 73.13273438 60.3228125 73.13671875 61.390625 C73.13478516 62.86789063 73.13478516 62.86789063 73.1328125 64.375 C73.13168457 65.28507812 73.13055664 66.19515625 73.12939453 67.1328125 C73 69.25 73 69.25 72 70.25 C70.00041636 70.29080783 67.99954746 70.29254356 66 70.25 C66.0309375 71.673125 66.0309375 71.673125 66.0625 73.125 C66 76.25 66 76.25 65 78.25 C62.69 78.25 60.38 78.25 58 78.25 C58.0309375 79.7040625 58.0309375 79.7040625 58.0625 81.1875 C58 84.25 58 84.25 57 85.25 C55.36527118 85.33700342 53.72685945 85.35701063 52.08984375 85.34765625 C51.10048828 85.34443359 50.11113281 85.34121094 49.09179688 85.33789062 C48.05087891 85.32951172 47.00996094 85.32113281 45.9375 85.3125 C44.89271484 85.30798828 43.84792969 85.30347656 42.77148438 85.29882812 C40.1809334 85.28699913 37.59049441 85.27051689 35 85.25 C35.00523682 85.9112085 35.01047363 86.57241699 35.01586914 87.25366211 C35.03657656 90.23159851 35.04964012 93.20951982 35.0625 96.1875 C35.07087891 97.22841797 35.07925781 98.26933594 35.08789062 99.34179688 C35.09111328 100.33115234 35.09433594 101.32050781 35.09765625 102.33984375 C35.10289307 103.25628662 35.10812988 104.17272949 35.11352539 105.11694336 C35 107.25 35 107.25 34 108.25 C32.00041636 108.29080783 29.99954746 108.29254356 28 108.25 C28.01160156 109.24902344 28.02320313 110.24804688 28.03515625 111.27734375 C28.04417969 112.56769531 28.05320313 113.85804688 28.0625 115.1875 C28.07410156 116.47527344 28.08570313 117.76304687 28.09765625 119.08984375 C28 122.25 28 122.25 27 123.25 C24.66702567 123.29092937 22.33294775 123.29241723 20 123.25 C20.0309375 124.9515625 20.0309375 124.9515625 20.0625 126.6875 C20 130.25 20 130.25 19 131.25 C16.48863896 131.34975032 14.01096585 131.38882183 11.5 131.375 C10.44619141 131.38080078 10.44619141 131.38080078 9.37109375 131.38671875 C4.12661378 131.37661378 4.12661378 131.37661378 3 130.25 C2.92728259 127.89686445 2.91629132 125.54166332 2.9375 123.1875 C2.94652344 121.89714844 2.95554688 120.60679687 2.96484375 119.27734375 C2.98224609 117.77880859 2.98224609 117.77880859 3 116.25 C1.35 116.25 -0.3 116.25 -2 116.25 C-2.33 118.56 -2.66 120.87 -3 123.25 C-5.31 123.25 -7.62 123.25 -10 123.25 C-9.95875 124.19875 -9.9175 125.1475 -9.875 126.125 C-10 129.25 -10 129.25 -12 131.25 C-15.2578125 131.4453125 -15.2578125 131.4453125 -19.125 131.375 C-20.40632813 131.35695312 -21.68765625 131.33890625 -23.0078125 131.3203125 C-23.99523437 131.29710937 -24.98265625 131.27390625 -26 131.25 C-28 127.25 -28 127.25 -28 115.25 C-36.91 115.25 -45.82 115.25 -55 115.25 C-55.33 117.56 -55.66 119.87 -56 122.25 C-57 123.25 -57 123.25 -60.0625 123.3125 C-61.031875 123.291875 -62.00125 123.27125 -63 123.25 C-62.979375 124.384375 -62.95875 125.51875 -62.9375 126.6875 C-63 130.25 -63 130.25 -64 131.25 C-66.31074168 131.34932392 -68.62462942 131.37969618 -70.9375 131.375 C-72.20464844 131.37757813 -73.47179687 131.38015625 -74.77734375 131.3828125 C-78 131.25 -78 131.25 -80 130.25 C-80 125.63 -80 121.01 -80 116.25 C-81.98 116.25 -83.96 116.25 -86 116.25 C-85.979375 117.219375 -85.95875 118.18875 -85.9375 119.1875 C-86 122.25 -86 122.25 -87 123.25 C-88.99958364 123.29080783 -91.00045254 123.29254356 -93 123.25 C-92.95875 124.19875 -92.9175 125.1475 -92.875 126.125 C-93 129.25 -93 129.25 -95 131.25 C-98.22265625 131.48046875 -98.22265625 131.48046875 -102.0625 131.4375 C-103.33222656 131.43105469 -104.60195312 131.42460937 -105.91015625 131.41796875 C-109 131.25 -109 131.25 -110 130.25 C-110.08858646 127.51105915 -110.11523479 124.7974673 -110.09765625 122.05859375 C-110.0962413 121.23875504 -110.09482635 120.41891632 -110.09336853 119.57423401 C-110.08775289 116.94528618 -110.07519779 114.31642227 -110.0625 111.6875 C-110.05748701 109.90950643 -110.05292376 108.13151154 -110.04882812 106.35351562 C-110.03777839 101.98564455 -110.02050331 97.61783652 -110 93.25 C-111.35544922 93.30220703 -111.35544922 93.30220703 -112.73828125 93.35546875 C-113.91777344 93.38253906 -115.09726563 93.40960938 -116.3125 93.4375 C-117.48425781 93.47230469 -118.65601562 93.50710937 -119.86328125 93.54296875 C-123 93.25 -123 93.25 -124.91113281 91.93212891 C-126.67968813 89.19998852 -126.07261125 86.78799296 -125.75 83.625 C-125.64171875 82.45710938 -125.5334375 81.28921875 -125.421875 80.0859375 C-125 77.25 -125 77.25 -124 76.25 C-122.00041636 76.20919217 -119.99954746 76.20745644 -118 76.25 C-118 73.94 -118 71.63 -118 69.25 C-115.69 69.25 -113.38 69.25 -111 69.25 C-111.020625 68.30125 -111.04125 67.3525 -111.0625 66.375 C-111 63.25 -111 63.25 -110 61.25 C-107.69 61.25 -105.38 61.25 -103 61.25 C-103 58.94 -103 56.63 -103 54.25 C-78.25 54.25 -53.5 54.25 -28 54.25 C-28 49.96 -28 45.67 -28 41.25 C-27.34 40.26 -26.68 39.27 -26 38.25 C-22.875 38.0625 -22.875 38.0625 -20 38.25 C-19.67 35.94 -19.34 33.63 -19 31.25 C-16.69 31.25 -14.38 31.25 -12 31.25 C-12.00523682 30.5887915 -12.01047363 29.92758301 -12.01586914 29.24633789 C-12.03657656 26.26840149 -12.04964012 23.29048018 -12.0625 20.3125 C-12.07087891 19.27158203 -12.07925781 18.23066406 -12.08789062 17.15820312 C-12.09111328 16.16884766 -12.09433594 15.17949219 -12.09765625 14.16015625 C-12.10289307 13.24371338 -12.10812988 12.32727051 -12.11352539 11.38305664 C-12 9.25 -12 9.25 -11 8.25 C-9.00041636 8.20919217 -6.99954746 8.20745644 -5 8.25 C-5.04125 7.30125 -5.0825 6.3525 -5.125 5.375 C-4.95580103 1.14502578 -4.21852231 0.35154353 0 0 Z " fill="#C09266" transform="translate(130,19.75)"/>
<path d="M0 0 C3 0.25 3 0.25 5 2.25 C5.125 5.375 5.125 5.375 5 8.25 C7.31 8.25 9.62 8.25 12 8.25 C12 15.84 12 23.43 12 31.25 C16.29 31.25 20.58 31.25 25 31.25 C24.98839844 29.67347656 24.97679687 28.09695312 24.96484375 26.47265625 C24.95546757 24.41927201 24.94636718 22.3658865 24.9375 20.3125 C24.92912109 19.27158203 24.92074219 18.23066406 24.91210938 17.15820312 C24.90888672 16.16884766 24.90566406 15.17949219 24.90234375 14.16015625 C24.89710693 13.24371338 24.89187012 12.32727051 24.88647461 11.38305664 C25 9.25 25 9.25 26 8.25 C28.33297433 8.20907063 30.66705225 8.20758277 33 8.25 C32.9690625 6.5484375 32.9690625 6.5484375 32.9375 4.8125 C33 1.25 33 1.25 34 0.25 C40.52542373 0.01271186 40.52542373 0.01271186 43 1.25 C43 3.56 43 5.87 43 8.25 C45.31 8.25 47.62 8.25 50 8.25 C50.33 20.46 50.66 32.67 51 45.25 C57.86587717 45.53924869 57.86587717 45.53924869 64.73217773 45.81811523 C65.58239502 45.85622314 66.4326123 45.89433105 67.30859375 45.93359375 C68.18314209 45.97025146 69.05769043 46.00690918 69.95874023 46.04467773 C72 46.25 72 46.25 73 47.25 C73.0991657 48.87257544 73.13079777 50.49939831 73.1328125 52.125 C73.13410156 53.10984375 73.13539063 54.0946875 73.13671875 55.109375 C73.13285156 56.14578125 73.12898437 57.1821875 73.125 58.25 C73.12886719 59.28640625 73.13273438 60.3228125 73.13671875 61.390625 C73.13478516 62.86789063 73.13478516 62.86789063 73.1328125 64.375 C73.13168457 65.28507812 73.13055664 66.19515625 73.12939453 67.1328125 C73 69.25 73 69.25 72 70.25 C70.00041636 70.29080783 67.99954746 70.29254356 66 70.25 C66.0309375 71.673125 66.0309375 71.673125 66.0625 73.125 C66 76.25 66 76.25 65 78.25 C62.69 78.25 60.38 78.25 58 78.25 C58.0309375 79.7040625 58.0309375 79.7040625 58.0625 81.1875 C58 84.25 58 84.25 57 85.25 C55.36527118 85.33700342 53.72685945 85.35701063 52.08984375 85.34765625 C51.10048828 85.34443359 50.11113281 85.34121094 49.09179688 85.33789062 C48.05087891 85.32951172 47.00996094 85.32113281 45.9375 85.3125 C44.89271484 85.30798828 43.84792969 85.30347656 42.77148438 85.29882812 C40.1809334 85.28699913 37.59049441 85.27051689 35 85.25 C35.00523682 85.9112085 35.01047363 86.57241699 35.01586914 87.25366211 C35.03657656 90.23159851 35.04964012 93.20951982 35.0625 96.1875 C35.07087891 97.22841797 35.07925781 98.26933594 35.08789062 99.34179688 C35.09111328 100.33115234 35.09433594 101.32050781 35.09765625 102.33984375 C35.10289307 103.25628662 35.10812988 104.17272949 35.11352539 105.11694336 C35 107.25 35 107.25 34 108.25 C32.00041636 108.29080783 29.99954746 108.29254356 28 108.25 C28.01160156 109.24902344 28.02320313 110.24804688 28.03515625 111.27734375 C28.04417969 112.56769531 28.05320313 113.85804688 28.0625 115.1875 C28.07410156 116.47527344 28.08570313 117.76304687 28.09765625 119.08984375 C28 122.25 28 122.25 27 123.25 C24.66702567 123.29092937 22.33294775 123.29241723 20 123.25 C20.0309375 124.9515625 20.0309375 124.9515625 20.0625 126.6875 C20 130.25 20 130.25 19 131.25 C16.48863896 131.34975032 14.01096585 131.38882183 11.5 131.375 C10.44619141 131.38080078 10.44619141 131.38080078 9.37109375 131.38671875 C4.12661378 131.37661378 4.12661378 131.37661378 3 130.25 C2.92728259 127.89686445 2.91629132 125.54166332 2.9375 123.1875 C2.94652344 121.89714844 2.95554688 120.60679687 2.96484375 119.27734375 C2.98224609 117.77880859 2.98224609 117.77880859 3 116.25 C1.35 116.25 -0.3 116.25 -2 116.25 C-2.33 118.56 -2.66 120.87 -3 123.25 C-5.31 123.25 -7.62 123.25 -10 123.25 C-9.95875 124.19875 -9.9175 125.1475 -9.875 126.125 C-10 129.25 -10 129.25 -12 131.25 C-15.2578125 131.4453125 -15.2578125 131.4453125 -19.125 131.375 C-20.40632813 131.35695312 -21.68765625 131.33890625 -23.0078125 131.3203125 C-23.99523437 131.29710937 -24.98265625 131.27390625 -26 131.25 C-28 127.25 -28 127.25 -28 115.25 C-36.91 115.25 -45.82 115.25 -55 115.25 C-55.33 117.56 -55.66 119.87 -56 122.25 C-57 123.25 -57 123.25 -60.0625 123.3125 C-61.031875 123.291875 -62.00125 123.27125 -63 123.25 C-62.979375 124.384375 -62.95875 125.51875 -62.9375 126.6875 C-63 130.25 -63 130.25 -64 131.25 C-66.31074168 131.34932392 -68.62462942 131.37969618 -70.9375 131.375 C-72.20464844 131.37757813 -73.47179687 131.38015625 -74.77734375 131.3828125 C-78 131.25 -78 131.25 -80 130.25 C-80 125.63 -80 121.01 -80 116.25 C-81.98 116.25 -83.96 116.25 -86 116.25 C-85.979375 117.219375 -85.95875 118.18875 -85.9375 119.1875 C-86 122.25 -86 122.25 -87 123.25 C-88.99958364 123.29080783 -91.00045254 123.29254356 -93 123.25 C-92.95875 124.19875 -92.9175 125.1475 -92.875 126.125 C-93 129.25 -93 129.25 -95 131.25 C-98.22265625 131.48046875 -98.22265625 131.48046875 -102.0625 131.4375 C-103.33222656 131.43105469 -104.60195312 131.42460937 -105.91015625 131.41796875 C-109 131.25 -109 131.25 -110 130.25 C-110.08858646 127.51105915 -110.11523479 124.7974673 -110.09765625 122.05859375 C-110.0962413 121.23875504 -110.09482635 120.41891632 -110.09336853 119.57423401 C-110.08775289 116.94528618 -110.07519779 114.31642227 -110.0625 111.6875 C-110.05748701 109.90950643 -110.05292376 108.13151154 -110.04882812 106.35351562 C-110.03777839 101.98564455 -110.02050331 97.61783652 -110 93.25 C-111.35544922 93.30220703 -111.35544922 93.30220703 -112.73828125 93.35546875 C-113.91777344 93.38253906 -115.09726563 93.40960938 -116.3125 93.4375 C-117.48425781 93.47230469 -118.65601562 93.50710937 -119.86328125 93.54296875 C-123 93.25 -123 93.25 -124.91113281 91.93212891 C-126.67968813 89.19998852 -126.07261125 86.78799296 -125.75 83.625 C-125.64171875 82.45710938 -125.5334375 81.28921875 -125.421875 80.0859375 C-125 77.25 -125 77.25 -124 76.25 C-122.00041636 76.20919217 -119.99954746 76.20745644 -118 76.25 C-118 73.94 -118 71.63 -118 69.25 C-115.69 69.25 -113.38 69.25 -111 69.25 C-111.020625 68.30125 -111.04125 67.3525 -111.0625 66.375 C-111 63.25 -111 63.25 -110 61.25 C-107.69 61.25 -105.38 61.25 -103 61.25 C-103 58.94 -103 56.63 -103 54.25 C-78.25 54.25 -53.5 54.25 -28 54.25 C-28 49.96 -28 45.67 -28 41.25 C-27.34 40.26 -26.68 39.27 -26 38.25 C-22.875 38.0625 -22.875 38.0625 -20 38.25 C-19.67 35.94 -19.34 33.63 -19 31.25 C-16.69 31.25 -14.38 31.25 -12 31.25 C-12.00523682 30.5887915 -12.01047363 29.92758301 -12.01586914 29.24633789 C-12.03657656 26.26840149 -12.04964012 23.29048018 -12.0625 20.3125 C-12.07087891 19.27158203 -12.07925781 18.23066406 -12.08789062 17.15820312 C-12.09111328 16.16884766 -12.09433594 15.17949219 -12.09765625 14.16015625 C-12.10289307 13.24371338 -12.10812988 12.32727051 -12.11352539 11.38305664 C-12 9.25 -12 9.25 -11 8.25 C-9.00041636 8.20919217 -6.99954746 8.20745644 -5 8.25 C-5.04125 7.30125 -5.0825 6.3525 -5.125 5.375 C-4.95580103 1.14502578 -4.21852231 0.35154353 0 0 Z M-2 10.25 C-2 17.51 -2 24.77 -2 32.25 C-4.64 32.25 -7.28 32.25 -10 32.25 C-10.33 34.56 -10.66 36.87 -11 39.25 C-13.31 39.91 -15.62 40.57 -18 41.25 C-18.33 45.54 -18.66 49.83 -19 54.25 C-21.31 54.91 -23.62 55.57 -26 56.25 C-25.505 58.725 -25.505 58.725 -25 61.25 C-22.36 61.58 -19.72 61.91 -17 62.25 C-17 64.23 -17 66.21 -17 68.25 C-14.69 68.25 -12.38 68.25 -10 68.25 C-10 70.89 -10 73.53 -10 76.25 C-8.02 76.25 -6.04 76.25 -4 76.25 C-4 78.89 -4 81.53 -4 84.25 C-6.64 84.25 -9.28 84.25 -12 84.25 C-12 81.94 -12 79.63 -12 77.25 C-18.93 76.755 -18.93 76.755 -26 76.25 C-26.495 73.28 -26.495 73.28 -27 70.25 C-29.31 70.25 -31.62 70.25 -34 70.25 C-34 67.61 -34 64.97 -34 62.25 C-54.13 62.25 -74.26 62.25 -95 62.25 C-95 64.56 -95 66.87 -95 69.25 C-96.134375 69.229375 -97.26875 69.20875 -98.4375 69.1875 C-101.81575674 68.83422523 -101.81575674 68.83422523 -103 70.25 C-103.09038089 72.36418517 -103.10619836 74.48157669 -103.09375 76.59765625 C-103.09016479 77.26031998 -103.08657959 77.9229837 -103.08288574 78.60572815 C-103.015203 87.30214586 -102.7531897 95.99493677 -102.5 104.6875 C-102.45163073 106.4016873 -102.40345259 108.11588 -102.35546875 109.83007812 C-102.23917393 113.97011745 -102.12032245 118.11007585 -102 122.25 C-100.02 122.25 -98.04 122.25 -96 122.25 C-95.34 119.94 -94.68 117.63 -94 115.25 C-91.03 114.755 -91.03 114.755 -88 114.25 C-88 111.94 -88 109.63 -88 107.25 C-82.72 107.25 -77.44 107.25 -72 107.25 C-72 104.94 -72 102.63 -72 100.25 C-69.36 100.25 -66.72 100.25 -64 100.25 C-64 102.56 -64 104.87 -64 107.25 C-61.03 107.25 -58.06 107.25 -55 107.25 C-55 105.27 -55 103.29 -55 101.25 C-53.35 101.25 -51.7 101.25 -50 101.25 C-50 103.23 -50 105.21 -50 107.25 C-35.15 107.745 -35.15 107.745 -20 108.25 C-19.505 115.18 -19.505 115.18 -19 122.25 C-16.69 122.25 -14.38 122.25 -12 122.25 C-12 119.61 -12 116.97 -12 114.25 C-9.36 114.25 -6.72 114.25 -4 114.25 C-4 111.94 -4 109.63 -4 107.25 C0.95 107.25 5.9 107.25 11 107.25 C11.33 104.61 11.66 101.97 12 99.25 C13.98 98.92 15.96 98.59 18 98.25 C18.33 96.27 18.66 94.29 19 92.25 C20.98 91.92 22.96 91.59 25 91.25 C25.33 86.63 25.66 82.01 26 77.25 C28.64 77.25 31.28 77.25 34 77.25 C34 76.59 34 75.93 34 75.25 C41.26 75.25 48.52 75.25 56 75.25 C56 73.27 56 71.29 56 69.25 C58.64 69.25 61.28 69.25 64 69.25 C64 66.94 64 64.63 64 62.25 C61.69 62.25 59.38 62.25 57 62.25 C57 59.61 57 56.97 57 54.25 C54.36 54.25 51.72 54.25 49 54.25 C49 51.94 49 49.63 49 47.25 C46.69 46.92 44.38 46.59 42 46.25 C41.67 43.94 41.34 41.63 41 39.25 C38.69 39.25 36.38 39.25 34 39.25 C34 39.91 34 40.57 34 41.25 C33.01 41.58 32.02 41.91 31 42.25 C31.33 43.24 31.66 44.23 32 45.25 C33.32 45.58 34.64 45.91 36 46.25 C36 51.53 36 56.81 36 62.25 C32.37 62.25 28.74 62.25 25 62.25 C25.33 56.31 25.66 50.37 26 44.25 C25.01 44.745 25.01 44.745 24 45.25 C24.33 45.91 24.66 46.57 25 47.25 C24.34 47.25 23.68 47.25 23 47.25 C22.505 45.27 22.505 45.27 22 43.25 C20.74050951 44.28406673 20.74050951 44.28406673 20.90234375 46.53515625 C20.91394531 47.45167969 20.92554688 48.36820313 20.9375 49.3125 C20.94652344 50.23160156 20.95554687 51.15070313 20.96484375 52.09765625 C20.97644531 52.80792969 20.98804688 53.51820312 21 54.25 C20.34 54.25 19.68 54.25 19 54.25 C19 49.3 19 44.35 19 39.25 C16.36 39.25 13.72 39.25 11 39.25 C11 36.61 11 33.97 11 31.25 C8.36 31.25 5.72 31.25 3 31.25 C3 24.65 3 18.05 3 11.25 C1.35 10.92 -0.3 10.59 -2 10.25 Z " fill="#754942" transform="translate(130,19.75)"/>
<path d="M0 0 C20.13 0 40.26 0 61 0 C61 2.64 61 5.28 61 8 C63.31 8 65.62 8 68 8 C68.495 10.97 68.495 10.97 69 14 C75.93 14.495 75.93 14.495 83 15 C83 17.31 83 19.62 83 22 C80.69 22 78.38 22 76 22 C76 24.97 76 27.94 76 31 C77.4540625 30.9690625 77.4540625 30.9690625 78.9375 30.9375 C82 31 82 31 83 32 C83.04063832 33.66617115 83.042721 35.33388095 83 37 C80.69 37 78.38 37 76 37 C76.495 44.425 76.495 44.425 77 52 C76.34 52 75.68 52 75 52 C75 50.02 75 48.04 75 46 C60.15 45.505 60.15 45.505 45 45 C45 43.02 45 41.04 45 39 C43.35 39 41.7 39 40 39 C40 40.98 40 42.96 40 45 C37.03 45 34.06 45 31 45 C31 42.69 31 40.38 31 38 C28.36 38 25.72 38 23 38 C23 40.31 23 42.62 23 45 C17.72 45 12.44 45 7 45 C7 47.31 7 49.62 7 52 C4.03 52.495 4.03 52.495 1 53 C0.34 55.31 -0.32 57.62 -1 60 C-2.98 60 -4.96 60 -7 60 C-7.14516371 55.00536457 -7.28743198 50.01065718 -7.42724609 45.01586914 C-7.47499152 43.32379031 -7.52346974 41.63173197 -7.57275391 39.93969727 C-7.82072219 31.41009448 -8.0475816 22.88109458 -8.09375 14.34765625 C-8.10083984 13.14246338 -8.10792969 11.93727051 -8.11523438 10.69555664 C-8 8 -8 8 -7 7 C-4.66702567 6.95907063 -2.33294775 6.95758277 0 7 C0 4.69 0 2.38 0 0 Z " fill="#BC5D1D" transform="translate(35,82)"/>
<path d="M0 0 C3 0.25 3 0.25 5 2.25 C5.125 5.375 5.125 5.375 5 8.25 C7.31 8.25 9.62 8.25 12 8.25 C12 15.84 12 23.43 12 31.25 C16.29 31.25 20.58 31.25 25 31.25 C24.98839844 29.67347656 24.97679687 28.09695312 24.96484375 26.47265625 C24.95546757 24.41927201 24.94636718 22.3658865 24.9375 20.3125 C24.92912109 19.27158203 24.92074219 18.23066406 24.91210938 17.15820312 C24.90888672 16.16884766 24.90566406 15.17949219 24.90234375 14.16015625 C24.89710693 13.24371338 24.89187012 12.32727051 24.88647461 11.38305664 C25 9.25 25 9.25 26 8.25 C28.33297433 8.20907063 30.66705225 8.20758277 33 8.25 C32.979375 7.115625 32.95875 5.98125 32.9375 4.8125 C33 1.25 33 1.25 34 0.25 C40.52542373 0.01271186 40.52542373 0.01271186 43 1.25 C43 3.56 43 5.87 43 8.25 C45.31 8.25 47.62 8.25 50 8.25 C50.33 20.46 50.66 32.67 51 45.25 C57.86587717 45.53924869 57.86587717 45.53924869 64.73217773 45.81811523 C65.58239502 45.85622314 66.4326123 45.89433105 67.30859375 45.93359375 C68.18314209 45.97025146 69.05769043 46.00690918 69.95874023 46.04467773 C72 46.25 72 46.25 73 47.25 C73.0991657 48.87257544 73.13079777 50.49939831 73.1328125 52.125 C73.13410156 53.10984375 73.13539063 54.0946875 73.13671875 55.109375 C73.13285156 56.14578125 73.12898438 57.1821875 73.125 58.25 C73.12886719 59.28640625 73.13273437 60.3228125 73.13671875 61.390625 C73.13542969 62.37546875 73.13414062 63.3603125 73.1328125 64.375 C73.13168457 65.28507812 73.13055664 66.19515625 73.12939453 67.1328125 C73 69.25 73 69.25 72 70.25 C70.00041636 70.29080783 67.99954746 70.29254356 66 70.25 C66.020625 71.19875 66.04125 72.1475 66.0625 73.125 C66 76.25 66 76.25 65 78.25 C62.69 78.25 60.38 78.25 58 78.25 C58.020625 79.219375 58.04125 80.18875 58.0625 81.1875 C58 84.25 58 84.25 57 85.25 C55.36527118 85.33700342 53.72685945 85.35701063 52.08984375 85.34765625 C51.10048828 85.34443359 50.11113281 85.34121094 49.09179688 85.33789062 C48.05087891 85.32951172 47.00996094 85.32113281 45.9375 85.3125 C44.89271484 85.30798828 43.84792969 85.30347656 42.77148438 85.29882812 C40.1809334 85.28699913 37.59049441 85.27051689 35 85.25 C35.00523682 85.9112085 35.01047363 86.57241699 35.01586914 87.25366211 C35.03657656 90.23159851 35.04964012 93.20951982 35.0625 96.1875 C35.07087891 97.22841797 35.07925781 98.26933594 35.08789062 99.34179688 C35.09111328 100.33115234 35.09433594 101.32050781 35.09765625 102.33984375 C35.10289307 103.25628662 35.10812988 104.17272949 35.11352539 105.11694336 C35 107.25 35 107.25 34 108.25 C32.00041636 108.29080783 29.99954746 108.29254356 28 108.25 C28.01160156 109.24902344 28.02320313 110.24804688 28.03515625 111.27734375 C28.04417969 112.56769531 28.05320313 113.85804688 28.0625 115.1875 C28.07410156 116.47527344 28.08570313 117.76304687 28.09765625 119.08984375 C28 122.25 28 122.25 27 123.25 C24.66702567 123.29092937 22.33294775 123.29241723 20 123.25 C20 125.56 20 127.87 20 130.25 C18.083412 130.27712153 16.1667127 130.29645097 14.25 130.3125 C12.64898437 130.32990234 12.64898437 130.32990234 11.015625 130.34765625 C8 130.25 8 130.25 4 129.25 C4 124.3 4 119.35 4 114.25 C1.36 114.25 -1.28 114.25 -4 114.25 C-4 111.94 -4 109.63 -4 107.25 C0.95 107.25 5.9 107.25 11 107.25 C10.979375 105.950625 10.95875 104.65125 10.9375 103.3125 C10.91600546 101.95834367 10.92851801 100.60243917 11 99.25 C12 98.25 12 98.25 15.0625 98.1875 C16.031875 98.208125 17.00125 98.22875 18 98.25 C17.979375 97.280625 17.95875 96.31125 17.9375 95.3125 C18 92.25 18 92.25 19 91.25 C20.99958364 91.20919217 23.00045254 91.20745644 25 91.25 C24.979375 90.05375 24.95875 88.8575 24.9375 87.625 C24.93117429 84.06995131 25.30111125 80.74444376 26 77.25 C28.64 77.25 31.28 77.25 34 77.25 C34 76.59 34 75.93 34 75.25 C41.26 75.25 48.52 75.25 56 75.25 C56 73.27 56 71.29 56 69.25 C58.64 69.25 61.28 69.25 64 69.25 C64 66.94 64 64.63 64 62.25 C61.69 62.25 59.38 62.25 57 62.25 C57 59.61 57 56.97 57 54.25 C54.36 54.25 51.72 54.25 49 54.25 C49 51.94 49 49.63 49 47.25 C47.2984375 47.2809375 47.2984375 47.2809375 45.5625 47.3125 C42 47.25 42 47.25 41 46.25 C40.95907063 43.91702567 40.95758277 41.58294775 41 39.25 C38.69 39.25 36.38 39.25 34 39.25 C34 39.91 34 40.57 34 41.25 C33.01 41.745 33.01 41.745 32 42.25 C32 43.24 32 44.23 32 45.25 C33.65 45.58 35.3 45.91 37 46.25 C36.67 51.53 36.34 56.81 36 62.25 C32.37 62.25 28.74 62.25 25 62.25 C25 57.25 25 52.25 25 47.25 C24.34 47.25 23.68 47.25 23 47.25 C22.67 46.26 22.34 45.27 22 44.25 C21.505 49.2 21.505 49.2 21 54.25 C20.34 54.25 19.68 54.25 19 54.25 C19 49.3 19 44.35 19 39.25 C16.36 39.25 13.72 39.25 11 39.25 C11 29.35 11 19.45 11 9.25 C8.36 9.58 5.72 9.91 3 10.25 C3 7.61 3 4.97 3 2.25 C1.02 2.25 -0.96 2.25 -3 2.25 C-2.979375 3.219375 -2.95875 4.18875 -2.9375 5.1875 C-3 8.25 -3 8.25 -4 9.25 C-6.33297433 9.29092937 -8.66705225 9.29241723 -11 9.25 C-11 8.92 -11 8.59 -11 8.25 C-9.02 8.25 -7.04 8.25 -5 8.25 C-5.04125 7.30125 -5.0825 6.3525 -5.125 5.375 C-4.95580103 1.14502578 -4.21852231 0.35154353 0 0 Z " fill="#9B8D8E" transform="translate(130,19.75)"/>
<path d="M0 0 C2.475 0.495 2.475 0.495 5 1 C5 7.6 5 14.2 5 21 C7.64 21 10.28 21 13 21 C13 23.64 13 26.28 13 29 C15.64 29 18.28 29 21 29 C20.67 33.62 20.34 38.24 20 43 C15.05 43 10.1 43 5 43 C5 53.23 5 63.46 5 74 C2.69 74 0.38 74 -2 74 C-2 71.36 -2 68.72 -2 66 C-3.98 66 -5.96 66 -8 66 C-8 63.36 -8 60.72 -8 58 C-10.31 58 -12.62 58 -15 58 C-15 56.02 -15 54.04 -15 52 C-18.96 51.505 -18.96 51.505 -23 51 C-23.33 49.35 -23.66 47.7 -24 46 C-21.69 45.34 -19.38 44.68 -17 44 C-16.67 39.71 -16.34 35.42 -16 31 C-13.69 30.34 -11.38 29.68 -9 29 C-8.67 26.69 -8.34 24.38 -8 22 C-5.36 22 -2.72 22 0 22 C0 14.74 0 7.48 0 0 Z " fill="#BB5D1C" transform="translate(128,30)"/>
<path d="M0 0 C2.64 0 5.28 0 8 0 C8 2.31 8 4.62 8 7 C5.36 7.33 2.72 7.66 0 8 C0 10.31 0 12.62 0 15 C-7.26 15 -14.52 15 -22 15 C-22 22.92 -22 30.84 -22 39 C-23.98 39 -25.96 39 -28 39 C-27.98839844 39.99902344 -27.97679687 40.99804688 -27.96484375 42.02734375 C-27.95582031 43.31769531 -27.94679687 44.60804688 -27.9375 45.9375 C-27.92589844 47.22527344 -27.91429687 48.51304687 -27.90234375 49.83984375 C-28 53 -28 53 -29 54 C-31.33297433 54.04092937 -33.66705225 54.04241723 -36 54 C-36 56.31 -36 58.62 -36 61 C-37.916588 61.02712153 -39.8332873 61.04645097 -41.75 61.0625 C-43.35101563 61.07990234 -43.35101563 61.07990234 -44.984375 61.09765625 C-48 61 -48 61 -52 60 C-52 55.05 -52 50.1 -52 45 C-54.64 45 -57.28 45 -60 45 C-60 42.69 -60 40.38 -60 38 C-55.05 38 -50.1 38 -45 38 C-45.020625 36.700625 -45.04125 35.40125 -45.0625 34.0625 C-45.08399454 32.70834367 -45.07148199 31.35243917 -45 30 C-44 29 -44 29 -40.9375 28.9375 C-39.4834375 28.9684375 -39.4834375 28.9684375 -38 29 C-38.020625 28.030625 -38.04125 27.06125 -38.0625 26.0625 C-38 23 -38 23 -37 22 C-35.00041636 21.95919217 -32.99954746 21.95745644 -31 22 C-31.020625 20.80375 -31.04125 19.6075 -31.0625 18.375 C-31.06882571 14.81995131 -30.69888875 11.49444376 -30 8 C-27.36 8 -24.72 8 -22 8 C-22 7.34 -22 6.68 -22 6 C-14.74 6 -7.48 6 0 6 C0 4.02 0 2.04 0 0 Z " fill="#986545" transform="translate(186,89)"/>
<path d="M0 0 C24.42 0 48.84 0 74 0 C74 2.31 74 4.62 74 7 C51.56 7 29.12 7 6 7 C6 9.31 6 11.62 6 14 C3.69 14.33 1.38 14.66 -1 15 C-1 32.49 -1 49.98 -1 68 C1.31 68 3.62 68 6 68 C6 69.65 6 71.3 6 73 C1.71 73 -2.58 73 -7 73 C-7.33 60.79 -7.66 48.58 -8 36 C-14.93 35.505 -14.93 35.505 -22 35 C-22 31.04 -22 27.08 -22 23 C-20.02 22.67 -18.04 22.34 -16 22 C-15.67 19.69 -15.34 17.38 -15 15 C-12.69 15 -10.38 15 -8 15 C-8 12.36 -8 9.72 -8 7 C-5.36 7 -2.72 7 0 7 C0 4.69 0 2.38 0 0 Z " fill="#311A1B" transform="translate(29,75)"/>
<path d="M0 0 C1.98 0 3.96 0 6 0 C6 2.31 6 4.62 6 7 C8.64 7 11.28 7 14 7 C14 19.21 14 31.42 14 44 C11.36 44 8.72 44 6 44 C6 41.69 6 39.38 6 37 C1.38 37 -3.24 37 -8 37 C-8 27.1 -8 17.2 -8 7 C-5.69 7 -3.38 7 -1 7 C-0.67 4.69 -0.34 2.38 0 0 Z " fill="#B25B20" transform="translate(165,22)"/>
<path d="M0 0 C1.98 0 3.96 0 6 0 C6.33 2.31 6.66 4.62 7 7 C9.31 7 11.62 7 14 7 C14 14.26 14 21.52 14 29 C11.36 29 8.72 29 6 29 C5.505 19.1 5.505 19.1 5 9 C3.68 8.67 2.36 8.34 1 8 C1 15.26 1 22.52 1 30 C-1.64 30 -4.28 30 -7 30 C-7 32.31 -7 34.62 -7 37 C-9.31 37.66 -11.62 38.32 -14 39 C-14.33 43.29 -14.66 47.58 -15 52 C-17.31 52 -19.62 52 -22 52 C-22 47.38 -22 42.76 -22 38 C-18.535 37.505 -18.535 37.505 -15 37 C-15 34.69 -15 32.38 -15 30 C-12.69 30 -10.38 30 -8 30 C-8 22.41 -8 14.82 -8 7 C-4.535 6.505 -4.535 6.505 -1 6 C-0.67 4.02 -0.34 2.04 0 0 Z " fill="#934D22" transform="translate(127,22)"/>
<path d="M0 0 C0.33 0 0.66 0 1 0 C1 7.59 1 15.18 1 23 C-1.31 23 -3.62 23 -6 23 C-6 25.31 -6 27.62 -6 30 C-8.31 30.33 -10.62 30.66 -13 31 C-13 35.62 -13 40.24 -13 45 C-11.02 45 -9.04 45 -7 45 C-7 45.33 -7 45.66 -7 46 C-8.98 46.33 -10.96 46.66 -13 47 C-13 48.32 -13 49.64 -13 51 C-10.36 51.66 -7.72 52.32 -5 53 C-5 54.98 -5 56.96 -5 59 C-2.69 59 -0.38 59 2 59 C2 61.64 2 64.28 2 67 C3.98 67 5.96 67 8 67 C8 69.64 8 72.28 8 75 C5.36 75 2.72 75 0 75 C0 72.69 0 70.38 0 68 C-0.99902344 68.01160156 -1.99804688 68.02320312 -3.02734375 68.03515625 C-4.31769531 68.04417969 -5.60804687 68.05320312 -6.9375 68.0625 C-8.22527344 68.07410156 -9.51304688 68.08570312 -10.83984375 68.09765625 C-14 68 -14 68 -15 67 C-15.04080783 65.00041636 -15.04254356 62.99954746 -15 61 C-17.31 61 -19.62 61 -22 61 C-22 58.36 -22 55.72 -22 53 C-19.69 53 -17.38 53 -15 53 C-15 50.69 -15 48.38 -15 46 C-39.42 46 -63.84 46 -89 46 C-89 48.31 -89 50.62 -89 53 C-91.64 53 -94.28 53 -97 53 C-97 55.64 -97 58.28 -97 61 C-99.31 61 -101.62 61 -104 61 C-104 63.31 -104 65.62 -104 68 C-106.64 68 -109.28 68 -112 68 C-112 67.67 -112 67.34 -112 67 C-110.02 67 -108.04 67 -106 67 C-106 64.69 -106 62.38 -106 60 C-103.69 60 -101.38 60 -99 60 C-99.020625 59.05125 -99.04125 58.1025 -99.0625 57.125 C-99 54 -99 54 -98 52 C-95.69 52 -93.38 52 -91 52 C-91 49.69 -91 47.38 -91 45 C-66.25 45 -41.5 45 -16 45 C-16 40.71 -16 36.42 -16 32 C-15.01 30.515 -15.01 30.515 -14 29 C-10.875 28.8125 -10.875 28.8125 -8 29 C-7.67 26.69 -7.34 24.38 -7 22 C-4.69 22 -2.38 22 0 22 C0 14.74 0 7.48 0 0 Z " fill="#806662" transform="translate(118,29)"/>
<path d="M0 0 C20.13 0 40.26 0 61 0 C61 2.31 61 4.62 61 7 C60.67 7 60.34 7 60 7 C60 5.02 60 3.04 60 1 C40.86 1 21.72 1 2 1 C2 2.98 2 4.96 2 7 C-0.31 7.66 -2.62 8.32 -5 9 C-5.33 25.5 -5.66 42 -6 59 C-4.68 59 -3.36 59 -2 59 C-2.061875 58.071875 -2.12375 57.14375 -2.1875 56.1875 C-2 53 -2 53 -0.75 51.125 C1 50 1 50 5 50 C4.896875 48.9275 4.79375 47.855 4.6875 46.75 C5 43 5 43 6.8125 40.5625 C11.49323823 38.26802048 15.87850352 38.67710355 21 39 C21 38.01 21 37.02 21 36 C22.58294782 35.94562393 24.16644256 35.90703729 25.75 35.875 C27.07257812 35.84019531 27.07257812 35.84019531 28.421875 35.8046875 C31.1135858 36.00860498 32.69904974 36.63448279 35 38 C35 37.01 35 36.02 35 35 C38.96 35.33 42.92 35.66 47 36 C48.2077558 39.62326739 47.54311128 40.64146369 46 44 C48.31 44 50.62 44 53 44 C52.979375 43.030625 52.95875 42.06125 52.9375 41.0625 C53 38 53 38 54 37 C56.31074168 36.90067608 58.62462942 36.87030382 60.9375 36.875 C62.20464844 36.87242188 63.47179687 36.86984375 64.77734375 36.8671875 C68 37 68 37 70 38 C70 39.98 70 41.96 70 44 C71.98 44 73.96 44 76 44 C77.35439668 46.70879335 77.06501451 49.00933268 77 52 C76.34 52 75.68 52 75 52 C75 50.02 75 48.04 75 46 C60.15 45.505 60.15 45.505 45 45 C45 43.02 45 41.04 45 39 C43.35 39 41.7 39 40 39 C40 40.98 40 42.96 40 45 C37.03 45 34.06 45 31 45 C31 42.69 31 40.38 31 38 C28.36 38 25.72 38 23 38 C23 40.31 23 42.62 23 45 C17.72 45 12.44 45 7 45 C7 47.31 7 49.62 7 52 C4.03 52.495 4.03 52.495 1 53 C0.34 55.31 -0.32 57.62 -1 60 C-2.98 60 -4.96 60 -7 60 C-7.14516371 55.00536457 -7.28743198 50.01065718 -7.42724609 45.01586914 C-7.47499152 43.32379031 -7.52346974 41.63173197 -7.57275391 39.93969727 C-7.82072219 31.41009448 -8.0475816 22.88109458 -8.09375 14.34765625 C-8.10083984 13.14246338 -8.10792969 11.93727051 -8.11523438 10.69555664 C-8 8 -8 8 -7 7 C-4.66702567 6.95907063 -2.33294775 6.95758277 0 7 C0 4.69 0 2.38 0 0 Z " fill="#B35A22" transform="translate(35,82)"/>
<path d="M0 0 C1.65 0 3.3 0 5 0 C5 1.98 5 3.96 5 6 C6.04341553 5.99214478 6.04341553 5.99214478 7.10791016 5.98413086 C10.28026413 5.96325663 13.45260361 5.95030668 16.625 5.9375 C17.71941406 5.92912109 18.81382813 5.92074219 19.94140625 5.91210938 C21.53662109 5.90727539 21.53662109 5.90727539 23.1640625 5.90234375 C24.62513428 5.89448853 24.62513428 5.89448853 26.11572266 5.88647461 C29 6 29 6 35 7 C35.66 11.62 36.32 16.24 37 21 C38.98 21.33 40.96 21.66 43 22 C43 23.98 43 25.96 43 28 C38.38 28 33.76 28 29 28 C28.67 23.38 28.34 18.76 28 14 C13.15 13.505 13.15 13.505 -2 13 C-2 15.31 -2 17.62 -2 20 C-3.99954746 20.04254356 -6.00041636 20.04080783 -8 20 C-9 19 -9 19 -9.25 16.0625 C-9.1675 15.051875 -9.085 14.04125 -9 13 C-6 11 -6 11 -2 11 C-2 9.35 -2 7.7 -2 6 C-1.34 6 -0.68 6 0 6 C0 4.02 0 2.04 0 0 Z " fill="#59282D" transform="translate(75,121)"/>
<path d="M0 0 C24.09 0 48.18 0 73 0 C73 2.31 73 4.62 73 7 C48.91 6.67 24.82 6.34 0 6 C0 4.02 0 2.04 0 0 Z " fill="#331B1B" transform="translate(30,75)"/>
<path d="M0 0 C5.28 0 10.56 0 16 0 C16 2.31 16 4.62 16 7 C18.31 7 20.62 7 23 7 C23 7.66 23 8.32 23 9 C22.01 9.495 22.01 9.495 21 10 C21 10.99 21 11.98 21 13 C23.475 13.495 23.475 13.495 26 14 C25.67 19.28 25.34 24.56 25 30 C21.37 30 17.74 30 14 30 C14 25 14 20 14 15 C13.34 15 12.68 15 12 15 C11.67 14.01 11.34 13.02 11 12 C10.67 15.3 10.34 18.6 10 22 C9.34 22 8.68 22 8 22 C8 17.05 8 12.1 8 7 C5.36 7 2.72 7 0 7 C0 4.69 0 2.38 0 0 Z " fill="#B78659" transform="translate(141,52)"/>
<path d="M0 0 C6.15234375 -0.09765625 6.15234375 -0.09765625 8 0 C9 1 9 1 9.0625 3.5625 C9.041875 4.366875 9.02125 5.17125 9 6 C11.31 6 13.62 6 16 6 C16 8.64 16 11.28 16 14 C17.98 14 19.96 14 22 14 C22 9.38 22 4.76 22 0 C24.64 0 27.28 0 30 0 C30 4.95 30 9.9 30 15 C27.69 15 25.38 15 23 15 C23 17.64 23 20.28 23 23 C21.25008666 23.02715383 19.50005055 23.04646551 17.75 23.0625 C16.28820312 23.07990234 16.28820312 23.07990234 14.796875 23.09765625 C12 23 12 23 8 22 C8 17.05 8 12.1 8 7 C5.36 7 2.72 7 0 7 C0 4.69 0 2.38 0 0 Z " fill="#6D4836" transform="translate(126,127)"/>
<path d="M0 0 C0.33 0 0.66 0 1 0 C1 4.62 1 9.24 1 14 C-3.95 14 -8.9 14 -14 14 C-14 24.23 -14 34.46 -14 45 C-21.26 45 -28.52 45 -36 45 C-36 46.98 -36 48.96 -36 51 C-33.36 51 -30.72 51 -28 51 C-28.1135629 52.64666203 -28.24117381 54.29236082 -28.375 55.9375 C-28.44460937 56.85402344 -28.51421875 57.77054688 -28.5859375 58.71484375 C-28.72257812 59.46894531 -28.85921875 60.22304687 -29 61 C-31.49092811 62.24546405 -32.41080733 61.7767578 -35 61 C-35 62.32 -35 63.64 -35 65 C-33.35 65 -31.7 65 -30 65 C-30 64.34 -30 63.68 -30 63 C-29.34 63 -28.68 63 -28 63 C-28 64.32 -28 65.64 -28 67 C-26.68 67 -25.36 67 -24 67 C-24.33 66.01 -24.66 65.02 -25 64 C-24.34 63.01 -23.68 62.02 -23 61 C-22.34 61 -21.68 61 -21 61 C-21.33 65.29 -21.66 69.58 -22 74 C-24.64 74 -27.28 74 -30 74 C-30 76.64 -30 79.28 -30 82 C-32.31 82 -34.62 82 -37 82 C-37 74.41 -37 66.82 -37 59 C-34.69 59 -32.38 59 -30 59 C-30.33 57.35 -30.66 55.7 -31 54 C-32.98 53.67 -34.96 53.34 -37 53 C-37 50.03 -37 47.06 -37 44 C-29.74 44 -22.48 44 -15 44 C-15 33.77 -15 23.54 -15 13 C-10.05 13 -5.1 13 0 13 C0 8.71 0 4.42 0 0 Z " fill="#BF9063" transform="translate(148,60)"/>
<path d="M0 0 C0.33 0 0.66 0 1 0 C1 1.98 1 3.96 1 6 C22.78 6 44.56 6 67 6 C67 6.33 67 6.66 67 7 C46.87 7 26.74 7 6 7 C6 9.31 6 11.62 6 14 C3.69 14.33 1.38 14.66 -1 15 C-1.33 19.62 -1.66 24.24 -2 29 C-6.29 29 -10.58 29 -15 29 C-15 23 -15 23 -14 22 C-12.35 22 -10.7 22 -9 22 C-8.67 17.05 -8.34 12.1 -8 7 C-5.36 7 -2.72 7 0 7 C0 4.69 0 2.38 0 0 Z " fill="#5D3221" transform="translate(29,75)"/>
<path d="M0 0 C7.26 0 14.52 0 22 0 C22 6.93 22 13.86 22 21 C20.02 21 18.04 21 16 21 C16 19.02 16 17.04 16 15 C13.36 15 10.72 15 8 15 C8 12.36 8 9.72 8 7 C5.36 7 2.72 7 0 7 C0 4.69 0 2.38 0 0 Z " fill="#341D1D" transform="translate(179,67)"/>
<path d="M0 0 C2.31 0 4.62 0 7 0 C7 12.21 7 24.42 7 37 C4.69 37 2.38 37 0 37 C0 24.79 0 12.58 0 0 Z " fill="#311A1B" transform="translate(172,29)"/>
<path d="M0 0 C0 1.98 0 3.96 0 6 C2.31 6 4.62 6 7 6 C7 8.64 7 11.28 7 14 C8.98 14 10.96 14 13 14 C13 16.64 13 19.28 13 22 C10.36 22 7.72 22 5 22 C5 19.69 5 17.38 5 15 C4.00097656 15.01160156 3.00195312 15.02320312 1.97265625 15.03515625 C0.68230469 15.04417969 -0.60804687 15.05320312 -1.9375 15.0625 C-3.22527344 15.07410156 -4.51304688 15.08570312 -5.83984375 15.09765625 C-9 15 -9 15 -10 14 C-10.04080783 12.00041636 -10.04254356 9.99954746 -10 8 C-12.31 8 -14.62 8 -17 8 C-17 7.67 -17 7.34 -17 7 C-14.36 7 -11.72 7 -9 7 C-8.67 5.35 -8.34 3.7 -8 2 C-2.25 0 -2.25 0 0 0 Z " fill="#9A4A25" transform="translate(113,82)"/>
<path d="M0 0 C2.64 0 5.28 0 8 0 C8 2.31 8 4.62 8 7 C5.36 7.33 2.72 7.66 0 8 C0 10.31 0 12.62 0 15 C-7.26 15 -14.52 15 -22 15 C-22 12.03 -22 9.06 -22 6 C-14.74 6 -7.48 6 0 6 C0 4.02 0 2.04 0 0 Z " fill="#3B2320" transform="translate(186,89)"/>
<path d="M0 0 C1.98 0 3.96 0 6 0 C6 2.31 6 4.62 6 7 C4.02 7 2.04 7 0 7 C0.08677002 7.64549805 0.17354004 8.29099609 0.26293945 8.95605469 C0.64071632 11.88454938 0.97696699 14.81637803 1.3125 17.75 C1.44978516 18.76578125 1.58707031 19.7815625 1.72851562 20.828125 C2.03272639 23.63055141 2.26415039 26.19232773 2 29 C-0.45703125 31.703125 -0.45703125 31.703125 -3 33 C-3 32.34 -3 31.68 -3 31 C-4.65 30.67 -6.3 30.34 -8 30 C-8 22.41 -8 14.82 -8 7 C-5.69 7 -3.38 7 -1 7 C-0.67 4.69 -0.34 2.38 0 0 Z " fill="#391F1D" transform="translate(165,22)"/>
<path d="M0 0 C2.97 0 5.94 0 9 0 C8.67 1.32 8.34 2.64 8 4 C8.99 4.33 9.98 4.66 11 5 C12.34090759 5.65129797 13.67592331 6.31513275 15 7 C15 8.98 15 10.96 15 13 C17.97 13.495 17.97 13.495 21 14 C21 16.31 21 18.62 21 21 C16.38 21 11.76 21 7 21 C6.67 16.38 6.34 11.76 6 7 C3.69 6.67 1.38 6.34 -1 6 C-0.67 4.02 -0.34 2.04 0 0 Z " fill="#301A1B" transform="translate(44,128)"/>
<path d="M0 0 C5.28 0 10.56 0 16 0 C16 4.95 16 9.9 16 15 C20.95 15.33 25.9 15.66 31 16 C31 16.33 31 16.66 31 17 C28.52076199 17.02685095 26.0418116 17.04676547 23.5625 17.0625 C22.85544922 17.07087891 22.14839844 17.07925781 21.41992188 17.08789062 C19.61306441 17.09653588 17.80612397 17.05220011 16 17 C15 16 15 16 14.90234375 12.83984375 C14.91394531 11.55207031 14.92554688 10.26429688 14.9375 8.9375 C14.94652344 7.64714844 14.95554688 6.35679687 14.96484375 5.02734375 C14.97644531 4.02832031 14.98804688 3.02929688 15 2 C13.35 2 11.7 2 10 2 C9.67 4.31 9.34 6.62 9 9 C6.69 9 4.38 9 2 9 C2.04125 9.94875 2.0825 10.8975 2.125 11.875 C2 15 2 15 0 17 C-3.2578125 17.1953125 -3.2578125 17.1953125 -7.125 17.125 C-9.04699219 17.09792969 -9.04699219 17.09792969 -11.0078125 17.0703125 C-12.48894531 17.03550781 -12.48894531 17.03550781 -14 17 C-16.14336161 13.5233662 -16.21277626 10.78770805 -16.125 6.75 C-16.10695313 5.67234375 -16.08890625 4.5946875 -16.0703125 3.484375 C-16.04710938 2.66453125 -16.02390625 1.8446875 -16 1 C-15.34 1 -14.68 1 -14 1 C-14 5.62 -14 10.24 -14 15 C-9.38 15 -4.76 15 0 15 C0 13.02 0 11.04 0 9 C-1.98 9 -3.96 9 -6 9 C-6 8.67 -6 8.34 -6 8 C-4.02 8 -2.04 8 0 8 C0 5.36 0 2.72 0 0 Z " fill="#998885" transform="translate(118,134)"/>
<path d="M0 0 C1.134375 0.020625 2.26875 0.04125 3.4375 0.0625 C3.4375 2.3725 3.4375 4.6825 3.4375 7.0625 C5.7475 7.0625 8.0575 7.0625 10.4375 7.0625 C10.416875 6.093125 10.39625 5.12375 10.375 4.125 C10.4375 1.0625 10.4375 1.0625 11.4375 0.0625 C13.74824168 -0.03682392 16.06212942 -0.06719618 18.375 -0.0625 C19.64214844 -0.06507812 20.90929687 -0.06765625 22.21484375 -0.0703125 C25.4375 0.0625 25.4375 0.0625 27.4375 1.0625 C27.4375 3.0425 27.4375 5.0225 27.4375 7.0625 C29.4175 7.0625 31.3975 7.0625 33.4375 7.0625 C34.79189668 9.77129335 34.50251451 12.07183268 34.4375 15.0625 C33.7775 15.0625 33.1175 15.0625 32.4375 15.0625 C32.4375 13.0825 32.4375 11.1025 32.4375 9.0625 C17.5875 8.5675 17.5875 8.5675 2.4375 8.0625 C2.4375 6.0825 2.4375 4.1025 2.4375 2.0625 C0.7875 2.0625 -0.8625 2.0625 -2.5625 2.0625 C-2.5625 4.0425 -2.5625 6.0225 -2.5625 8.0625 C-3.2225 8.0625 -3.8825 8.0625 -4.5625 8.0625 C-4.60491723 5.72955225 -4.60342937 3.39547433 -4.5625 1.0625 C-3.5625 0.0625 -3.5625 0.0625 0 0 Z " fill="#6B3028" transform="translate(77.5625,118.9375)"/>
<path d="M0 0 C4.25414623 -0.02465622 8.50825498 -0.04283899 12.76245117 -0.05493164 C14.21070073 -0.05997101 15.65894517 -0.06680253 17.10717773 -0.07543945 C19.18474588 -0.08752247 21.26224697 -0.09323211 23.33984375 -0.09765625 C24.59144287 -0.10289307 25.84304199 -0.10812988 27.13256836 -0.11352539 C30 0 30 0 31 1 C31.0991657 2.62257544 31.13079777 4.24939831 31.1328125 5.875 C31.13474609 7.35226563 31.13474609 7.35226563 31.13671875 8.859375 C31.13285156 9.89578125 31.12898438 10.9321875 31.125 12 C31.13080078 13.55460937 31.13080078 13.55460937 31.13671875 15.140625 C31.13542969 16.12546875 31.13414062 17.1103125 31.1328125 18.125 C31.13168457 19.03507812 31.13055664 19.94515625 31.12939453 20.8828125 C31 23 31 23 30 24 C28.00041636 24.04080783 25.99954746 24.04254356 24 24 C24.020625 24.94875 24.04125 25.8975 24.0625 26.875 C24 30 24 30 23 32 C20.69 32 18.38 32 16 32 C16.020625 32.969375 16.04125 33.93875 16.0625 34.9375 C16 38 16 38 15 39 C13.36527118 39.08700342 11.72685945 39.10701063 10.08984375 39.09765625 C9.199021 39.09515869 8.30819824 39.09266113 7.39038086 39.09008789 C6.25093018 39.08098389 5.11147949 39.07187988 3.9375 39.0625 C0.328125 39.041875 -3.28125 39.02125 -7 39 C-7 46.26 -7 53.52 -7 61 C-7.33 61 -7.66 61 -8 61 C-8 53.41 -8 45.82 -8 38 C-0.74 38 6.52 38 14 38 C13.67 35.36 13.34 32.72 13 30 C15.97 30 18.94 30 22 30 C22 25.38 22 20.76 22 16 C22.33 16 22.66 16 23 16 C23 17.98 23 19.96 23 22 C24.98 22 26.96 22 29 22 C29 15.07 29 8.14 29 1 C19.43 1 9.86 1 0 1 C0 0.67 0 0.34 0 0 Z " fill="#8C7C7C" transform="translate(172,66)"/>
<path d="M0 0 C20.13 0 40.26 0 61 0 C61 2.31 61 4.62 61 7 C60.67 7 60.34 7 60 7 C60 5.02 60 3.04 60 1 C40.86 1 21.72 1 2 1 C2 2.98 2 4.96 2 7 C-0.31 7.66 -2.62 8.32 -5 9 C-5.33 25.5 -5.66 42 -6 59 C-4.35 59 -2.7 59 -1 59 C-1 59.33 -1 59.66 -1 60 C-2.98 60 -4.96 60 -7 60 C-7.14516371 55.00536457 -7.28743198 50.01065718 -7.42724609 45.01586914 C-7.47499152 43.32379031 -7.52346974 41.63173197 -7.57275391 39.93969727 C-7.82072219 31.41009448 -8.0475816 22.88109458 -8.09375 14.34765625 C-8.10083984 13.14246338 -8.10792969 11.93727051 -8.11523438 10.69555664 C-8 8 -8 8 -7 7 C-4.66702567 6.95907063 -2.33294775 6.95758277 0 7 C0 4.69 0 2.38 0 0 Z " fill="#A04F21" transform="translate(35,82)"/>
<path d="M0 0 C2.31 0 4.62 0 7 0 C7 7.26 7 14.52 7 22 C4.69 22 2.38 22 0 22 C0 14.74 0 7.48 0 0 Z " fill="#3E1D14" transform="translate(134,29)"/>
<path d="M0 0 C1.98 0 3.96 0 6 0 C7 1 7 1 7.11352539 3.04125977 C7.10828857 3.91580811 7.10305176 4.79035645 7.09765625 5.69140625 C7.09443359 6.63564453 7.09121094 7.57988281 7.08789062 8.55273438 C7.07951172 9.54595703 7.07113281 10.53917969 7.0625 11.5625 C7.05798828 12.55958984 7.05347656 13.55667969 7.04882812 14.58398438 C7.03700007 17.05604849 7.02051849 19.52799518 7 22 C4.69 22 2.38 22 0 22 C0 14.74 0 7.48 0 0 Z " fill="#392120" transform="translate(157,104)"/>
<path d="M0 0 C0.33 0 0.66 0 1 0 C1 2.31 1 4.62 1 7 C2.98 7 4.96 7 7 7 C6.67 11.95 6.34 16.9 6 22 C1.71 22 -2.58 22 -7 22 C-7 16 -7 16 -6 15 C-4.35 15 -2.7 15 -1 15 C-0.67 10.05 -0.34 5.1 0 0 Z " fill="#65312B" transform="translate(21,82)"/>
<path d="M0 0 C2.31 0 4.62 0 7 0 C7 7.26 7 14.52 7 22 C5.02 22 3.04 22 1 22 C0 21 0 21 -0.11352539 18.95874023 C-0.10828857 18.08419189 -0.10305176 17.20964355 -0.09765625 16.30859375 C-0.09443359 15.36435547 -0.09121094 14.42011719 -0.08789062 13.44726562 C-0.07951172 12.45404297 -0.07113281 11.46082031 -0.0625 10.4375 C-0.05798828 9.44041016 -0.05347656 8.44332031 -0.04882812 7.41601562 C-0.03700007 4.94395151 -0.02051849 2.47200482 0 0 Z " fill="#371B17" transform="translate(119,29)"/>
<path d="M0 0 C9.57 0 19.14 0 29 0 C29 1.65 29 3.3 29 5 C19.43 5 9.86 5 0 5 C0 3.35 0 1.7 0 0 Z " fill="#500C1F" transform="translate(74,128)"/>
<path d="M0 0 C2.31 0 4.62 0 7 0 C7 2.64 7 5.28 7 8 C9.31 8 11.62 8 14 8 C14 9.98 14 11.96 14 14 C9.38 14 4.76 14 0 14 C0 9.38 0 4.76 0 0 Z " fill="#321A1B" transform="translate(134,135)"/>
<path d="M0 0 C1.98 0 3.96 0 6 0 C6 2.31 6 4.62 6 7 C4.35 7.33 2.7 7.66 1 8 C0.67 9.98 0.34 11.96 0 14 C1.39025391 13.98259766 1.39025391 13.98259766 2.80859375 13.96484375 C4.00613281 13.95582031 5.20367187 13.94679688 6.4375 13.9375 C7.63246094 13.92589844 8.82742187 13.91429688 10.05859375 13.90234375 C13 14 13 14 14 15 C14.08861992 17.8116338 14.11522355 20.59858255 14.09765625 23.41015625 C14.0962413 24.25219101 14.09482635 25.09422577 14.09336853 25.96177673 C14.08775263 28.66205335 14.07519748 31.36224828 14.0625 34.0625 C14.05748705 35.88867068 14.05292379 37.71484266 14.04882812 39.54101562 C14.03777804 44.02737542 14.02050279 48.51367384 14 53 C13.34 53 12.68 53 12 53 C12 40.46 12 27.92 12 15 C7.71 15 3.42 15 -1 15 C-1.09038099 9.84828377 -0.84681133 5.08086796 0 0 Z " fill="#47231D" transform="translate(14,90)"/>
<path d="M0 0 C2.64 0 5.28 0 8 0 C8 2.64 8 5.28 8 8 C5.36 7.67 2.72 7.34 0 7 C0 10.3 0 13.6 0 17 C-1.98 16.67 -3.96 16.34 -6 16 C-6 18.31 -6 20.62 -6 23 C-8.64 23 -11.28 23 -14 23 C-14 25.64 -14 28.28 -14 31 C-15.98 31 -17.96 31 -20 31 C-20 30.67 -20 30.34 -20 30 C-18.35 30 -16.7 30 -15 30 C-15.020625 28.700625 -15.04125 27.40125 -15.0625 26.0625 C-15.08399454 24.70834367 -15.07148199 23.35243917 -15 22 C-14 21 -14 21 -10.9375 20.9375 C-9.4834375 20.9684375 -9.4834375 20.9684375 -8 21 C-8.020625 20.030625 -8.04125 19.06125 -8.0625 18.0625 C-8 15 -8 15 -7 14 C-5.00041636 13.95919217 -2.99954746 13.95745644 -1 14 C-1.020625 12.80375 -1.04125 11.6075 -1.0625 10.375 C-1.06882571 6.81995131 -0.69888875 3.49444376 0 0 Z " fill="#B07A50" transform="translate(156,97)"/>
<path d="M0 0 C0 1.98 0 3.96 0 6 C2.64 6 5.28 6 8 6 C8 8.31 8 10.62 8 13 C3.71 13 -0.58 13 -5 13 C-6.125 4.375 -6.125 4.375 -5 1 C-2 0 -2 0 0 0 Z " fill="#6E342A" transform="translate(110,83)"/>
<path d="M0 0 C2.64 0 5.28 0 8 0 C8 0.33 8 0.66 8 1 C6.02 1 4.04 1 2 1 C2 4.96 2 8.92 2 13 C2.99902344 12.98839844 3.99804688 12.97679688 5.02734375 12.96484375 C6.31769531 12.95582031 7.60804687 12.94679688 8.9375 12.9375 C10.22527344 12.92589844 11.51304688 12.91429688 12.83984375 12.90234375 C16 13 16 13 17 14 C17.08858646 16.73894085 17.11523479 19.4525327 17.09765625 22.19140625 C17.0962413 23.01124496 17.09482635 23.83108368 17.09336853 24.67576599 C17.08775289 27.30471382 17.07519779 29.93357773 17.0625 32.5625 C17.05748701 34.34049357 17.05292376 36.11848846 17.04882812 37.89648438 C17.03777839 42.26435545 17.02050331 46.63216348 17 51 C21.29 51 25.58 51 30 51 C30 51.33 30 51.66 30 52 C25.38 52 20.76 52 16 52 C16 39.79 16 27.58 16 15 C10.72 15 5.44 15 0 15 C-0.82264058 10.88679709 -1.04025145 8.66876212 -0.5625 4.6875 C-0.46066406 3.80449219 -0.35882813 2.92148438 -0.25390625 2.01171875 C-0.17011719 1.34785156 -0.08632812 0.68398437 0 0 Z " fill="#4B3739" transform="translate(5,97)"/>
<path d="M0 0 C2.31 0 4.62 0 7 0 C6.67 0.66 6.34 1.32 6 2 C5.01 1.67 4.02 1.34 3 1 C3 1.66 3 2.32 3 3 C2.34 3 1.68 3 1 3 C1.33 12.57 1.66 22.14 2 32 C2.66 32 3.32 32 4 32 C4.80929482 28.39129392 5.17814083 24.95538062 5.31640625 21.26171875 C5.35830078 20.19501953 5.40019531 19.12832031 5.44335938 18.02929688 C5.48267578 16.92650391 5.52199219 15.82371094 5.5625 14.6875 C5.62727539 13.00430664 5.62727539 13.00430664 5.69335938 11.28710938 C5.79914787 8.52485431 5.90123672 5.7625137 6 3 C6.33 3 6.66 3 7 3 C7 14.22 7 25.44 7 37 C4.69 37 2.38 37 0 37 C0 24.79 0 12.58 0 0 Z " fill="#392223" transform="translate(172,29)"/>
<path d="M0 0 C0.33 0 0.66 0 1 0 C1 4.62 1 9.24 1 14 C-3.95 14 -8.9 14 -14 14 C-14 24.23 -14 34.46 -14 45 C-21.26 45 -28.52 45 -36 45 C-36 46.98 -36 48.96 -36 51 C-33.36 51 -30.72 51 -28 51 C-28.33 53.64 -28.66 56.28 -29 59 C-29.33 59 -29.66 59 -30 59 C-30.33 57.35 -30.66 55.7 -31 54 C-32.98 53.67 -34.96 53.34 -37 53 C-37 50.03 -37 47.06 -37 44 C-29.74 44 -22.48 44 -15 44 C-15 33.77 -15 23.54 -15 13 C-10.05 13 -5.1 13 0 13 C0 8.71 0 4.42 0 0 Z " fill="#B9733F" transform="translate(148,60)"/>
<path d="M0 0 C5.28 0 10.56 0 16 0 C16 2.31 16 4.62 16 7 C10.72 7 5.44 7 0 7 C0 4.69 0 2.38 0 0 Z " fill="#43231E" transform="translate(141,52)"/>
<path d="M0 0 C2.64 0 5.28 0 8 0 C7.67 4.95 7.34 9.9 7 15 C4.69 15 2.38 15 0 15 C0 10.05 0 5.1 0 0 Z " fill="#AE6E3C" transform="translate(111,127)"/>
<path d="M0 0 C1.65 0 3.3 0 5 0 C5 2.64 5 5.28 5 8 C7.64 8 10.28 8 13 8 C13 9.65 13 11.3 13 13 C8.71 13 4.42 13 0 13 C0 8.71 0 4.42 0 0 Z " fill="#321B1F" transform="translate(105,135)"/>
<path d="M0 0 C2.31 0 4.62 0 7 0 C7 4.95 7 9.9 7 15 C4.69 15 2.38 15 0 15 C0 10.05 0 5.1 0 0 Z " fill="#462824" transform="translate(157,67)"/>
<path d="M0 0 C2.64 0 5.28 0 8 0 C8 2.31 8 4.62 8 7 C1.26815587 7.87686585 -5.2785368 8.12387197 -12.0625 8.0625 C-13.02349609 8.05798828 -13.98449219 8.05347656 -14.97460938 8.04882812 C-17.31647422 8.03717706 -19.65820181 8.02082025 -22 8 C-22 7.34 -22 6.68 -22 6 C-14.74 6 -7.48 6 0 6 C0 4.02 0 2.04 0 0 Z " fill="#9C775B" transform="translate(186,89)"/>
<path d="M0 0 C2.31 0 4.62 0 7 0 C7 4.62 7 9.24 7 14 C4.69 14 2.38 14 0 14 C0 9.38 0 4.76 0 0 Z " fill="#311C1E" transform="translate(149,127)"/>
<path d="M0 0 C2.97 0 5.94 0 9 0 C8.67 1.32 8.34 2.64 8 4 C8.99 4.33 9.98 4.66 11 5 C11.99 5.66 12.98 6.32 14 7 C12.35 7.33 10.7 7.66 9 8 C8.67 11.96 8.34 15.92 8 20 C12.29 20 16.58 20 21 20 C21 20.33 21 20.66 21 21 C16.38 21 11.76 21 7 21 C6.67 16.38 6.34 11.76 6 7 C3.69 6.67 1.38 6.34 -1 6 C-0.67 4.02 -0.34 2.04 0 0 Z " fill="#543434" transform="translate(44,128)"/>
<path d="M0 0 C1.98 0 3.96 0 6 0 C6 2.31 6 4.62 6 7 C4.02 7 2.04 7 0 7 C0.08677002 7.64549805 0.17354004 8.29099609 0.26293945 8.95605469 C0.64071632 11.88454938 0.97696699 14.81637803 1.3125 17.75 C1.44978516 18.76578125 1.58707031 19.7815625 1.72851562 20.828125 C2.03272639 23.63055141 2.26415039 26.19232773 2 29 C-0.45703125 31.703125 -0.45703125 31.703125 -3 33 C-3 32.34 -3 31.68 -3 31 C-4.65 30.67 -6.3 30.34 -8 30 C-7.67 29.34 -7.34 28.68 -7 28 C-5.02 28.33 -3.04 28.66 -1 29 C-1.00523682 28.29915283 -1.01047363 27.59830566 -1.01586914 26.8762207 C-1.03670852 23.68832299 -1.04968232 20.50043964 -1.0625 17.3125 C-1.07087891 16.20970703 -1.07925781 15.10691406 -1.08789062 13.97070312 C-1.09111328 12.90400391 -1.09433594 11.83730469 -1.09765625 10.73828125 C-1.10289307 9.75899658 -1.10812988 8.77971191 -1.11352539 7.77075195 C-1.00308543 5.07530428 -0.60534166 2.62454361 0 0 Z " fill="#954D21" transform="translate(165,22)"/>
<path d="M0 0 C2.33294775 -0.04241723 4.66702567 -0.04092937 7 0 C8 1 8 1 8.09765625 4.16015625 C8.04882812 9.58007812 8.04882812 9.58007812 8 15 C12.62 15 17.24 15 22 15 C22 12.69 22 10.38 22 8 C24.64 8 27.28 8 30 8 C30 8.33 30 8.66 30 9 C28.02 9 26.04 9 24 9 C24.020625 10.134375 24.04125 11.26875 24.0625 12.4375 C24 16 24 16 23 17 C20.68925832 17.09932392 18.37537058 17.12969618 16.0625 17.125 C14.16177734 17.12886719 14.16177734 17.12886719 12.22265625 17.1328125 C9 17 9 17 7 16 C7 11.38 7 6.76 7 2 C5.02 2 3.04 2 1 2 C1 3.98 1 5.96 1 8 C0.67 8 0.34 8 0 8 C0 5.36 0 2.72 0 0 Z " fill="#988785" transform="translate(43,134)"/>
<path d="M0 0 C1.98 0 3.96 0 6 0 C6 4.62 6 9.24 6 14 C4.02 14 2.04 14 0 14 C0 9.38 0 4.76 0 0 Z " fill="#391D1B" transform="translate(105,60)"/>
<path d="M0 0 C2.31 0 4.62 0 7 0 C7 6.93 7 13.86 7 21 C5.35 21 3.7 21 2 21 C1 20 1 20 0.90234375 16.18359375 C0.90901911 14.60153318 0.92098125 13.01948841 0.9375 11.4375 C0.94201172 10.63119141 0.94652344 9.82488281 0.95117188 8.99414062 C0.96299482 6.99606244 0.98093086 4.99802217 1 3 C1.66 3 2.32 3 3 3 C3.33 7.62 3.66 12.24 4 17 C4.66 17 5.32 17 6 17 C6 11.72 6 6.44 6 1 C4.02 1 2.04 1 0 1 C0 0.67 0 0.34 0 0 Z " fill="#321E20" transform="translate(134,29)"/>
<path d="M0 0 C1.134375 0.020625 2.26875 0.04125 3.4375 0.0625 C3.4375 2.3725 3.4375 4.6825 3.4375 7.0625 C5.7475 7.0625 8.0575 7.0625 10.4375 7.0625 C10.416875 6.093125 10.39625 5.12375 10.375 4.125 C10.4375 1.0625 10.4375 1.0625 11.4375 0.0625 C13.79063555 -0.01021741 16.14583668 -0.02120868 18.5 0 C19.79035156 0.00902344 21.08070312 0.01804687 22.41015625 0.02734375 C23.40917969 0.03894531 24.40820312 0.05054687 25.4375 0.0625 C25.4375 0.3925 25.4375 0.7225 25.4375 1.0625 C21.1475 1.0625 16.8575 1.0625 12.4375 1.0625 C12.4375 3.3725 12.4375 5.6825 12.4375 8.0625 C9.1375 8.0625 5.8375 8.0625 2.4375 8.0625 C2.4375 6.0825 2.4375 4.1025 2.4375 2.0625 C0.7875 2.0625 -0.8625 2.0625 -2.5625 2.0625 C-2.5625 4.0425 -2.5625 6.0225 -2.5625 8.0625 C-3.2225 8.0625 -3.8825 8.0625 -4.5625 8.0625 C-4.60491723 5.72955225 -4.60342937 3.39547433 -4.5625 1.0625 C-3.5625 0.0625 -3.5625 0.0625 0 0 Z " fill="#8A4125" transform="translate(77.5625,118.9375)"/>
<path d="M0 0 C2.475 0.99 2.475 0.99 5 2 C4.01 2.495 4.01 2.495 3 3 C3 7.95 3 12.9 3 18 C3.66 18 4.32 18 5 18 C5 18.66 5 19.32 5 20 C3.35 20.33 1.7 20.66 0 21 C0 14.07 0 7.14 0 0 Z " fill="#3A2526" transform="translate(119,29)"/>
<path d="M0 0 C2.31 0 4.62 0 7 0 C7 0.99 7 1.98 7 3 C6.01 3 5.02 3 4 3 C3.34 6.3 2.68 9.6 2 13 C5.96 13 9.92 13 14 13 C14 13.33 14 13.66 14 14 C9.38 14 4.76 14 0 14 C0 9.38 0 4.76 0 0 Z " fill="#3D2827" transform="translate(134,135)"/>
<path d="M0 0 C2.64 0 5.28 0 8 0 C9.33332095 2.6666419 8.67102033 4.16680303 8 7 C5.36 7 2.72 7 0 7 C0 4.69 0 2.38 0 0 Z " fill="#3D2520" transform="translate(179,67)"/>
<path d="M0 0 C3.3 0.33 6.6 0.66 10 1 C10 3.64 10 6.28 10 9 C7.69 9 5.38 9 3 9 C3 6.36 3 3.72 3 1 C2.01 0.67 1.02 0.34 0 0 Z " fill="#9F6037" transform="translate(123,95)"/>
<path d="M0 0 C3.465 1.485 3.465 1.485 7 3 C6.67 8.28 6.34 13.56 6 19 C5.34 19 4.68 19 4 19 C4 14.05 4 9.1 4 4 C1.69 4 -0.62 4 -3 4 C-3 3.34 -3 2.68 -3 2 C-2.01 1.34 -1.02 0.68 0 0 Z " fill="#AC8563" transform="translate(160,63)"/>
<path d="M0 0 C1.4540625 0.0309375 1.4540625 0.0309375 2.9375 0.0625 C2.9375 2.0425 2.9375 4.0225 2.9375 6.0625 C5.9075 6.5575 5.9075 6.5575 8.9375 7.0625 C8.6075 7.7225 8.2775 8.3825 7.9375 9.0625 C5.58578869 8.46388258 3.2515622 7.79325648 0.9375 7.0625 C0.6075 6.4025 0.2775 5.7425 -0.0625 5.0625 C-2.39325929 6.02115509 -2.39325929 6.02115509 -4.0625 9.0625 C-4.16015625 2.91015625 -4.16015625 2.91015625 -4.0625 1.0625 C-3.0625 0.0625 -3.0625 0.0625 0 0 Z " fill="#3D1F1F" transform="translate(56.0625,134.9375)"/>
<path d="M0 0 C0.66 0 1.32 0 2 0 C2 3.96 2 7.92 2 12 C0.35 12 -1.3 12 -3 12 C-3.29162929 7.04230204 -3.12940055 3.97193147 0 0 Z " fill="#A05C2E" transform="translate(145,129)"/>
<path d="M0 0 C2.64 0 5.28 0 8 0 C7.67 0.99 7.34 1.98 7 3 C5.35 2.67 3.7 2.34 2 2 C2 3.32 2 4.64 2 6 C3.65 6 5.3 6 7 6 C7 5.34 7 4.68 7 4 C7.66 4 8.32 4 9 4 C9 6.64 9 9.28 9 12 C8.67 10.68 8.34 9.36 8 8 C5.36 8 2.72 8 0 8 C0 5.36 0 2.72 0 0 Z " fill="#C38753" transform="translate(111,119)"/>
<path d="M0 0 C2.31 0 4.62 0 7 0 C7 2.64 7 5.28 7 8 C4.69 7.67 2.38 7.34 0 7 C0 4.69 0 2.38 0 0 Z " fill="#985C38" transform="translate(157,97)"/>
<path d="M0 0 C2.31 0 4.62 0 7 0 C7 2.31 7 4.62 7 7 C4.69 7 2.38 7 0 7 C0 4.69 0 2.38 0 0 Z " fill="#A26439" transform="translate(142,97)"/>
<path d="M0 0 C2.31 0 4.62 0 7 0 C7 2.31 7 4.62 7 7 C4.69 7 2.38 7 0 7 C0 4.69 0 2.38 0 0 Z " fill="#412924" transform="translate(187,89)"/>
<path d="M0 0 C2.31 0 4.62 0 7 0 C7 2.31 7 4.62 7 7 C5.00045254 7.04254356 2.99958364 7.04080783 1 7 C0 6 0 6 -0.0625 2.9375 C-0.041875 1.968125 -0.02125 0.99875 0 0 Z " fill="#72382A" transform="translate(119,97)"/>
<path d="M0 0 C2.31 0 4.62 0 7 0 C7.04254356 1.99954746 7.04080783 4.00041636 7 6 C6 7 6 7 2.9375 7.0625 C1.4834375 7.0315625 1.4834375 7.0315625 0 7 C0 4.69 0 2.38 0 0 Z " fill="#522719" transform="translate(112,52)"/>
<path d="M0 0 C1.2065625 0.0309375 1.2065625 0.0309375 2.4375 0.0625 C2.4375 2.3725 2.4375 4.6825 2.4375 7.0625 C0.1275 7.0625 -2.1825 7.0625 -4.5625 7.0625 C-3.5234375 0.0859375 -3.5234375 0.0859375 0 0 Z " fill="#6D3527" transform="translate(32.5625,81.9375)"/>
<path d="M0 0 C2.31 0 4.62 0 7 0 C7 0.66 7 1.32 7 2 C5.35 2 3.7 2 2 2 C2 5.63 2 9.26 2 13 C3.65 13 5.3 13 7 13 C7 13.33 7 13.66 7 14 C4.69 14 2.38 14 0 14 C0 9.38 0 4.76 0 0 Z " fill="#46261A" transform="translate(149,127)"/>
<path d="M0 0 C2.31 0 4.62 0 7 0 C7 1.98 7 3.96 7 6 C4.69 6 2.38 6 0 6 C0 4.02 0 2.04 0 0 Z " fill="#3A2220" transform="translate(119,135)"/>
<path d="M0 0 C1.65 0 3.3 0 5 0 C5 4.29 5 8.58 5 13 C4.01 13 3.02 13 2 13 C2 9.04 2 5.08 2 1 C1.34 0.67 0.68 0.34 0 0 Z " fill="#331B14" transform="translate(158,67)"/>
<path d="M0 0 C0.66 0 1.32 0 2 0 C2 1.98 2 3.96 2 6 C3.98 6 5.96 6 8 6 C9.35439668 8.70879335 9.06501451 11.00933268 9 14 C8.34 14 7.68 14 7 14 C7 12.02 7 10.04 7 8 C5.5459375 8.0309375 5.5459375 8.0309375 4.0625 8.0625 C1 8 1 8 0 7 C-0.04092937 4.66702567 -0.04241723 2.33294775 0 0 Z " fill="#944828" transform="translate(103,120)"/>
<path d="M0 0 C2.64 0 5.28 0 8 0 C8 0.33 8 0.66 8 1 C6.02 1 4.04 1 2 1 C2 5.62 2 10.24 2 15 C1.34 15 0.68 15 0 15 C-1.5111995 9.96266834 -0.64599773 5.11828973 0 0 Z " fill="#6C5C5F" transform="translate(5,97)"/>
<path d="M0 0 C1.98 0 3.96 0 6 0 C6 1.98 6 3.96 6 6 C4.02 6 2.04 6 0 6 C0 4.02 0 2.04 0 0 Z " fill="#BE9062" transform="translate(112,135)"/>
<path d="M0 0 C1.98 0 3.96 0 6 0 C6 1.98 6 3.96 6 6 C4.02 6 2.04 6 0 6 C0 4.02 0 2.04 0 0 Z " fill="#3A1F1A" transform="translate(36,135)"/>
<path d="M0 0 C1.98 0 3.96 0 6 0 C6 1.98 6 3.96 6 6 C4.02 6 2.04 6 0 6 C0 4.02 0 2.04 0 0 Z " fill="#381D1E" transform="translate(127,22)"/>
<path d="M0 0 C1.98 0 3.96 0 6 0 C6 1.98 6 3.96 6 6 C4.02 6 2.04 6 0 6 C0 4.02 0 2.04 0 0 Z " fill="#381D1E" transform="translate(165,22)"/>
<path d="M0 0 C1.98 0 3.96 0 6 0 C6 1.98 6 3.96 6 6 C4.33388095 6.042721 2.66617115 6.04063832 1 6 C0 5 0 5 -0.0625 2.4375 C-0.041875 1.633125 -0.02125 0.82875 0 0 Z " fill="#6A2F29" transform="translate(104,128)"/>
<path d="M0 0 C2.31 0 4.62 0 7 0 C7 1.65 7 3.3 7 5 C4.69 5 2.38 5 0 5 C0 3.35 0 1.7 0 0 Z " fill="#3B1E1B" transform="translate(44,128)"/>
<path d="M0 0 C2.31 0 4.62 0 7 0 C7.042721 1.66611905 7.04063832 3.33382885 7 5 C6 6 6 6 3.4375 6.0625 C2.2309375 6.0315625 2.2309375 6.0315625 1 6 C0.67 4.02 0.34 2.04 0 0 Z " fill="#6B332D" transform="translate(96,82)"/>
<path d="M0 0 C1.98 0 3.96 0 6 0 C6 1.65 6 3.3 6 5 C4.02 5 2.04 5 0 5 C0 3.35 0 1.7 0 0 Z " fill="#4F0F1E" transform="translate(66,135)"/>
<path d="M0 0 C1.98 0 3.96 0 6 0 C6 1.65 6 3.3 6 5 C4.02 5 2.04 5 0 5 C0 3.35 0 1.7 0 0 Z " fill="#361B19" transform="translate(127,128)"/>
<path d="M0 0 C1.65 0 3.3 0 5 0 C5 1.98 5 3.96 5 6 C3.35 6 1.7 6 0 6 C0 4.02 0 2.04 0 0 Z " fill="#692F2C" transform="translate(75,121)"/>
<path d="M0 0 C1.65 0 3.3 0 5 0 C5 1.98 5 3.96 5 6 C3.35 5.67 1.7 5.34 0 5 C0 3.35 0 1.7 0 0 Z " fill="#311A1D" transform="translate(14,90)"/>
<path d="M0 0 C2.475 0.495 2.475 0.495 5 1 C5 2.65 5 4.3 5 6 C3.35 6 1.7 6 0 6 C0 4.02 0 2.04 0 0 Z " fill="#341B1C" transform="translate(22,83)"/>
<path d="M0 0 C3.34373475 0.55728913 6.03312999 1.35173889 9 3 C7.7934375 3.4021875 7.7934375 3.4021875 6.5625 3.8125 C5.716875 4.204375 4.87125 4.59625 4 5 C3.67 5.99 3.34 6.98 3 8 C3 5.69 3 3.38 3 1 C2.01 0.67 1.02 0.34 0 0 Z " fill="#A1592D" transform="translate(123,95)"/>
<path d="M0 0 C0.33 0 0.66 0 1 0 C1.33 1.65 1.66 3.3 2 5 C4.97 5.495 4.97 5.495 8 6 C8 6.33 8 6.66 8 7 C5.69 7 3.38 7 1 7 C1.33 9.31 1.66 11.62 2 14 C1.34 14 0.68 14 0 14 C-0.77916092 8.97874074 -1.13016601 5.02296004 0 0 Z " fill="#974B27" transform="translate(118,90)"/>
<path d="M0 0 C2.31 0 4.62 0 7 0 C7 0.99 7 1.98 7 3 C5.02 3.33 3.04 3.66 1 4 C0.67 2.68 0.34 1.36 0 0 Z " fill="#A65525" transform="translate(134,51)"/>
<path d="M0 0 C0 1.65 0 3.3 0 5 C-1.65 5 -3.3 5 -5 5 C-5 3.68 -5 2.36 -5 1 C-3 0 -3 0 0 0 Z " fill="#BB5F1D" transform="translate(117,128)"/>
<path d="M0 0 C0.99 0.33 1.98 0.66 3 1 C3 1.66 3 2.32 3 3 C5.64 3 8.28 3 11 3 C11 3.66 11 4.32 11 5 C7.7 4.67 4.4 4.34 1 4 C0.67 2.68 0.34 1.36 0 0 Z " fill="#2F1713" transform="translate(106,140)"/>
<path d="M0 0 C1.32 0 2.64 0 4 0 C4 1.65 4 3.3 4 5 C2.68 5 1.36 5 0 5 C0 3.35 0 1.7 0 0 Z " fill="#311A1D" transform="translate(113,52)"/>
<path d="M0 0 C0.33 0 0.66 0 1 0 C1 2.31 1 4.62 1 7 C-1.31 7 -3.62 7 -6 7 C-5.34 6.34 -4.68 5.68 -4 5 C-3.01 5 -2.02 5 -1 5 C-0.67 3.35 -0.34 1.7 0 0 Z " fill="#491D19" transform="translate(102,75)"/>
<path d="M0 0 C1.32 0.66 2.64 1.32 4 2 C4 2.66 4 3.32 4 4 C1.69 4 -0.62 4 -3 4 C-3 3.34 -3 2.68 -3 2 C-2.01 1.34 -1.02 0.68 0 0 Z " fill="#9E775A" transform="translate(160,63)"/>
</svg>
