<?xml version="1.0" encoding="UTF-8"?>
<svg version="1.1" xmlns="http://www.w3.org/2000/svg" width="222" height="132">
<path d="M0 0 C14.52 0 29.04 0 44 0 C46 4 46 4 46 8 C48.31 8 50.62 8 53 8 C53 10.31 53 12.62 53 15 C53.62567871 14.99476318 54.25135742 14.98952637 54.89599609 14.98413086 C57.72232057 14.96338382 60.54862905 14.95034714 63.375 14.9375 C64.85226563 14.92493164 64.85226563 14.92493164 66.359375 14.91210938 C67.77089844 14.90727539 67.77089844 14.90727539 69.2109375 14.90234375 C70.51490479 14.89448853 70.51490479 14.89448853 71.84521484 14.88647461 C74 15 74 15 76 16 C76 23.26 76 30.52 76 38 C73.69 38.66 71.38 39.32 69 40 C68.67 41.98 68.34 43.96 68 46 C64.535 46.495 64.535 46.495 61 47 C60.67 49.31 60.34 51.62 60 54 C52.74 54 45.48 54 38 54 C38.0395866 61.19522782 38.0395866 61.19522782 38.09008789 68.39038086 C38.09383423 69.72661499 38.09383423 69.72661499 38.09765625 71.08984375 C38.10289307 72.00628662 38.10812988 72.92272949 38.11352539 73.86694336 C38 76 38 76 37 77 C34.69 77 32.38 77 30 77 C30 81.95 30 86.9 30 92 C27.69 92 25.38 92 23 92 C23.04125 92.94875 23.0825 93.8975 23.125 94.875 C23 98 23 98 21 100 C17.99609375 100.23046875 17.99609375 100.23046875 14.4375 100.1875 C12.67212891 100.17783203 12.67212891 100.17783203 10.87109375 100.16796875 C8 100 8 100 7 99 C6.92686433 96.46950598 6.90752473 93.96695163 6.9375 91.4375 C6.94426758 90.37112305 6.94426758 90.37112305 6.95117188 89.28320312 C6.96299136 87.52209987 6.98092737 85.76103964 7 84 C4.03 84.495 4.03 84.495 1 85 C0.34 87.31 -0.32 89.62 -1 92 C-2.98 92 -4.96 92 -7 92 C-7.144375 93.134375 -7.28875 94.26875 -7.4375 95.4375 C-8 99 -8 99 -9 100 C-11.16480797 100.0989294 -13.33293785 100.129711 -15.5 100.125 C-16.6859375 100.12757812 -17.871875 100.13015625 -19.09375 100.1328125 C-22 100 -22 100 -23 99 C-23.07313567 96.46950598 -23.09247527 93.96695163 -23.0625 91.4375 C-23.05798828 90.72658203 -23.05347656 90.01566406 -23.04882812 89.28320312 C-23.03700864 87.52209987 -23.01907263 85.76103964 -23 84 C-23.71542969 84.0721875 -24.43085937 84.144375 -25.16796875 84.21875 C-44.35537826 86.00593433 -44.35537826 86.00593433 -53 84 C-53 86.31 -53 88.62 -53 91 C-54.11375 91.185625 -55.2275 91.37125 -56.375 91.5625 C-57.57125 92.036875 -58.7675 92.51125 -60 93 C-61.54086322 96.51400668 -61.54086322 96.51400668 -62 100 C-64.14576637 100.02685938 -66.29162645 100.04633088 -68.4375 100.0625 C-69.63246094 100.07410156 -70.82742187 100.08570312 -72.05859375 100.09765625 C-75 100 -75 100 -76 99 C-76.23527773 96.65012738 -76.41386417 94.29443961 -76.5625 91.9375 C-76.64628906 90.64714844 -76.73007813 89.35679688 -76.81640625 88.02734375 C-76.87699219 87.02832031 -76.93757813 86.02929688 -77 85 C-79.97 84.505 -79.97 84.505 -83 84 C-82.979375 84.94875 -82.95875 85.8975 -82.9375 86.875 C-83 90 -83 90 -84 92 C-87.0625 92.625 -87.0625 92.625 -90 93 C-90.185625 94.4540625 -90.185625 94.4540625 -90.375 95.9375 C-90.58125 96.948125 -90.7875 97.95875 -91 99 C-93.88415883 100.44207941 -96.41721528 100.09394887 -99.625 100.0625 C-100.81351563 100.05347656 -102.00203125 100.04445313 -103.2265625 100.03515625 C-104.59941406 100.01775391 -104.59941406 100.01775391 -106 100 C-107.43509221 97.12981559 -107.11158506 94.66456277 -107.09765625 91.4609375 C-107.09443359 90.15898438 -107.09121094 88.85703125 -107.08789062 87.515625 C-107.07953466 86.13541601 -107.07106971 84.75520768 -107.0625 83.375 C-107.05748501 81.98698074 -107.0529221 80.59895978 -107.04882812 79.2109375 C-107.03700976 75.80724868 -107.02053434 72.40364561 -107 69 C-109.97 69.495 -109.97 69.495 -113 70 C-113.33 72.31 -113.66 74.62 -114 77 C-116.31 77 -118.62 77 -121 77 C-120.9071875 78.423125 -120.9071875 78.423125 -120.8125 79.875 C-120.9053125 81.421875 -120.9053125 81.421875 -121 83 C-124.50052891 85.33368594 -125.99614337 85.24221979 -130.125 85.1875 C-131.73761719 85.17783203 -131.73761719 85.17783203 -133.3828125 85.16796875 C-136 85 -136 85 -137 84 C-137.07313567 81.46950598 -137.09247527 78.96695163 -137.0625 76.4375 C-137.05798828 75.72658203 -137.05347656 75.01566406 -137.04882812 74.28320312 C-137.03700864 72.52209987 -137.01907263 70.76103964 -137 69 C-133.535 68.505 -133.535 68.505 -130 68 C-129.67 63.38 -129.34 58.76 -129 54 C-126 53 -126 53 -123 53 C-122.34 50.69 -121.68 48.38 -121 46 C-118.69 46 -116.38 46 -114 46 C-114.0309375 44.2984375 -114.0309375 44.2984375 -114.0625 42.5625 C-114 39 -114 39 -113 38 C-110.64686445 37.92728259 -108.29166332 37.91629132 -105.9375 37.9375 C-104.64714844 37.94652344 -103.35679688 37.95554688 -102.02734375 37.96484375 C-101.02832031 37.97644531 -100.02929688 37.98804688 -99 38 C-99 35.69 -99 33.38 -99 31 C-71.61 30.67 -44.22 30.34 -16 30 C-16 25.71 -16 21.42 -16 17 C-10 15 -10 15 -8 15 C-8 12.69 -8 10.38 -8 8 C-5.69 8 -3.38 8 -1 8 C-0.67 5.36 -0.34 2.72 0 0 Z " fill="#853F37" transform="translate(140,19)"/>
<path d="M0 0 C14.52 0 29.04 0 44 0 C46 4 46 4 46 8 C48.31 8 50.62 8 53 8 C53 10.31 53 12.62 53 15 C53.62567871 14.99476318 54.25135742 14.98952637 54.89599609 14.98413086 C57.72232057 14.96338382 60.54862905 14.95034714 63.375 14.9375 C64.85226563 14.92493164 64.85226563 14.92493164 66.359375 14.91210938 C67.77089844 14.90727539 67.77089844 14.90727539 69.2109375 14.90234375 C70.51490479 14.89448853 70.51490479 14.89448853 71.84521484 14.88647461 C74 15 74 15 76 16 C76 23.26 76 30.52 76 38 C73.69 38.66 71.38 39.32 69 40 C68.67 41.98 68.34 43.96 68 46 C65.525 46.495 65.525 46.495 63 47 C63 46.34 63 45.68 63 45 C62.34 45 61.68 45 61 45 C61 43.02 61 41.04 61 39 C63.31 39 65.62 39 68 39 C68 36.36 68 33.72 68 31 C65.69 31 63.38 31 61 31 C61 28.36 61 25.72 61 23 C58.03 23 55.06 23 52 23 C51.67 21.02 51.34 19.04 51 17 C49.02 16.67 47.04 16.34 45 16 C44.67 13.69 44.34 11.38 44 9 C29.48 9 14.96 9 0 9 C0 11.31 0 13.62 0 16 C-2.64 16 -5.28 16 -8 16 C-8 25.9 -8 35.8 -8 46 C-5.69 46 -3.38 46 -1 46 C-0.95758277 48.33294775 -0.95907063 50.66702567 -1 53 C-2 54 -2 54 -5 54.125 C-8 54 -8 54 -9 53 C-9 51.35 -9 49.7 -9 48 C-15.93 47.505 -15.93 47.505 -23 47 C-23 44.36 -23 41.72 -23 39 C-47.75 39.33 -72.5 39.66 -98 40 C-98 41.65 -98 43.3 -98 45 C-100 47 -100 47 -103.0390625 47.1953125 C-104.22242188 47.17210937 -105.40578125 47.14890625 -106.625 47.125 C-108.40777344 47.09792969 -108.40777344 47.09792969 -110.2265625 47.0703125 C-111.59941406 47.03550781 -111.59941406 47.03550781 -113 47 C-113 49.31 -113 51.62 -113 54 C-115.31 54.66 -117.62 55.32 -120 56 C-120.33 59.96 -120.66 63.92 -121 68 C-122.134375 68.37125 -123.26875 68.7425 -124.4375 69.125 C-126.3814131 69.86637873 -126.3814131 69.86637873 -128 71 C-129.05749557 74.08369887 -129.05749557 74.08369887 -129 77 C-124.545 76.01 -124.545 76.01 -120 75 C-120 73.35 -120 71.7 -120 70 C-118.02 70 -116.04 70 -114 70 C-114 72.31 -114 74.62 -114 77 C-116.31 77 -118.62 77 -121 77 C-120.9071875 78.423125 -120.9071875 78.423125 -120.8125 79.875 C-120.9053125 81.421875 -120.9053125 81.421875 -121 83 C-124.50052891 85.33368594 -125.99614337 85.24221979 -130.125 85.1875 C-131.73761719 85.17783203 -131.73761719 85.17783203 -133.3828125 85.16796875 C-136 85 -136 85 -137 84 C-137.07313567 81.46950598 -137.09247527 78.96695163 -137.0625 76.4375 C-137.05798828 75.72658203 -137.05347656 75.01566406 -137.04882812 74.28320312 C-137.03700864 72.52209987 -137.01907263 70.76103964 -137 69 C-133.535 68.505 -133.535 68.505 -130 68 C-129.67 63.38 -129.34 58.76 -129 54 C-126 53 -126 53 -123 53 C-122.34 50.69 -121.68 48.38 -121 46 C-118.69 46 -116.38 46 -114 46 C-114.0309375 44.2984375 -114.0309375 44.2984375 -114.0625 42.5625 C-114 39 -114 39 -113 38 C-110.64686445 37.92728259 -108.29166332 37.91629132 -105.9375 37.9375 C-104.64714844 37.94652344 -103.35679688 37.95554688 -102.02734375 37.96484375 C-101.02832031 37.97644531 -100.02929688 37.98804688 -99 38 C-99 35.69 -99 33.38 -99 31 C-71.61 30.67 -44.22 30.34 -16 30 C-16 25.71 -16 21.42 -16 17 C-10 15 -10 15 -8 15 C-8 12.69 -8 10.38 -8 8 C-5.69 8 -3.38 8 -1 8 C-0.67 5.36 -0.34 2.72 0 0 Z " fill="#3D1E1E" transform="translate(140,19)"/>
<path d="M0 0 C1.134375 0.020625 2.26875 0.04125 3.4375 0.0625 C3.46637512 3.70831687 3.48425585 7.35410463 3.5 11 C3.50837891 12.04091797 3.51675781 13.08183594 3.52539062 14.15429688 C3.52861328 15.14365234 3.53183594 16.13300781 3.53515625 17.15234375 C3.54039307 18.06878662 3.54562988 18.98522949 3.55102539 19.92944336 C3.4375 22.0625 3.4375 22.0625 2.4375 23.0625 C0.1275 23.0625 -2.1825 23.0625 -4.5625 23.0625 C-4.5625 28.0125 -4.5625 32.9625 -4.5625 38.0625 C-6.8725 38.0625 -9.1825 38.0625 -11.5625 38.0625 C-11.52125 39.01125 -11.48 39.96 -11.4375 40.9375 C-11.5625 44.0625 -11.5625 44.0625 -13.5625 46.0625 C-16.56640625 46.29296875 -16.56640625 46.29296875 -20.125 46.25 C-21.89037109 46.24033203 -21.89037109 46.24033203 -23.69140625 46.23046875 C-26.5625 46.0625 -26.5625 46.0625 -27.5625 45.0625 C-27.63563567 42.53200598 -27.65497527 40.02945163 -27.625 37.5 C-27.62048828 36.78908203 -27.61597656 36.07816406 -27.61132812 35.34570312 C-27.59950864 33.58459987 -27.58157263 31.82353964 -27.5625 30.0625 C-29.5425 30.3925 -31.5225 30.7225 -33.5625 31.0625 C-34.2225 33.3725 -34.8825 35.6825 -35.5625 38.0625 C-37.5425 38.0625 -39.5225 38.0625 -41.5625 38.0625 C-41.706875 39.196875 -41.85125 40.33125 -42 41.5 C-42.5625 45.0625 -42.5625 45.0625 -43.5625 46.0625 C-45.72730797 46.1614294 -47.89543785 46.192211 -50.0625 46.1875 C-51.2484375 46.19007812 -52.434375 46.19265625 -53.65625 46.1953125 C-56.5625 46.0625 -56.5625 46.0625 -57.5625 45.0625 C-57.63563567 42.53200598 -57.65497527 40.02945163 -57.625 37.5 C-57.62048828 36.78908203 -57.61597656 36.07816406 -57.61132812 35.34570312 C-57.59950864 33.58459987 -57.58157263 31.82353964 -57.5625 30.0625 C-58.27792969 30.1346875 -58.99335937 30.206875 -59.73046875 30.28125 C-78.91787826 32.06843433 -78.91787826 32.06843433 -87.5625 30.0625 C-87.5625 32.3725 -87.5625 34.6825 -87.5625 37.0625 C-88.67625 37.248125 -89.79 37.43375 -90.9375 37.625 C-92.13375 38.099375 -93.33 38.57375 -94.5625 39.0625 C-96.10336322 42.57650668 -96.10336322 42.57650668 -96.5625 46.0625 C-98.70826637 46.08935938 -100.85412645 46.10883088 -103 46.125 C-104.19496094 46.13660156 -105.38992187 46.14820313 -106.62109375 46.16015625 C-109.5625 46.0625 -109.5625 46.0625 -110.5625 45.0625 C-110.79777773 42.71262738 -110.97636417 40.35693961 -111.125 38 C-111.20878906 36.70964844 -111.29257813 35.41929688 -111.37890625 34.08984375 C-111.43949219 33.09082031 -111.50007813 32.09179688 -111.5625 31.0625 C-112.366875 30.93875 -113.17125 30.815 -114 30.6875 C-115.2684375 30.378125 -115.2684375 30.378125 -116.5625 30.0625 C-118.00457941 27.17834117 -117.65644887 24.64528472 -117.625 21.4375 C-117.61597656 20.24898437 -117.60695312 19.06046875 -117.59765625 17.8359375 C-117.58605469 16.92070313 -117.57445312 16.00546875 -117.5625 15.0625 C-115.2525 15.0625 -112.9425 15.0625 -110.5625 15.0625 C-110.5625 17.3725 -110.5625 19.6825 -110.5625 22.0625 C-107.9225 22.0625 -105.2825 22.0625 -102.5625 22.0625 C-102.8925 19.7525 -103.2225 17.4425 -103.5625 15.0625 C-100.9225 15.0625 -98.2825 15.0625 -95.5625 15.0625 C-95.5625 17.3725 -95.5625 19.6825 -95.5625 22.0625 C-97.5425 22.3925 -99.5225 22.7225 -101.5625 23.0625 C-101.5625 27.6825 -101.5625 32.3025 -101.5625 37.0625 C-99.5825 37.0625 -97.6025 37.0625 -95.5625 37.0625 C-94.22348208 35.95123341 -94.22348208 35.95123341 -94.46484375 33.12109375 C-94.47644531 31.92613281 -94.48804687 30.73117188 -94.5 29.5 C-94.50902344 28.30246094 -94.51804687 27.10492188 -94.52734375 25.87109375 C-94.53894531 24.94425781 -94.55054687 24.01742187 -94.5625 23.0625 C-92.2525 23.0625 -89.9425 23.0625 -87.5625 23.0625 C-87.5625 20.4225 -87.5625 17.7825 -87.5625 15.0625 C-82.31144558 15.03785072 -77.06042455 15.01966432 -71.80932617 15.00756836 C-70.02155979 15.00252782 -68.23379755 14.99569546 -66.44604492 14.98706055 C-63.88198832 14.9749827 -61.31798603 14.96926906 -58.75390625 14.96484375 C-57.9497377 14.95968246 -57.14556915 14.95452118 -56.31703186 14.94920349 C-54.39848285 14.94900785 -52.48004632 15.00048017 -50.5625 15.0625 C-49.5625 16.0625 -49.5625 16.0625 -49.44897461 18.10375977 C-49.45682983 19.41558228 -49.45682983 19.41558228 -49.46484375 20.75390625 C-49.46967773 22.17026367 -49.46967773 22.17026367 -49.47460938 23.61523438 C-49.48717773 25.10506836 -49.48717773 25.10506836 -49.5 26.625 C-49.50451172 27.62208984 -49.50902344 28.61917969 -49.51367188 29.64648438 C-49.52549993 32.11854849 -49.54198151 34.59049518 -49.5625 37.0625 C-47.2525 37.0625 -44.9425 37.0625 -42.5625 37.0625 C-42.5625 34.7525 -42.5625 32.4425 -42.5625 30.0625 C-39.9225 30.0625 -37.2825 30.0625 -34.5625 30.0625 C-34.5625 27.4225 -34.5625 24.7825 -34.5625 22.0625 C-29.6125 22.0625 -24.6625 22.0625 -19.5625 22.0625 C-19.5625 19.4225 -19.5625 16.7825 -19.5625 14.0625 C-17.2525 14.0625 -14.9425 14.0625 -12.5625 14.0625 C-12.5625 12.0825 -12.5625 10.1025 -12.5625 8.0625 C-9.9225 8.0625 -7.2825 8.0625 -4.5625 8.0625 C-4.583125 6.928125 -4.60375 5.79375 -4.625 4.625 C-4.54525862 0.07974138 -4.54525862 0.07974138 0 0 Z " fill="#3C2020" transform="translate(174.5625,72.9375)"/>
<path d="M0 0 C14.52 0 29.04 0 44 0 C46 4 46 4 46 8 C48.31 8 50.62 8 53 8 C53 10.31 53 12.62 53 15 C53.62567871 14.99476318 54.25135742 14.98952637 54.89599609 14.98413086 C57.72232057 14.96338382 60.54862905 14.95034714 63.375 14.9375 C64.85226563 14.92493164 64.85226563 14.92493164 66.359375 14.91210938 C67.77089844 14.90727539 67.77089844 14.90727539 69.2109375 14.90234375 C70.51490479 14.89448853 70.51490479 14.89448853 71.84521484 14.88647461 C74 15 74 15 76 16 C76 23.26 76 30.52 76 38 C73.69 38.66 71.38 39.32 69 40 C68.67 41.98 68.34 43.96 68 46 C66.35 46.33 64.7 46.66 63 47 C63 46.34 63 45.68 63 45 C62.34 45 61.68 45 61 45 C61 43.02 61 41.04 61 39 C63.31 39 65.62 39 68 39 C68 36.36 68 33.72 68 31 C65.69 31 63.38 31 61 31 C61 28.36 61 25.72 61 23 C58.03 23 55.06 23 52 23 C51.505 20.03 51.505 20.03 51 17 C49.02 16.67 47.04 16.34 45 16 C44.505 12.535 44.505 12.535 44 9 C29.48 9 14.96 9 0 9 C0 11.31 0 13.62 0 16 C-2.64 16 -5.28 16 -8 16 C-8 25.9 -8 35.8 -8 46 C-5.69 46 -3.38 46 -1 46 C-0.95758277 48.33294775 -0.95907063 50.66702567 -1 53 C-2 54 -2 54 -5 54.125 C-8 54 -8 54 -9 53 C-9 51.35 -9 49.7 -9 48 C-15.93 47.505 -15.93 47.505 -23 47 C-23 46.67 -23 46.34 -23 46 C-18.38 46 -13.76 46 -9 46 C-9.01740234 42.76509766 -9.01740234 42.76509766 -9.03515625 39.46484375 C-9.0429739 37.35652819 -9.04903523 35.24821429 -9.05493164 33.13989258 C-9.05993417 31.68415596 -9.0667383 30.22842429 -9.07543945 28.77270508 C-9.087685 26.67007212 -9.09326923 24.56750609 -9.09765625 22.46484375 C-9.10289307 21.202771 -9.10812988 19.94069824 -9.11352539 18.64038086 C-9.00072599 15.02328018 -8.58112682 11.56920449 -8 8 C-5.69 8 -3.38 8 -1 8 C-0.67 5.36 -0.34 2.72 0 0 Z " fill="#422527" transform="translate(140,19)"/>
<path d="M0 0 C1.134375 0.020625 2.26875 0.04125 3.4375 0.0625 C3.46637512 3.70831687 3.48425585 7.35410463 3.5 11 C3.50837891 12.04091797 3.51675781 13.08183594 3.52539062 14.15429688 C3.52861328 15.14365234 3.53183594 16.13300781 3.53515625 17.15234375 C3.54039307 18.06878662 3.54562988 18.98522949 3.55102539 19.92944336 C3.4375 22.0625 3.4375 22.0625 2.4375 23.0625 C0.1275 23.0625 -2.1825 23.0625 -4.5625 23.0625 C-4.5625 28.0125 -4.5625 32.9625 -4.5625 38.0625 C-6.8725 38.0625 -9.1825 38.0625 -11.5625 38.0625 C-11.52125 39.01125 -11.48 39.96 -11.4375 40.9375 C-11.5625 44.0625 -11.5625 44.0625 -13.5625 46.0625 C-16.56640625 46.29296875 -16.56640625 46.29296875 -20.125 46.25 C-21.89037109 46.24033203 -21.89037109 46.24033203 -23.69140625 46.23046875 C-26.5625 46.0625 -26.5625 46.0625 -27.5625 45.0625 C-27.63563567 42.53200598 -27.65497527 40.02945163 -27.625 37.5 C-27.62048828 36.78908203 -27.61597656 36.07816406 -27.61132812 35.34570312 C-27.59950864 33.58459987 -27.58157263 31.82353964 -27.5625 30.0625 C-29.5425 30.3925 -31.5225 30.7225 -33.5625 31.0625 C-34.2225 33.3725 -34.8825 35.6825 -35.5625 38.0625 C-40.5125 38.0625 -45.4625 38.0625 -50.5625 38.0625 C-50.5625 32.4525 -50.5625 26.8425 -50.5625 21.0625 C-50.2325 21.0625 -49.9025 21.0625 -49.5625 21.0625 C-49.5625 26.3425 -49.5625 31.6225 -49.5625 37.0625 C-47.2525 37.0625 -44.9425 37.0625 -42.5625 37.0625 C-42.5625 34.7525 -42.5625 32.4425 -42.5625 30.0625 C-39.9225 30.0625 -37.2825 30.0625 -34.5625 30.0625 C-34.5625 27.4225 -34.5625 24.7825 -34.5625 22.0625 C-29.6125 22.0625 -24.6625 22.0625 -19.5625 22.0625 C-19.5625 19.4225 -19.5625 16.7825 -19.5625 14.0625 C-17.2525 14.0625 -14.9425 14.0625 -12.5625 14.0625 C-12.5625 12.0825 -12.5625 10.1025 -12.5625 8.0625 C-9.9225 8.0625 -7.2825 8.0625 -4.5625 8.0625 C-4.583125 6.928125 -4.60375 5.79375 -4.625 4.625 C-4.54525862 0.07974138 -4.54525862 0.07974138 0 0 Z " fill="#64352C" transform="translate(174.5625,72.9375)"/>
<path d="M0 0 C4.95 0 9.9 0 15 0 C15 14.52 15 29.04 15 44 C10.05 44 5.1 44 0 44 C-0.33 42.02 -0.66 40.04 -1 38 C-3.31 37.67 -5.62 37.34 -8 37 C-8 27.1 -8 17.2 -8 7 C-5.36 7 -2.72 7 0 7 C0 4.69 0 2.38 0 0 Z " fill="#C5743F" transform="translate(140,28)"/>
<path d="M0 0 C10.05859375 -0.09765625 10.05859375 -0.09765625 13 0 C14 1 14 1 14.0625 4.0625 C14.041875 5.031875 14.02125 6.00125 14 7 C16.97 7 19.94 7 23 7 C23 9.64 23 12.28 23 15 C25.31 15 27.62 15 30 15 C30 17.64 30 20.28 30 23 C27.03 23 24.06 23 21 23 C21 25.31 21 27.62 21 30 C11.43 30 1.86 30 -8 30 C-8 25.38 -8 20.76 -8 16 C-4.535 15.505 -4.535 15.505 -1 15 C-0.67 10.05 -0.34 5.1 0 0 Z " fill="#C2723F" transform="translate(178,35)"/>
<path d="M0 0 C1.98 0 3.96 0 6 0 C6.33 11.88 6.66 23.76 7 36 C9.64 36.33 12.28 36.66 15 37 C14.74438677 39.3431213 14.40729228 41.67843403 14 44 C11.11584117 45.44207941 8.58278472 45.09394887 5.375 45.0625 C4.18648437 45.05347656 2.99796875 45.04445312 1.7734375 45.03515625 C0.85820313 45.02355469 -0.05703125 45.01195312 -1 45 C-2.43509221 42.12981559 -2.11158506 39.66456277 -2.09765625 36.4609375 C-2.09282227 34.50800781 -2.09282227 34.50800781 -2.08789062 32.515625 C-2.07953466 31.13541601 -2.07106971 29.75520768 -2.0625 28.375 C-2.05748501 26.98698074 -2.0529221 25.59895978 -2.04882812 24.2109375 C-2.03700976 20.80724868 -2.02053434 17.40364561 -2 14 C-3.98 14 -5.96 14 -8 14 C-8 11.69 -8 9.38 -8 7 C-5.36 7 -2.72 7 0 7 C0 4.69 0 2.38 0 0 Z " fill="#3D2020" transform="translate(35,74)"/>
<path d="M0 0 C1.134375 0.020625 2.26875 0.04125 3.4375 0.0625 C3.46637512 3.70831687 3.48425585 7.35410463 3.5 11 C3.50837891 12.04091797 3.51675781 13.08183594 3.52539062 14.15429688 C3.53022461 15.63833008 3.53022461 15.63833008 3.53515625 17.15234375 C3.54301147 18.52700806 3.54301147 18.52700806 3.55102539 19.92944336 C3.4375 22.0625 3.4375 22.0625 2.4375 23.0625 C0.1275 23.0625 -2.1825 23.0625 -4.5625 23.0625 C-4.5625 28.0125 -4.5625 32.9625 -4.5625 38.0625 C-6.5425 38.0625 -8.5225 38.0625 -10.5625 38.0625 C-11.97884833 35.22980334 -11.9088005 32.58783562 -12.125 29.4375 C-12.20878906 28.24898437 -12.29257813 27.06046875 -12.37890625 25.8359375 C-12.46978516 24.46308594 -12.46978516 24.46308594 -12.5625 23.0625 C-14.5425 22.4025 -16.5225 21.7425 -18.5625 21.0625 C-18.5625 19.4125 -18.5625 17.7625 -18.5625 16.0625 C-16.2525 16.0625 -13.9425 16.0625 -11.5625 16.0625 C-11.5625 13.4225 -11.5625 10.7825 -11.5625 8.0625 C-9.2525 8.0625 -6.9425 8.0625 -4.5625 8.0625 C-4.583125 6.928125 -4.60375 5.79375 -4.625 4.625 C-4.54525862 0.07974138 -4.54525862 0.07974138 0 0 Z " fill="#3E2021" transform="translate(174.5625,72.9375)"/>
<path d="M0 0 C4.29 0 8.58 0 13 0 C13 0.33 13 0.66 13 1 C11.02 1 9.04 1 7 1 C7 1.66 7 2.32 7 3 C7.66 3 8.32 3 9 3 C9 3.66 9 4.32 9 5 C10.65 5 12.3 5 14 5 C15.20029908 7.40059817 15.11459743 8.89360649 15.09765625 11.5703125 C15.09443359 12.46621094 15.09121094 13.36210938 15.08789062 14.28515625 C15.07951172 15.22230469 15.07113281 16.15945312 15.0625 17.125 C15.05798828 18.06988281 15.05347656 19.01476562 15.04882812 19.98828125 C15.03702357 22.32558387 15.02055759 24.66276061 15 27 C14.67 27 14.34 27 14 27 C14 20.73 14 14.46 14 8 C12.02 8 10.04 8 8 8 C8 10.31 8 12.62 8 15 C5.36 15 2.72 15 0 15 C0 16.65 0 18.3 0 20 C2.31 20 4.62 20 7 20 C7 20.33 7 20.66 7 21 C4.69 21 2.38 21 0 21 C0 21.66 0 22.32 0 23 C-2.31 23 -4.62 23 -7 23 C-7 24.65 -7 26.3 -7 28 C-5.68 28.33 -4.36 28.66 -3 29 C-9.435 29.495 -9.435 29.495 -16 30 C-16 24 -16 24 -14 22 C-11.375 21.375 -11.375 21.375 -9 21 C-8.95101563 20.15695313 -8.90203125 19.31390625 -8.8515625 18.4453125 C-8.73941406 16.80175781 -8.73941406 16.80175781 -8.625 15.125 C-8.55539063 14.03445312 -8.48578125 12.94390625 -8.4140625 11.8203125 C-8 9 -8 9 -6 7 C-2.875 6.875 -2.875 6.875 0 7 C0 4.69 0 2.38 0 0 Z " fill="#813E36" transform="translate(27,66)"/>
<path d="M0 0 C14.52 0 29.04 0 44 0 C44.66 1.98 45.32 3.96 46 6 C44 8 44 8 42.05111694 8.24050903 C41.256138 8.23606781 40.46115906 8.23162659 39.64208984 8.22705078 C38.74130707 8.22689972 37.84052429 8.22674866 36.91244507 8.22659302 C35.93844757 8.21627045 34.96445007 8.20594788 33.9609375 8.1953125 C32.96494537 8.1924826 31.96895325 8.18965271 30.94277954 8.18673706 C27.75339882 8.1755184 24.56429622 8.15041081 21.375 8.125 C19.21614988 8.11497238 17.05729537 8.10584615 14.8984375 8.09765625 C9.59886301 8.07557361 4.29945137 8.04207958 -1 8 C-0.67 5.36 -0.34 2.72 0 0 Z " fill="#432526" transform="translate(140,19)"/>
<path d="M0 0 C0.99 0.495 0.99 0.495 2 1 C2 1.66 2 2.32 2 3 C4.31 3 6.62 3 9 3 C9 5.31 9 7.62 9 10 C9.99 10.495 9.99 10.495 11 11 C10.34 13.31 9.68 15.62 9 18 C8.67 18 8.34 18 8 18 C7.505 15.03 7.505 15.03 7 12 C5.02 11.67 3.04 11.34 1 11 C0.505 7.535 0.505 7.535 0 4 C-14.52 4 -29.04 4 -44 4 C-44 6.31 -44 8.62 -44 11 C-46.64 11 -49.28 11 -52 11 C-52 20.9 -52 30.8 -52 41 C-49.69 41 -47.38 41 -45 41 C-44.95758277 43.33294775 -44.95907063 45.66702567 -45 48 C-46 49 -46 49 -49 49.125 C-52 49 -52 49 -53 48 C-53 46.35 -53 44.7 -53 43 C-59.93 42.505 -59.93 42.505 -67 42 C-67 41.67 -67 41.34 -67 41 C-62.38 41 -57.76 41 -53 41 C-53.01740234 37.76509766 -53.01740234 37.76509766 -53.03515625 34.46484375 C-53.0429739 32.35652819 -53.04903523 30.24821429 -53.05493164 28.13989258 C-53.05993417 26.68415596 -53.0667383 25.22842429 -53.07543945 23.77270508 C-53.087685 21.67007212 -53.09326923 19.56750609 -53.09765625 17.46484375 C-53.10289307 16.202771 -53.10812988 14.94069824 -53.11352539 13.64038086 C-53 10 -53 10 -52 3 C-34.84 3 -17.68 3 0 3 C0 2.01 0 1.02 0 0 Z " fill="#65372B" transform="translate(184,24)"/>
<path d="M0 0 C4.29 0 8.58 0 13 0 C13 4.95 13 9.9 13 15 C15.31 15.33 17.62 15.66 20 16 C20 17.65 20 19.3 20 21 C16.04 20.67 12.08 20.34 8 20 C8.33 20.99 8.66 21.98 9 23 C8.01 22.67 7.02 22.34 6 22 C6 17.05 6 12.1 6 7 C4.02 7 2.04 7 0 7 C0 4.69 0 2.38 0 0 Z " fill="#3D1D1E" transform="translate(141,96)"/>
<path d="M0 0 C2.64 0 5.28 0 8 0 C8 4.29 8 8.58 8 13 C9.98 13 11.96 13 14 13 C14 13.33 14 13.66 14 14 C12.35 14.33 10.7 14.66 9 15 C8.690625 16.134375 8.38125 17.26875 8.0625 18.4375 C7 22 7 22 6 23 C4.14712498 23.07226502 2.29166122 23.0838122 0.4375 23.0625 C-0.57441406 23.05347656 -1.58632812 23.04445313 -2.62890625 23.03515625 C-3.41136719 23.02355469 -4.19382813 23.01195313 -5 23 C-5.33 22.01 -5.66 21.02 -6 20 C-2.37 20 1.26 20 5 20 C5.33 18.02 5.66 16.04 6 14 C4.02 14 2.04 14 0 14 C0 9.38 0 4.76 0 0 Z " fill="#693A35" transform="translate(155,96)"/>
<path d="M0 0 C4.62 0 9.24 0 14 0 C14 2.31 14 4.62 14 7 C11.69 7.33 9.38 7.66 7 8 C7 10.31 7 12.62 7 15 C4.69 15 2.38 15 0 15 C0 10.05 0 5.1 0 0 Z " fill="#BD7041" transform="translate(125,95)"/>
<path d="M0 0 C2.64 0 5.28 0 8 0 C8 2.31 8 4.62 8 7 C6.02 7.33 4.04 7.66 2 8 C2 12.62 2 17.24 2 22 C5.63 21.67 9.26 21.34 13 21 C13.33 19.02 13.66 17.04 14 15 C14.33 15 14.66 15 15 15 C15 17.64 15 20.28 15 23 C13.02 23.33 11.04 23.66 9 24 C8.34 26.31 7.68 28.62 7 31 C5.20906809 31.08086147 3.41710372 31.13912702 1.625 31.1875 C0.12839844 31.23970703 0.12839844 31.23970703 -1.3984375 31.29296875 C-2.25695312 31.19628906 -3.11546875 31.09960938 -4 31 C-4.66 30.01 -5.32 29.02 -6 28 C-2.04 27.505 -2.04 27.505 2 27 C1.50886719 26.24976563 1.50886719 26.24976563 1.0078125 25.484375 C-0.3723642 22.08207896 -0.21362838 18.85649349 -0.125 15.25 C-0.11597656 14.55261719 -0.10695313 13.85523437 -0.09765625 13.13671875 C-0.07419888 11.42433042 -0.03833104 9.71211996 0 8 C-0.66 7.67 -1.32 7.34 -2 7 C-1.01 7 -0.02 7 1 7 C0.67 4.69 0.34 2.38 0 0 Z " fill="#46282B" transform="translate(71,88)"/>
<path d="M0 0 C0.33 0 0.66 0 1 0 C1 1.98 1 3.96 1 6 C2.98 6 4.96 6 7 6 C7 4.02 7 2.04 7 0 C7.33 0 7.66 0 8 0 C8 2.64 8 5.28 8 8 C5.69 8 3.38 8 1 8 C1 12.29 1 16.58 1 21 C2.65 21 4.3 21 6 21 C6 21.33 6 21.66 6 22 C4.02145742 22.19397476 2.0421352 22.38001321 0.0625 22.5625 C-1.03964844 22.66691406 -2.14179687 22.77132812 -3.27734375 22.87890625 C-4.17582031 22.91886719 -5.07429688 22.95882812 -6 23 C-7 22 -7 22 -7.1328125 18.875 C-7.13023438 17.59625 -7.12765625 16.3175 -7.125 15 C-7.12757812 13.72125 -7.13015625 12.4425 -7.1328125 11.125 C-7 8 -7 8 -6 7 C-4.00041636 6.95919217 -1.99954746 6.95745644 0 7 C0 4.69 0 2.38 0 0 Z " fill="#703935" transform="translate(79,88)"/>
<path d="M0 0 C3.45831586 -0.02894547 6.91660072 -0.04678 10.375 -0.0625 C11.35984375 -0.07087891 12.3446875 -0.07925781 13.359375 -0.08789062 C14.77089844 -0.09272461 14.77089844 -0.09272461 16.2109375 -0.09765625 C17.51490479 -0.10551147 17.51490479 -0.10551147 18.84521484 -0.11352539 C21 0 21 0 23 1 C22.67 2.98 22.34 4.96 22 7 C14.74 7 7.48 7 0 7 C0 4.69 0 2.38 0 0 Z " fill="#3E252A" transform="translate(178,66)"/>
<path d="M0 0 C2.33294775 -0.04241723 4.66702567 -0.04092937 7 0 C8 1 8 1 8.11352539 2.94946289 C8.10828857 3.7821167 8.10305176 4.61477051 8.09765625 5.47265625 C8.09443359 6.37177734 8.09121094 7.27089844 8.08789062 8.19726562 C8.07951172 9.14279297 8.07113281 10.08832031 8.0625 11.0625 C8.05798828 12.01189453 8.05347656 12.96128906 8.04882812 13.93945312 C8.0370011 16.29303065 8.02052025 18.64648477 8 21 C7.67 21 7.34 21 7 21 C7 14.73 7 8.46 7 2 C5.02 2 3.04 2 1 2 C1 4.31 1 6.62 1 9 C-1.64 9 -4.28 9 -7 9 C-7 10.65 -7 12.3 -7 14 C-4.69 14 -2.38 14 0 14 C0 14.33 0 14.66 0 15 C-2.31 15 -4.62 15 -7 15 C-7 15.66 -7 16.32 -7 17 C-9.31 17 -11.62 17 -14 17 C-14 18.65 -14 20.3 -14 22 C-12.68 22.33 -11.36 22.66 -10 23 C-16.435 23.495 -16.435 23.495 -23 24 C-23 18 -23 18 -21 16 C-16.68972272 14.73227139 -12.45126889 14.92455476 -8 15 C-8 12.69 -8 10.38 -8 8 C-5.36 8 -2.72 8 0 8 C0 5.36 0 2.72 0 0 Z " fill="#5C2F2D" transform="translate(34,72)"/>
<path d="M0 0 C4.62 0 9.24 0 14 0 C14 1.98 14 3.96 14 6 C11.69 6 9.38 6 7 6 C7 8.64 7 11.28 7 14 C4.69 14 2.38 14 0 14 C0 9.38 0 4.76 0 0 Z " fill="#C3723F" transform="translate(42,96)"/>
<path d="M0 0 C1.65 0 3.3 0 5 0 C5 14.52 5 29.04 5 44 C0.05 44 -4.9 44 -10 44 C-10.33 41.69 -10.66 39.38 -11 37 C-10.34 37 -9.68 37 -9 37 C-9 38.98 -9 40.96 -9 43 C-5.04 43 -1.08 43 3 43 C2.9278125 42.17242187 2.855625 41.34484375 2.78125 40.4921875 C2.15567753 32.44663041 1.89105304 24.44566481 1.875 16.375 C1.87048828 15.42737793 1.86597656 14.47975586 1.86132812 13.50341797 C1.86326172 12.60252441 1.86519531 11.70163086 1.8671875 10.7734375 C1.86831543 9.97341309 1.86944336 9.17338867 1.87060547 8.34912109 C2.0097591 5.82282629 2.44913099 3.46660214 3 1 C2.01 0.67 1.02 0.34 0 0 Z " fill="#BA6B42" transform="translate(150,28)"/>
<path d="M0 0 C5.28 0 10.56 0 16 0 C16 2.64 16 5.28 16 8 C11.05 8 6.1 8 1 8 C0 6 0 6 0 0 Z " fill="#4D2625" transform="translate(139,73)"/>
<path d="M0 0 C2.64 0 5.28 0 8 0 C8 4.95 8 9.9 8 15 C5.36 15 2.72 15 0 15 C0 10.05 0 5.1 0 0 Z " fill="#4B2823" transform="translate(169,35)"/>
<path d="M0 0 C2.05078125 0.03255208 4.1015625 0.06510417 6.15234375 0.09765625 C6.15234375 0.42765625 6.15234375 0.75765625 6.15234375 1.09765625 C3.84234375 1.09765625 1.53234375 1.09765625 -0.84765625 1.09765625 C-0.75226562 2.08765625 -0.656875 3.07765625 -0.55859375 4.09765625 C0.05306621 11.11354688 0.50004225 17.33076058 -1.84765625 24.09765625 C-6.46765625 24.09765625 -11.08765625 24.09765625 -15.84765625 24.09765625 C-15.84765625 23.76765625 -15.84765625 23.43765625 -15.84765625 23.09765625 C-13.53765625 23.09765625 -11.22765625 23.09765625 -8.84765625 23.09765625 C-8.84765625 20.45765625 -8.84765625 17.81765625 -8.84765625 15.09765625 C-6.53765625 15.09765625 -4.22765625 15.09765625 -1.84765625 15.09765625 C-1.97333984 13.59912109 -1.97333984 13.59912109 -2.1015625 12.0703125 C-2.20339844 10.77996094 -2.30523437 9.48960938 -2.41015625 8.16015625 C-2.51457031 6.87238281 -2.61898437 5.58460937 -2.7265625 4.2578125 C-2.76652344 3.21496094 -2.80648437 2.17210938 -2.84765625 1.09765625 C-1.84765625 0.09765625 -1.84765625 0.09765625 0 0 Z " fill="#784131" transform="translate(57.84765625,86.90234375)"/>
<path d="M0 0 C0.66 0 1.32 0 2 0 C3.60744075 5.21468969 3.05870608 10.59904037 3 16 C6.96 16 10.92 16 15 16 C15.33 16.66 15.66 17.32 16 18 C13.11584117 19.44207941 10.58278472 19.09394887 7.375 19.0625 C6.18648437 19.05347656 4.99796875 19.04445313 3.7734375 19.03515625 C2.85820313 19.02355469 1.94296875 19.01195313 1 19 C-0.65497356 15.69005287 -0.10084335 12.00877 -0.0625 8.375 C-0.05798828 7.57320313 -0.05347656 6.77140625 -0.04882812 5.9453125 C-0.03703168 3.96350994 -0.01909605 1.98174567 0 0 Z " fill="#452F30" transform="translate(33,100)"/>
<path d="M0 0 C0.73195587 0.00960754 1.46391174 0.01921509 2.2180481 0.02911377 C4.63675606 0.06208759 7.0552825 0.10242601 9.47387695 0.14282227 C11.15110128 0.16712497 12.82833232 0.19096845 14.50556946 0.21437073 C18.919725 0.27719673 23.33376169 0.34626761 27.74780273 0.41662598 C32.25214221 0.4873228 36.75656595 0.5521317 41.26098633 0.61743164 C50.09896955 0.74642486 58.93683843 0.88201353 67.7746582 1.02172852 C67.7746582 1.35172852 67.7746582 1.68172852 67.7746582 2.02172852 C43.0246582 2.35172852 18.2746582 2.68172852 -7.2253418 3.02172852 C-7.2253418 4.67172852 -7.2253418 6.32172852 -7.2253418 8.02172852 C-7.5553418 8.02172852 -7.8853418 8.02172852 -8.2253418 8.02172852 C-8.2253418 6.04172852 -8.2253418 4.06172852 -8.2253418 2.02172852 C-8.8853418 1.69172852 -9.5453418 1.36172852 -10.2253418 1.02172852 C-6.7241429 -0.14533778 -3.63599338 -0.06816841 0 0 Z " fill="#5C2F29" transform="translate(49.225341796875,55.978271484375)"/>
<path d="M0 0 C2.64 0 5.28 0 8 0 C8 2.31 8 4.62 8 7 C6.02 7.33 4.04 7.66 2 8 C1.94615479 10.29141286 1.90727913 12.58318188 1.875 14.875 C1.85179688 16.15117188 1.82859375 17.42734375 1.8046875 18.7421875 C1.64358476 22.08593338 1.64358476 22.08593338 4 24 C2.68 23.67 1.36 23.34 0 23 C0 18.05 0 13.1 0 8 C-0.66 7.67 -1.32 7.34 -2 7 C-1.01 7 -0.02 7 1 7 C0.67 4.69 0.34 2.38 0 0 Z " fill="#582A27" transform="translate(71,88)"/>
<path d="M0 0 C0.33 1.32 0.66 2.64 1 4 C2.65 4 4.3 4 6 4 C6.33 6.31 6.66 8.62 7 11 C8.32 11.33 9.64 11.66 11 12 C9 14 9 14 6.0625 14.25 C3 14 3 14 0 12 C-0.29296875 9.1796875 -0.29296875 9.1796875 -0.1875 5.875 C-0.16042969 4.77929688 -0.13335937 3.68359375 -0.10546875 2.5546875 C-0.07066406 1.71164063 -0.03585937 0.86859375 0 0 Z " fill="#361F1D" transform="translate(4,90)"/>
<path d="M0 0 C0.33 0 0.66 0 1 0 C1.02887512 3.64581687 1.04675585 7.29160463 1.0625 10.9375 C1.07087891 11.97841797 1.07925781 13.01933594 1.08789062 14.09179688 C1.09111328 15.08115234 1.09433594 16.07050781 1.09765625 17.08984375 C1.10289307 18.00628662 1.10812988 18.92272949 1.11352539 19.86694336 C1 22 1 22 0 23 C-2.31 23 -4.62 23 -7 23 C-7 27.95 -7 32.9 -7 38 C-8.98 38 -10.96 38 -13 38 C-11.68 37.34 -10.36 36.68 -9 36 C-9.01160156 35.00097656 -9.02320313 34.00195312 -9.03515625 32.97265625 C-9.04869141 31.03712891 -9.04869141 31.03712891 -9.0625 29.0625 C-9.07410156 27.77472656 -9.08570313 26.48695312 -9.09765625 25.16015625 C-9 22 -9 22 -8 21 C-5.36 21 -2.72 21 0 21 C0 14.07 0 7.14 0 0 Z " fill="#45292D" transform="translate(177,73)"/>
<path d="M0 0 C1.98 0 3.96 0 6 0 C6 4.95 6 9.9 6 15 C4.35 15 2.7 15 1 15 C1 12.36 1 9.72 1 7 C1.66 7 2.32 7 3 7 C3 6.01 3 5.02 3 4 C1.68 3.67 0.36 3.34 -1 3 C-0.67 2.01 -0.34 1.02 0 0 Z " fill="#411F23" transform="translate(12,72)"/>
<path d="M0 0 C6.27 0 12.54 0 19 0 C19 0.33 19 0.66 19 1 C12.565 1.495 12.565 1.495 6 2 C9.96 2.33 13.92 2.66 18 3 C18 3.66 18 4.32 18 5 C12.06 5 6.12 5 0 5 C0 3.35 0 1.7 0 0 Z " fill="#401F1F" transform="translate(178,66)"/>
<path d="M0 0 C1.65 0 3.3 0 5 0 C5 4.29 5 8.58 5 13 C3.35 13 1.7 13 0 13 C0 8.71 0 4.42 0 0 Z " fill="#853F39" transform="translate(156,96)"/>
<path d="M0 0 C1.47668858 0.0133035 2.95331108 0.03716415 4.4296875 0.0703125 C5.18378906 0.07933594 5.93789062 0.08835938 6.71484375 0.09765625 C8.57826004 0.1212438 10.44151343 0.15711531 12.3046875 0.1953125 C12.3046875 0.8553125 12.3046875 1.5153125 12.3046875 2.1953125 C5.8696875 2.6903125 5.8696875 2.6903125 -0.6953125 3.1953125 C-0.3653125 4.8453125 -0.0353125 6.4953125 0.3046875 8.1953125 C-1.6753125 8.1953125 -3.6553125 8.1953125 -5.6953125 8.1953125 C-5.8203125 5.3203125 -5.8203125 5.3203125 -5.6953125 2.1953125 C-3.6953125 0.1953125 -3.6953125 0.1953125 0 0 Z " fill="#4B251C" transform="translate(198.6953125,33.8046875)"/>
<path d="M0 0 C0.33 0 0.66 0 1 0 C1 1.98 1 3.96 1 6 C1.66 6.33 2.32 6.66 3 7 C2.34 7.66 1.68 8.32 1 9 C0.60235737 10.98821313 0.26224651 12.98944339 0 15 C-1.65 15.33 -3.3 15.66 -5 16 C-5 15.34 -5 14.68 -5 14 C-5.66 14 -6.32 14 -7 14 C-7 12.02 -7 10.04 -7 8 C-4.69 8 -2.38 8 0 8 C0 5.36 0 2.72 0 0 Z " fill="#4B2926" transform="translate(208,50)"/>
<path d="M0 0 C1.98 0 3.96 0 6 0 C6 3.63 6 7.26 6 11 C4.35 11.33 2.7 11.66 1 12 C0.67 8.04 0.34 4.08 0 0 Z " fill="#863F36" transform="translate(72,97)"/>
<path d="M0 0 C2.31 0 4.62 0 7 0 C7 0.33 7 0.66 7 1 C5.02 1 3.04 1 1 1 C1.33 3.97 1.66 6.94 2 10 C5.465 9.505 5.465 9.505 9 9 C9.33 10.65 9.66 12.3 10 14 C6.8035914 15.06546953 4.34252724 15.07427838 1 15 C-0.44207941 12.11584117 -0.09394887 9.58278472 -0.0625 6.375 C-0.05347656 5.18648438 -0.04445312 3.99796875 -0.03515625 2.7734375 C-0.02355469 1.85820313 -0.01195312 0.94296875 0 0 Z " fill="#462326" transform="translate(57,88)"/>
<path d="M0 0 C1.134375 0.020625 2.26875 0.04125 3.4375 0.0625 C3.4375 2.3725 3.4375 4.6825 3.4375 7.0625 C0.7975 7.0625 -1.8425 7.0625 -4.5625 7.0625 C-4.60504356 5.06295254 -4.60330783 3.06208364 -4.5625 1.0625 C-3.5625 0.0625 -3.5625 0.0625 0 0 Z " fill="#3A1C1C" transform="translate(22.5625,64.9375)"/>
<path d="M0 0 C2.31 0 4.62 0 7 0 C6.67 2.31 6.34 4.62 6 7 C4.02 7 2.04 7 0 7 C0 4.69 0 2.38 0 0 Z " fill="#432322" transform="translate(50,104)"/>
<path d="M0 0 C0.33 0 0.66 0 1 0 C1 1.98 1 3.96 1 6 C2.98 6 4.96 6 7 6 C7 4.02 7 2.04 7 0 C7.33 0 7.66 0 8 0 C8 2.64 8 5.28 8 8 C5.69 8 3.38 8 1 8 C1 12.29 1 16.58 1 21 C0.67 21 0.34 21 0 21 C0 16.71 0 12.42 0 8 C-1.98 8 -3.96 8 -6 8 C-6 7.67 -6 7.34 -6 7 C-4.02 7 -2.04 7 0 7 C0 4.69 0 2.38 0 0 Z " fill="#63312D" transform="translate(79,88)"/>
<path d="M0 0 C0.66 0 1.32 0 2 0 C2 1.98 2 3.96 2 6 C2.66 6 3.32 6 4 6 C4 6.66 4 7.32 4 8 C0.81445408 8.96541545 -1.88752707 9.05239684 -5.203125 8.87890625 C-6.1828125 8.83056641 -7.1625 8.78222656 -8.171875 8.73242188 C-9.69554687 8.64831055 -9.69554687 8.64831055 -11.25 8.5625 C-12.28125 8.51029297 -13.3125 8.45808594 -14.375 8.40429688 C-16.91699039 8.27484366 -19.45856593 8.13988672 -22 8 C-22 7.67 -22 7.34 -22 7 C-14.74 7 -7.48 7 0 7 C0 4.69 0 2.38 0 0 Z " fill="#764027" transform="translate(199,58)"/>
<path d="M0 0 C0.33 0 0.66 0 1 0 C1.125 2.875 1.125 2.875 1 6 C-1 8 -1 8 -3.6015625 8.1953125 C-4.59929687 8.17210938 -5.59703125 8.14890625 -6.625 8.125 C-8.12933594 8.09792969 -8.12933594 8.09792969 -9.6640625 8.0703125 C-10.43492187 8.04710938 -11.20578125 8.02390625 -12 8 C-12.33 7.01 -12.66 6.02 -13 5 C-9.04 5 -5.08 5 -1 5 C-0.67 3.35 -0.34 1.7 0 0 Z " fill="#4D3336" transform="translate(162,111)"/>
<path d="M0 0 C0.66 0 1.32 0 2 0 C2.38133299 1.9914056 2.71325582 3.99279077 3 6 C2.67 6.33 2.34 6.66 2 7 C1.84313751 8.55948542 1.74923361 10.12542668 1.68359375 11.69140625 C1.64169922 12.63564453 1.59980469 13.57988281 1.55664062 14.55273438 C1.51732422 15.54595703 1.47800781 16.53917969 1.4375 17.5625 C1.37272461 19.05813477 1.37272461 19.05813477 1.30664062 20.58398438 C1.20019702 23.0558415 1.09818072 25.5278031 1 28 C0.67 28 0.34 28 0 28 C0 21.07 0 14.14 0 7 C-1.65 7 -3.3 7 -5 7 C-4.0409375 6.6596875 -4.0409375 6.6596875 -3.0625 6.3125 C-0.72806339 5.14749104 -0.72806339 5.14749104 -0.25 2.375 C-0.1675 1.59125 -0.085 0.8075 0 0 Z " fill="#603838" transform="translate(176,66)"/>
<path d="M0 0 C1.98 0 3.96 0 6 0 C6 2.31 6 4.62 6 7 C4.02 7 2.04 7 0 7 C0 4.69 0 2.38 0 0 Z " fill="#341818" transform="translate(132,27)"/>
<path d="M0 0 C2.625 0.375 2.625 0.375 5 1 C5.042721 2.66611905 5.04063832 4.33382885 5 6 C4 7 4 7 1.4375 7.0625 C0.2309375 7.0315625 0.2309375 7.0315625 -1 7 C-1.625 4.625 -1.625 4.625 -2 2 C-1.34 1.34 -0.68 0.68 0 0 Z " fill="#7D3D37" transform="translate(13,88)"/>
<path d="M0 0 C4.75 -0.125 4.75 -0.125 7 1 C7.042721 2.66611905 7.04063832 4.33382885 7 6 C6 7 6 7 3.4375 7.0625 C2.2309375 7.0315625 2.2309375 7.0315625 1 7 C0.67 4.69 0.34 2.38 0 0 Z " fill="#402123" transform="translate(133,104)"/>
<path d="M0 0 C0.33 0 0.66 0 1 0 C1 3.63 1 7.26 1 11 C4.3 11 7.6 11 11 11 C10.01 12.485 10.01 12.485 9 14 C4.94554358 14.43132515 3.45029042 14.30019361 0 12 C-0.29296875 9.1796875 -0.29296875 9.1796875 -0.1875 5.875 C-0.16042969 4.77929688 -0.13335937 3.68359375 -0.10546875 2.5546875 C-0.07066406 1.71164063 -0.03585937 0.86859375 0 0 Z " fill="#4C3437" transform="translate(4,90)"/>
<path d="M0 0 C0.66 0.33 1.32 0.66 2 1 C2.625 3.0625 2.625 3.0625 3 5 C2.34 5 1.68 5 1 5 C1.33 6.65 1.66 8.3 2 10 C1.01 10.66 0.02 11.32 -1 12 C-1.02687279 10.18757948 -1.04633715 8.37504767 -1.0625 6.5625 C-1.07410156 5.55316406 -1.08570313 4.54382813 -1.09765625 3.50390625 C-1 1 -1 1 0 0 Z " fill="#45272C" transform="translate(12,74)"/>
<path d="M0 0 C1.65 0 3.3 0 5 0 C5 1.98 5 3.96 5 6 C2.69 6 0.38 6 -2 6 C-1.49396008 3.83125748 -1.00016187 2.00032373 0 0 Z " fill="#3D231F" transform="translate(188,27)"/>
<path d="M0 0 C1.98 0.495 1.98 0.495 4 1 C3.67 1.33 3.34 1.66 3 2 C3.99 2.66 4.98 3.32 6 4 C6 4.66 6 5.32 6 6 C3.69 6.66 1.38 7.32 -1 8 C-0.67 5.36 -0.34 2.72 0 0 Z " fill="#2F1718" transform="translate(140,19)"/>
<path d="M0 0 C1.98 0 3.96 0 6 0 C6 1.65 6 3.3 6 5 C4.02 5 2.04 5 0 5 C0 3.35 0 1.7 0 0 Z " fill="#3D201E" transform="translate(72,89)"/>
<path d="M0 0 C3.63 0 7.26 0 11 0 C11 0.99 11 1.98 11 3 C7.7 3 4.4 3 1 3 C0.67 2.01 0.34 1.02 0 0 Z " fill="#4B2F32" transform="translate(120,116)"/>
<path d="M0 0 C0 0.66 0 1.32 0 2 C-4.62 2 -9.24 2 -14 2 C-14 1.34 -14 0.68 -14 0 C-4.58997722 -1.33257403 -4.58997722 -1.33257403 0 0 Z " fill="#9B5138" transform="translate(56,94)"/>
<path d="M0 0 C1.65 0 3.3 0 5 0 C5 1.65 5 3.3 5 5 C3.35 5 1.7 5 0 5 C0 3.35 0 1.7 0 0 Z " fill="#3D1F23" transform="translate(133,66)"/>
<path d="M0 0 C1.98 0 3.96 0 6 0 C5.67 2.64 5.34 5.28 5 8 C4.7525 7.360625 4.505 6.72125 4.25 6.0625 C3.18437567 3.81258459 3.18437567 3.81258459 0.875 3.25 C-0.053125 3.12625 -0.053125 3.12625 -1 3 C-0.67 2.01 -0.34 1.02 0 0 Z " fill="#371215" transform="translate(12,72)"/>
<path d="M0 0 C1.134375 0.020625 2.26875 0.04125 3.4375 0.0625 C3.4375 0.7225 3.4375 1.3825 3.4375 2.0625 C1.4575 2.3925 -0.5225 2.7225 -2.5625 3.0625 C-2.8925 5.0425 -3.2225 7.0225 -3.5625 9.0625 C-4.9575848 6.76471327 -5.63688619 5.5832033 -5.25 2.875 C-4.01885243 -0.37075269 -3.81886437 0.06699762 0 0 Z " fill="#C2754A" transform="translate(51.5625,99.9375)"/>
<path d="M0 0 C0.33 0 0.66 0 1 0 C1 1.98 1 3.96 1 6 C1.66 6 2.32 6 3 6 C3 5.01 3 4.02 3 3 C3.66 3 4.32 3 5 3 C5 3.99 5 4.98 5 6 C5.99 6.33 6.98 6.66 8 7 C2.25 8.125 2.25 8.125 0 7 C0 4.69 0 2.38 0 0 Z " fill="#733730" transform="translate(64,88)"/>
<path d="M0 0 C0.66 0 1.32 0 2 0 C2 0.99 2 1.98 2 3 C2.99 3.33 3.98 3.66 5 4 C4.34 4.66 3.68 5.32 3 6 C2.01 6 1.02 6 0 6 C0 6.66 0 7.32 0 8 C-0.66 8 -1.32 8 -2 8 C-2 7.01 -2 6.02 -2 5 C-1.34 4.67 -0.68 4.34 0 4 C0 2.68 0 1.36 0 0 Z " fill="#803B2E" transform="translate(44,61)"/>
<path d="M0 0 C0.66 0 1.32 0 2 0 C2 1.98 2 3.96 2 6 C2.66 6 3.32 6 4 6 C4 6.66 4 7.32 4 8 C2.68 8.33 1.36 8.66 0 9 C0 6.03 0 3.06 0 0 Z " fill="#7E4A36" transform="translate(199,58)"/>
<path d="M0 0 C0.33 0 0.66 0 1 0 C1 1.98 1 3.96 1 6 C-3.455 6.495 -3.455 6.495 -8 7 C-8 6.01 -8 5.02 -8 4 C-5.36 4.33 -2.72 4.66 0 5 C0 3.35 0 1.7 0 0 Z " fill="#B46E40" transform="translate(206,51)"/>
<path d="M0 0 C0.99 0 1.98 0 3 0 C3 0.99 3 1.98 3 3 C3.66 3 4.32 3 5 3 C5 3.66 5 4.32 5 5 C3.35 5 1.7 5 0 5 C0 3.35 0 1.7 0 0 Z " fill="#3C2325" transform="translate(5,96)"/>
<path d="M0 0 C1.32 0 2.64 0 4 0 C4 1.32 4 2.64 4 4 C1.03 3.505 1.03 3.505 -2 3 C-1.34 2.01 -0.68 1.02 0 0 Z " fill="#C87736" transform="translate(134,97)"/>
<path d="M0 0 C1.65 0 3.3 0 5 0 C5 1.32 5 2.64 5 4 C3.68 4 2.36 4 1 4 C0.67 2.68 0.34 1.36 0 0 Z " fill="#412229" transform="translate(141,96)"/>
</svg>
