<?xml version="1.0" encoding="UTF-8"?>
<svg version="1.1" xmlns="http://www.w3.org/2000/svg" width="256" height="256">
<path d="M0 0 C3.97915159 -0.02886984 7.95827653 -0.04675406 11.9375 -0.0625 C13.07380859 -0.07087891 14.21011719 -0.07925781 15.38085938 -0.08789062 C16.46044922 -0.09111328 17.54003906 -0.09433594 18.65234375 -0.09765625 C20.15269165 -0.10551147 20.15269165 -0.10551147 21.68334961 -0.11352539 C24 0 24 0 25 1 C25.04092937 3.33297433 25.04241723 5.66705225 25 8 C26.7015625 7.9690625 26.7015625 7.9690625 28.4375 7.9375 C32 8 32 8 33 9 C33.04092937 11.33297433 33.04241723 13.66705225 33 16 C34.7015625 15.9690625 34.7015625 15.9690625 36.4375 15.9375 C40 16 40 16 41 17 C41.08713831 18.70772358 41.10700007 20.41898649 41.09765625 22.12890625 C41.09443359 23.16337891 41.09121094 24.19785156 41.08789062 25.26367188 C41.07951172 26.35228516 41.07113281 27.44089844 41.0625 28.5625 C41.05798828 29.65498047 41.05347656 30.74746094 41.04882812 31.87304688 C41.03699826 34.58208495 41.02051543 37.29101599 41 40 C42.0372522 39.99214478 42.0372522 39.99214478 43.09545898 39.98413086 C46.20946352 39.963425 49.32345361 39.95036037 52.4375 39.9375 C53.52611328 39.92912109 54.61472656 39.92074219 55.73632812 39.91210938 C56.77080078 39.90888672 57.80527344 39.90566406 58.87109375 39.90234375 C59.82943115 39.89710693 60.78776855 39.89187012 61.77514648 39.88647461 C64 40 64 40 65 41 C65.04092937 43.33297433 65.04241723 45.66705225 65 48 C66.7015625 47.9690625 66.7015625 47.9690625 68.4375 47.9375 C72 48 72 48 73 49 C73.04092937 51.33297433 73.04241723 53.66705225 73 56 C74.7015625 55.9690625 74.7015625 55.9690625 76.4375 55.9375 C80 56 80 56 81 57 C81.08790975 59.29151417 81.10694038 61.58572524 81.09765625 63.87890625 C81.09553383 64.90889992 81.09553383 64.90889992 81.09336853 65.95970154 C81.08775479 68.16067801 81.07520007 70.36155409 81.0625 72.5625 C81.05748676 74.05143083 81.05292355 75.54036324 81.04882812 77.02929688 C81.03778093 80.68623075 81.02050713 84.34310558 81 88 C79.87464844 88.25523438 78.74929687 88.51046875 77.58984375 88.7734375 C75.81287109 89.38058594 75.81287109 89.38058594 74 90 C72.45913678 93.51400668 72.45913678 93.51400668 72 97 C69.03 97.495 69.03 97.495 66 98 C65.34 100.31 64.68 102.62 64 105 C52.615 105.495 52.615 105.495 41 106 C41 107.98 41 109.96 41 112 C38.09399739 113.25664978 36.20395416 114 33 114 C33 115.98 33 117.96 33 120 C29.91190305 121.76462683 28.76687864 122 25 122 C25.061875 122.94875 25.12375 123.8975 25.1875 124.875 C25.125625 125.90625 25.06375 126.9375 25 128 C21.77208445 130.1519437 20.71599191 130.20086443 17 130 C17 131.98 17 133.96 17 136 C13.91190305 137.76462683 12.76687864 138 9 138 C8.67 140.31 8.34 142.62 8 145 C5.69 145.33 3.38 145.66 1 146 C0.67 148.31 0.34 150.62 0 153 C-2.31 153.33 -4.62 153.66 -7 154 C-7.33 156.31 -7.66 158.62 -8 161 C-10.31 161.33 -12.62 161.66 -15 162 C-15.33 164.31 -15.66 166.62 -16 169 C-18.31 169.33 -20.62 169.66 -23 170 C-23.33 172.31 -23.66 174.62 -24 177 C-26.31 177.33 -28.62 177.66 -31 178 C-31.144375 179.134375 -31.28875 180.26875 -31.4375 181.4375 C-32 185 -32 185 -33 186 C-34.99958364 186.04080783 -37.00045254 186.04254356 -39 186 C-39.03758423 187.0372522 -39.03758423 187.0372522 -39.07592773 188.09545898 C-39.19152161 191.20967866 -39.31441242 194.32356789 -39.4375 197.4375 C-39.47681641 198.52611328 -39.51613281 199.61472656 -39.55664062 200.73632812 C-39.59853516 201.77080078 -39.64042969 202.80527344 -39.68359375 203.87109375 C-39.72025146 204.82943115 -39.75690918 205.78776855 -39.79467773 206.77514648 C-40 209 -40 209 -41 210 C-42.99958364 210.04080783 -45.00045254 210.04254356 -47 210 C-47.144375 211.134375 -47.28875 212.26875 -47.4375 213.4375 C-48 217 -48 217 -49 218 C-50.99958364 218.04080783 -53.00045254 218.04254356 -55 218 C-55.144375 219.134375 -55.28875 220.26875 -55.4375 221.4375 C-56 225 -56 225 -57 226 C-58.99958364 226.04080783 -61.00045254 226.04254356 -63 226 C-63.144375 227.134375 -63.28875 228.26875 -63.4375 229.4375 C-64 233 -64 233 -65 234 C-66.70772358 234.08713831 -68.41898649 234.10700007 -70.12890625 234.09765625 C-71.68061523 234.09282227 -71.68061523 234.09282227 -73.26367188 234.08789062 C-74.35228516 234.07951172 -75.44089844 234.07113281 -76.5625 234.0625 C-78.2012207 234.05573242 -78.2012207 234.05573242 -79.87304688 234.04882812 C-82.58208495 234.03699826 -85.29101599 234.02051543 -88 234 C-89.35439668 231.29120665 -89.06501451 228.99066732 -89 226 C-89.94875 226.04125 -90.8975 226.0825 -91.875 226.125 C-95 226 -95 226 -97 224 C-97.125 220.875 -97.125 220.875 -97 218 C-97.94875 218.04125 -98.8975 218.0825 -99.875 218.125 C-103 218 -103 218 -105 216 C-105.31884766 213.75341797 -105.31884766 213.75341797 -105.4140625 210.9921875 C-105.47207031 209.51298828 -105.47207031 209.51298828 -105.53125 208.00390625 C-105.5621875 206.97136719 -105.593125 205.93882812 -105.625 204.875 C-105.68300781 203.31458984 -105.68300781 203.31458984 -105.7421875 201.72265625 C-105.83664766 199.14861689 -105.92221214 196.57458845 -106 194 C-106.62567871 194.01047363 -107.25135742 194.02094727 -107.89599609 194.03173828 C-110.7222901 194.07323191 -113.54852011 194.09930473 -116.375 194.125 C-117.35984375 194.14175781 -118.3446875 194.15851563 -119.359375 194.17578125 C-120.30039063 194.18222656 -121.24140625 194.18867188 -122.2109375 194.1953125 C-123.51490479 194.21102295 -123.51490479 194.21102295 -124.84521484 194.22705078 C-127 194 -127 194 -129 192 C-129.125 188.875 -129.125 188.875 -129 186 C-130.423125 186.0309375 -130.423125 186.0309375 -131.875 186.0625 C-135 186 -135 186 -137 185 C-137 182.69 -137 180.38 -137 178 C-137.94875 178.04125 -138.8975 178.0825 -139.875 178.125 C-143 178 -143 178 -145 176 C-145.24291992 172.94311523 -145.24291992 172.94311523 -145.23046875 169.05859375 C-145.23001053 168.37571793 -145.22955231 167.6928421 -145.2290802 166.98927307 C-145.22605891 165.54597231 -145.21817622 164.10267478 -145.20581055 162.65942383 C-145.1875433 160.44275447 -145.18530093 158.22650242 -145.18554688 156.00976562 C-145.14742468 145.14742468 -145.14742468 145.14742468 -144 144 C-141.66702567 143.95907063 -139.33294775 143.95758277 -137 144 C-137.020625 142.865625 -137.04125 141.73125 -137.0625 140.5625 C-137 137 -137 137 -136 136 C-133.66702567 135.95907063 -131.33294775 135.95758277 -129 136 C-129.020625 135.05125 -129.04125 134.1025 -129.0625 133.125 C-129 130 -129 130 -128 128 C-120.41 128 -112.82 128 -105 128 C-105 126.02 -105 124.04 -105 122 C-103 120 -103 120 -99.875 119.875 C-98.92625 119.91625 -97.9775 119.9575 -97 120 C-97.020625 119.05125 -97.04125 118.1025 -97.0625 117.125 C-97 114 -97 114 -96 112 C-93.69 112 -91.38 112 -89 112 C-89.020625 111.05125 -89.04125 110.1025 -89.0625 109.125 C-89 106 -89 106 -88 104 C-85.69 104 -83.38 104 -81 104 C-81.020625 103.05125 -81.04125 102.1025 -81.0625 101.125 C-81 98 -81 98 -80 96 C-77.69 96 -75.38 96 -73 96 C-73.020625 95.05125 -73.04125 94.1025 -73.0625 93.125 C-73 90 -73 90 -72 88 C-69.69 88 -67.38 88 -65 88 C-65.020625 87.05125 -65.04125 86.1025 -65.0625 85.125 C-65 82 -65 82 -64 80 C-61.69 80 -59.38 80 -57 80 C-57.020625 79.05125 -57.04125 78.1025 -57.0625 77.125 C-57 74 -57 74 -56 72 C-53.69 72 -51.38 72 -49 72 C-49.020625 71.05125 -49.04125 70.1025 -49.0625 69.125 C-49 66 -49 66 -48 64 C-45.69 64 -43.38 64 -41 64 C-41.020625 63.05125 -41.04125 62.1025 -41.0625 61.125 C-41 58 -41 58 -40 56 C-37.69 56 -35.38 56 -33 56 C-32.67 53.36 -32.34 50.72 -32 48 C-29.69 48 -27.38 48 -25 48 C-24.67 45.36 -24.34 42.72 -24 40 C-21.69 40 -19.38 40 -17 40 C-16.67 32.08 -16.34 24.16 -16 16 C-13.69 16 -11.38 16 -9 16 C-8.67 13.36 -8.34 10.72 -8 8 C-5.69 8 -3.38 8 -1 8 C-0.67 5.36 -0.34 2.72 0 0 Z " fill="#E58F41" transform="translate(160,15)"/>
<path d="M0 0 C0 4.95 0 9.9 0 15 C2.64 15 5.28 15 8 15 C8 17.64 8 20.28 8 23 C5.36 23 2.72 23 0 23 C0 28.28 0 33.56 0 39 C2.64 39 5.28 39 8 39 C8 41.64 8 44.28 8 47 C10.64 47 13.28 47 16 47 C16 49.64 16 52.28 16 55 C13.36 55 10.72 55 8 55 C8 57.64 8 60.28 8 63 C5.36 63 2.72 63 0 63 C0 60.36 0 57.72 0 55 C-2.64 55 -5.28 55 -8 55 C-8 52.36 -8 49.72 -8 47 C-15.92 47 -23.84 47 -32 47 C-32 49.64 -32 52.28 -32 55 C-34.64 55 -37.28 55 -40 55 C-40 60.28 -40 65.56 -40 71 C-37.36 71 -34.72 71 -32 71 C-32 73.64 -32 76.28 -32 79 C-29.36 79 -26.72 79 -24 79 C-24 81.64 -24 84.28 -24 87 C-21.36 87 -18.72 87 -16 87 C-16 89.64 -16 92.28 -16 95 C-13.36 95 -10.72 95 -8 95 C-8 92.36 -8 89.72 -8 87 C-5.36 87 -2.72 87 0 87 C0 84.36 0 81.72 0 79 C2.64 79 5.28 79 8 79 C8 84.28 8 89.56 8 95 C10.64 95 13.28 95 16 95 C16 97.64 16 100.28 16 103 C13.36 103 10.72 103 8 103 C8 110.92 8 118.84 8 127 C5.36 127 2.72 127 0 127 C0 129.64 0 132.28 0 135 C-2.64 135 -5.28 135 -8 135 C-8 137.64 -8 140.28 -8 143 C-15.92 143 -23.84 143 -32 143 C-32 140.36 -32 137.72 -32 135 C-34.64 135 -37.28 135 -40 135 C-40 132.36 -40 129.72 -40 127 C-42.97 127 -45.94 127 -49 127 C-49.495 119.575 -49.495 119.575 -50 112 C-51.49273437 112.02320313 -52.98546875 112.04640625 -54.5234375 112.0703125 C-56.47395335 112.08906746 -58.42447458 112.10726795 -60.375 112.125 C-61.35984375 112.14175781 -62.3446875 112.15851563 -63.359375 112.17578125 C-64.30039063 112.18222656 -65.24140625 112.18867188 -66.2109375 112.1953125 C-67.51490479 112.21102295 -67.51490479 112.21102295 -68.84521484 112.22705078 C-71 112 -71 112 -73 110 C-73.125 106.875 -73.125 106.875 -73 104 C-73.94875 104.020625 -74.8975 104.04125 -75.875 104.0625 C-79 104 -79 104 -81 103 C-81 100.69 -81 98.38 -81 96 C-81.94875 96.04125 -82.8975 96.0825 -83.875 96.125 C-87 96 -87 96 -89 94 C-89.24291992 90.94311523 -89.24291992 90.94311523 -89.23046875 87.05859375 C-89.23001053 86.37571793 -89.22955231 85.6928421 -89.2290802 84.98927307 C-89.22605891 83.54597231 -89.21817622 82.10267478 -89.20581055 80.65942383 C-89.1875433 78.44275447 -89.18530093 76.22650242 -89.18554688 74.00976562 C-89.14742468 63.14742468 -89.14742468 63.14742468 -88 62 C-85.66702567 61.95907063 -83.33294775 61.95758277 -81 62 C-81.020625 60.865625 -81.04125 59.73125 -81.0625 58.5625 C-81 55 -81 55 -80 54 C-77.66702567 53.95907063 -75.33294775 53.95758277 -73 54 C-73.020625 53.05125 -73.04125 52.1025 -73.0625 51.125 C-73 48 -73 48 -72 46 C-64.41 46 -56.82 46 -49 46 C-49 44.02 -49 42.04 -49 40 C-47 38 -47 38 -43.875 37.875 C-42.92625 37.91625 -41.9775 37.9575 -41 38 C-41.020625 37.05125 -41.04125 36.1025 -41.0625 35.125 C-41 32 -41 32 -40 30 C-37.69 30 -35.38 30 -33 30 C-33.020625 29.05125 -33.04125 28.1025 -33.0625 27.125 C-33 24 -33 24 -32 22 C-29.69 22 -27.38 22 -25 22 C-25.020625 21.05125 -25.04125 20.1025 -25.0625 19.125 C-25 16 -25 16 -24 14 C-21.69 14 -19.38 14 -17 14 C-17.020625 13.05125 -17.04125 12.1025 -17.0625 11.125 C-17 8 -17 8 -16 6 C-13.69 6 -11.38 6 -9 6 C-9 4.35 -9 2.7 -9 1 C-7 0 -7 0 0 0 Z " fill="#E79042" transform="translate(104,97)"/>
<path d="M0 0 C6.15234375 -0.09765625 6.15234375 -0.09765625 8 0 C9 1 9 1 9.0625 4.0625 C9.041875 5.031875 9.02125 6.00125 9 7 C7.88625 7.185625 6.7725 7.37125 5.625 7.5625 C4.42875 8.036875 3.2325 8.51125 2 9 C0.45913678 12.51400668 0.45913678 12.51400668 0 16 C-2.97 16.495 -2.97 16.495 -6 17 C-6.99 20.465 -6.99 20.465 -8 24 C-19.385 24.495 -19.385 24.495 -31 25 C-31 26.98 -31 28.96 -31 31 C-33.90600261 32.25664978 -35.79604584 33 -39 33 C-39 34.98 -39 36.96 -39 39 C-42.08809695 40.76462683 -43.23312136 41 -47 41 C-46.938125 41.94875 -46.87625 42.8975 -46.8125 43.875 C-46.874375 44.90625 -46.93625 45.9375 -47 47 C-50.22791555 49.1519437 -51.28400809 49.20086443 -55 49 C-55 50.98 -55 52.96 -55 55 C-58.08809695 56.76462683 -59.23312136 57 -63 57 C-63.33 59.31 -63.66 61.62 -64 64 C-67.465 64.495 -67.465 64.495 -71 65 C-71.33 67.31 -71.66 69.62 -72 72 C-75.465 72.495 -75.465 72.495 -79 73 C-79.33 75.31 -79.66 77.62 -80 80 C-83.465 80.495 -83.465 80.495 -87 81 C-87.33 83.31 -87.66 85.62 -88 88 C-91.465 88.495 -91.465 88.495 -95 89 C-95.33 91.31 -95.66 93.62 -96 96 C-99.465 96.495 -99.465 96.495 -103 97 C-103.144375 98.134375 -103.28875 99.26875 -103.4375 100.4375 C-104 104 -104 104 -105 105 C-106.99958364 105.04080783 -109.00045254 105.04254356 -111 105 C-111.03758423 106.0372522 -111.03758423 106.0372522 -111.07592773 107.09545898 C-111.19152161 110.20967866 -111.31441242 113.32356789 -111.4375 116.4375 C-111.47681641 117.52611328 -111.51613281 118.61472656 -111.55664062 119.73632812 C-111.59853516 120.77080078 -111.64042969 121.80527344 -111.68359375 122.87109375 C-111.72025146 123.82943115 -111.75690918 124.78776855 -111.79467773 125.77514648 C-112 128 -112 128 -113 129 C-114.99958364 129.04080783 -117.00045254 129.04254356 -119 129 C-119.144375 130.134375 -119.28875 131.26875 -119.4375 132.4375 C-120 136 -120 136 -121 137 C-122.99958364 137.04080783 -125.00045254 137.04254356 -127 137 C-127.144375 138.134375 -127.28875 139.26875 -127.4375 140.4375 C-128 144 -128 144 -129 145 C-130.99958364 145.04080783 -133.00045254 145.04254356 -135 145 C-135.144375 146.134375 -135.28875 147.26875 -135.4375 148.4375 C-136 152 -136 152 -137 153 C-138.70772358 153.08713831 -140.41898649 153.10700007 -142.12890625 153.09765625 C-143.68061523 153.09282227 -143.68061523 153.09282227 -145.26367188 153.08789062 C-146.35228516 153.07951172 -147.44089844 153.07113281 -148.5625 153.0625 C-150.2012207 153.05573242 -150.2012207 153.05573242 -151.87304688 153.04882812 C-154.58208495 153.03699826 -157.29101599 153.02051543 -160 153 C-161.35439668 150.29120665 -161.06501451 147.99066732 -161 145 C-161.94875 145.04125 -162.8975 145.0825 -163.875 145.125 C-167 145 -167 145 -169 143 C-169.125 139.875 -169.125 139.875 -169 137 C-169.94875 137.04125 -170.8975 137.0825 -171.875 137.125 C-175 137 -175 137 -177 135 C-177.125 131.375 -177.125 131.375 -177 128 C-174.03 128 -171.06 128 -168 128 C-168 130.64 -168 133.28 -168 136 C-165.36 136 -162.72 136 -160 136 C-160 138.64 -160 141.28 -160 144 C-152.08 144 -144.16 144 -136 144 C-136 141.36 -136 138.72 -136 136 C-133.36 136 -130.72 136 -128 136 C-128 133.36 -128 130.72 -128 128 C-125.36 128 -122.72 128 -120 128 C-120 120.08 -120 112.16 -120 104 C-117.36 104 -114.72 104 -112 104 C-112 101.36 -112 98.72 -112 96 C-109.36 96 -106.72 96 -104 96 C-104 93.36 -104 90.72 -104 88 C-101.36 88 -98.72 88 -96 88 C-96 85.36 -96 82.72 -96 80 C-93.36 80 -90.72 80 -88 80 C-88 77.36 -88 74.72 -88 72 C-85.36 72 -82.72 72 -80 72 C-80 69.36 -80 66.72 -80 64 C-77.36 64 -74.72 64 -72 64 C-72 61.36 -72 58.72 -72 56 C-69.36 56 -66.72 56 -64 56 C-64 53.36 -64 50.72 -64 48 C-61.36 48 -58.72 48 -56 48 C-56 45.36 -56 42.72 -56 40 C-53.36 40 -50.72 40 -48 40 C-48 37.36 -48 34.72 -48 32 C-45.36 32 -42.72 32 -40 32 C-40 29.36 -40 26.72 -40 24 C-37.36 24 -34.72 24 -32 24 C-32 21.36 -32 18.72 -32 16 C-24.08 16 -16.16 16 -8 16 C-8 13.36 -8 10.72 -8 8 C-5.36 8 -2.72 8 0 8 C0 5.36 0 2.72 0 0 Z " fill="#452911" transform="translate(232,96)"/>
<path d="M0 0 C7.92 0 15.84 0 24 0 C24 2.64 24 5.28 24 8 C26.64 8 29.28 8 32 8 C32 10.64 32 13.28 32 16 C34.64 16 37.28 16 40 16 C40 21.28 40 26.56 40 32 C37.36 32 34.72 32 32 32 C32 34.64 32 37.28 32 40 C29.36 40 26.72 40 24 40 C24 42.64 24 45.28 24 48 C21.36 48 18.72 48 16 48 C16 45.36 16 42.72 16 40 C13.36 40 10.72 40 8 40 C8 37.36 8 34.72 8 32 C5.36 32 2.72 32 0 32 C0 29.36 0 26.72 0 24 C-2.64 24 -5.28 24 -8 24 C-8 18.72 -8 13.44 -8 8 C-5.36 8 -2.72 8 0 8 C0 5.36 0 2.72 0 0 Z " fill="#D9833E" transform="translate(72,144)"/>
<path d="M0 0 C5.28 0 10.56 0 16 0 C16 2.64 16 5.28 16 8 C18.64 8 21.28 8 24 8 C24 10.64 24 13.28 24 16 C29.28 16 34.56 16 40 16 C40 21.28 40 26.56 40 32 C37.36 32 34.72 32 32 32 C32 34.64 32 37.28 32 40 C24.08 40 16.16 40 8 40 C8 37.36 8 34.72 8 32 C5.36 32 2.72 32 0 32 C0 29.36 0 26.72 0 24 C-2.64 24 -5.28 24 -8 24 C-8 18.72 -8 13.44 -8 8 C-5.36 8 -2.72 8 0 8 C0 5.36 0 2.72 0 0 Z " fill="#572F1A" transform="translate(112,112)"/>
<path d="M0 0 C7.92 0 15.84 0 24 0 C24 2.64 24 5.28 24 8 C26.64 8 29.28 8 32 8 C32 10.64 32 13.28 32 16 C24.08 16 16.16 16 8 16 C8 21.28 8 26.56 8 32 C5.36 32 2.72 32 0 32 C0 29.36 0 26.72 0 24 C-2.64 24 -5.28 24 -8 24 C-8 18.72 -8 13.44 -8 8 C-5.36 8 -2.72 8 0 8 C0 5.36 0 2.72 0 0 Z " fill="#572F1A" transform="translate(72,144)"/>
<path d="M0 0 C5.28 0 10.56 0 16 0 C16 2.64 16 5.28 16 8 C18.64 8 21.28 8 24 8 C24 10.64 24 13.28 24 16 C18.72 16 13.44 16 8 16 C8 21.28 8 26.56 8 32 C5.36 32 2.72 32 0 32 C0 29.36 0 26.72 0 24 C-2.64 24 -5.28 24 -8 24 C-8 18.72 -8 13.44 -8 8 C-5.36 8 -2.72 8 0 8 C0 5.36 0 2.72 0 0 Z " fill="#8B4B2B" transform="translate(112,112)"/>
<path d="M0 0 C5.28 0 10.56 0 16 0 C16 5.28 16 10.56 16 16 C13.36 16 10.72 16 8 16 C8 18.64 8 21.28 8 24 C5.36 24 2.72 24 0 24 C0 26.64 0 29.28 0 32 C-7.92 32 -15.84 32 -24 32 C-24 29.36 -24 26.72 -24 24 C-18.72 24 -13.44 24 -8 24 C-8 21.36 -8 18.72 -8 16 C-5.36 16 -2.72 16 0 16 C0 10.72 0 5.44 0 0 Z " fill="#8B4B2B" transform="translate(176,88)"/>
<path d="M0 0 C2.64 0 5.28 0 8 0 C8 5.28 8 10.56 8 16 C5.36 16 2.72 16 0 16 C0 21.28 0 26.56 0 32 C-2.64 32 -5.28 32 -8 32 C-8 34.64 -8 37.28 -8 40 C-10.64 40 -13.28 40 -16 40 C-16 32.08 -16 24.16 -16 16 C-13.36 16 -10.72 16 -8 16 C-8 13.36 -8 10.72 -8 8 C-5.36 8 -2.72 8 0 8 C0 5.36 0 2.72 0 0 Z " fill="#8B4B2B" transform="translate(152,64)"/>
<path d="M0 0 C2.05078125 0.03255208 4.1015625 0.06510417 6.15234375 0.09765625 C6.15234375 2.73765625 6.15234375 5.37765625 6.15234375 8.09765625 C8.79234375 8.09765625 11.43234375 8.09765625 14.15234375 8.09765625 C14.15234375 10.73765625 14.15234375 13.37765625 14.15234375 16.09765625 C22.07234375 16.09765625 29.99234375 16.09765625 38.15234375 16.09765625 C38.15234375 19.06765625 38.15234375 22.03765625 38.15234375 25.09765625 C34.36074078 25.15552293 30.56925064 25.19120679 26.77734375 25.22265625 C25.15699219 25.24779297 25.15699219 25.24779297 23.50390625 25.2734375 C22.47265625 25.27988281 21.44140625 25.28632813 20.37890625 25.29296875 C18.94925537 25.3086792 18.94925537 25.3086792 17.49072266 25.32470703 C15.15234375 25.09765625 15.15234375 25.09765625 13.15234375 23.09765625 C13.02734375 19.97265625 13.02734375 19.97265625 13.15234375 17.09765625 C12.20359375 17.11828125 11.25484375 17.13890625 10.27734375 17.16015625 C7.15234375 17.09765625 7.15234375 17.09765625 5.15234375 16.09765625 C5.15234375 13.78765625 5.15234375 11.47765625 5.15234375 9.09765625 C4.20359375 9.13890625 3.25484375 9.18015625 2.27734375 9.22265625 C-0.84765625 9.09765625 -0.84765625 9.09765625 -2.84765625 7.09765625 C-3.03515625 4.03515625 -3.03515625 4.03515625 -2.84765625 1.09765625 C-1.84765625 0.09765625 -1.84765625 0.09765625 0 0 Z " fill="#462710" transform="translate(17.84765625,183.90234375)"/>
<path d="M0 0 C2.64 0 5.28 0 8 0 C8 10.56 8 21.12 8 32 C5.36 32 2.72 32 0 32 C0 29.36 0 26.72 0 24 C-2.97 24.33 -5.94 24.66 -9 25 C-9.09765625 18.84765625 -9.09765625 18.84765625 -9 17 C-8.67 16.67 -8.34 16.34 -8 16 C-5.36 16 -2.72 16 0 16 C0 10.72 0 5.44 0 0 Z " fill="#D9833E" transform="translate(24,160)"/>
<path d="M0 0 C5.28 0 10.56 0 16 0 C16 2.64 16 5.28 16 8 C13.36 8 10.72 8 8 8 C8 10.64 8 13.28 8 16 C0.08 16 -7.84 16 -16 16 C-16 13.36 -16 10.72 -16 8 C-10.72 8 -5.44 8 0 8 C0 5.36 0 2.72 0 0 Z " fill="#B97335" transform="translate(48,184)"/>
<path d="M0 0 C2.64 0 5.28 0 8 0 C8 5.28 8 10.56 8 16 C5.36 16 2.72 16 0 16 C0 18.64 0 21.28 0 24 C-2.97 24 -5.94 24 -9 24 C-9.02685095 21.52076199 -9.04676547 19.0418116 -9.0625 16.5625 C-9.07506836 15.50192383 -9.07506836 15.50192383 -9.08789062 14.41992188 C-9.09653588 12.61306441 -9.05220011 10.80612397 -9 9 C-8 8 -8 8 -6.15234375 7.90234375 C-4.1015625 7.93489583 -2.05078125 7.96744792 0 8 C0 5.36 0 2.72 0 0 Z " fill="#B97234" transform="translate(64,200)"/>
<path d="M0 0 C7.92 0 15.84 0 24 0 C24 2.64 24 5.28 24 8 C18.72 8 13.44 8 8 8 C8 10.64 8 13.28 8 16 C5.36 16 2.72 16 0 16 C0 10.72 0 5.44 0 0 Z " fill="#E79042" transform="translate(80,160)"/>
<path d="M0 0 C5.28 0 10.56 0 16 0 C16 5.28 16 10.56 16 16 C10.72 16 5.44 16 0 16 C0 10.72 0 5.44 0 0 Z " fill="#D9833E" transform="translate(120,128)"/>
<path d="M0 0 C7.92 0 15.84 0 24 0 C24 2.64 24 5.28 24 8 C16.08 8 8.16 8 0 8 C0 5.36 0 2.72 0 0 Z " fill="#B97335" transform="translate(72,232)"/>
<path d="M0 0 C7.92 0 15.84 0 24 0 C24 2.64 24 5.28 24 8 C16.08 8 8.16 8 0 8 C0 5.36 0 2.72 0 0 Z " fill="#D9833E" transform="translate(64,224)"/>
<path d="M0 0 C2.64 0 5.28 0 8 0 C8 7.92 8 15.84 8 24 C5.36 24 2.72 24 0 24 C0 16.08 0 8.16 0 0 Z " fill="#B97335" transform="translate(104,200)"/>
<path d="M0 0 C7.92 0 15.84 0 24 0 C24 2.64 24 5.28 24 8 C16.08 8 8.16 8 0 8 C0 5.36 0 2.72 0 0 Z " fill="#8B4B2B" transform="translate(80,152)"/>
<path d="M0 0 C7.92 0 15.84 0 24 0 C24 2.64 24 5.28 24 8 C16.08 8 8.16 8 0 8 C0 5.36 0 2.72 0 0 Z " fill="#B97335" transform="translate(200,104)"/>
<path d="M0 0 C2.64 0 5.28 0 8 0 C8 7.92 8 15.84 8 24 C5.36 24 2.72 24 0 24 C0 16.08 0 8.16 0 0 Z " fill="#572F1A" transform="translate(136,80)"/>
<path d="M0 0 C5.28 0 10.56 0 16 0 C16 5.28 16 10.56 16 16 C13.36 16 10.72 16 8 16 C8 13.36 8 10.72 8 8 C5.36 8 2.72 8 0 8 C0 5.36 0 2.72 0 0 Z " fill="#8B4B2B" transform="translate(176,56)"/>
<path d="M0 0 C0.33 0 0.66 0 1 0 C1 6.93 1 13.86 1 21 C-1.97 21.33 -4.94 21.66 -8 22 C-8.02684312 19.18743719 -8.04676188 16.37512759 -8.0625 13.5625 C-8.07087891 12.76005859 -8.07925781 11.95761719 -8.08789062 11.13085938 C-8.0965143 9.08704779 -8.0522815 7.04316098 -8 5 C-7 4 -7 4 -3.4375 3.9375 C-2.303125 3.958125 -1.16875 3.97875 0 4 C0 2.68 0 1.36 0 0 Z " fill="#E89141" transform="translate(23,155)"/>
<path d="M0 0 C2.64 0 5.28 0 8 0 C8 5.28 8 10.56 8 16 C5.36 16 2.72 16 0 16 C0 10.72 0 5.44 0 0 Z " fill="#8B4B2B" transform="translate(64,200)"/>
<path d="M0 0 C5.28 0 10.56 0 16 0 C16 2.64 16 5.28 16 8 C10.72 8 5.44 8 0 8 C0 5.36 0 2.72 0 0 Z " fill="#8B4B2B" transform="translate(48,184)"/>
<path d="M0 0 C2.64 0 5.28 0 8 0 C8 5.28 8 10.56 8 16 C5.36 16 2.72 16 0 16 C0 10.72 0 5.44 0 0 Z " fill="#8B4B2B" transform="translate(112,176)"/>
<path d="M0 0 C5.28 0 10.56 0 16 0 C16 2.64 16 5.28 16 8 C10.72 8 5.44 8 0 8 C0 5.36 0 2.72 0 0 Z " fill="#8B4B2B" transform="translate(40,168)"/>
<path d="M0 0 C2.64 0 5.28 0 8 0 C8 5.28 8 10.56 8 16 C5.36 16 2.72 16 0 16 C0 10.72 0 5.44 0 0 Z " fill="#572F1A" transform="translate(104,160)"/>
<path d="M0 0 C5.28 0 10.56 0 16 0 C16 2.64 16 5.28 16 8 C10.72 8 5.44 8 0 8 C0 5.36 0 2.72 0 0 Z " fill="#D9833E" transform="translate(40,152)"/>
<path d="M0 0 C5.28 0 10.56 0 16 0 C16 2.64 16 5.28 16 8 C10.72 8 5.44 8 0 8 C0 5.36 0 2.72 0 0 Z " fill="#572F1A" transform="translate(120,144)"/>
<path d="M0 0 C2.64 0 5.28 0 8 0 C8 5.28 8 10.56 8 16 C5.36 16 2.72 16 0 16 C0 10.72 0 5.44 0 0 Z " fill="#8B4B2B" transform="translate(144,128)"/>
<path d="M0 0 C2.64 0 5.28 0 8 0 C8 5.28 8 10.56 8 16 C5.36 16 2.72 16 0 16 C0 10.72 0 5.44 0 0 Z " fill="#E79042" transform="translate(120,128)"/>
<path d="M0 0 C2.64 0 5.28 0 8 0 C8 5.28 8 10.56 8 16 C5.36 16 2.72 16 0 16 C0 10.72 0 5.44 0 0 Z " fill="#572F1A" transform="translate(104,120)"/>
<path d="M0 0 C5.28 0 10.56 0 16 0 C16 2.64 16 5.28 16 8 C10.72 8 5.44 8 0 8 C0 5.36 0 2.72 0 0 Z " fill="#8B4B2B" transform="translate(80,120)"/>
<path d="M0 0 C5.28 0 10.56 0 16 0 C16 2.64 16 5.28 16 8 C10.72 8 5.44 8 0 8 C0 5.36 0 2.72 0 0 Z " fill="#572F1A" transform="translate(152,112)"/>
<path d="M0 0 C5.28 0 10.56 0 16 0 C16 2.64 16 5.28 16 8 C10.72 8 5.44 8 0 8 C0 5.36 0 2.72 0 0 Z " fill="#572E1A" transform="translate(112,112)"/>
<path d="M0 0 C2.64 0 5.28 0 8 0 C8 5.28 8 10.56 8 16 C5.36 16 2.72 16 0 16 C0 10.72 0 5.44 0 0 Z " fill="#8B4B2B" transform="translate(184,88)"/>
<path d="M0 0 C2.64 0 5.28 0 8 0 C8 5.28 8 10.56 8 16 C5.36 16 2.72 16 0 16 C0 10.72 0 5.44 0 0 Z " fill="#572F1A" transform="translate(176,88)"/>
<path d="M0 0 C2.64 0 5.28 0 8 0 C8 5.28 8 10.56 8 16 C5.36 16 2.72 16 0 16 C0 10.72 0 5.44 0 0 Z " fill="#8B4B2B" transform="translate(144,80)"/>
<path d="M0 0 C2.64 0 5.28 0 8 0 C8 5.28 8 10.56 8 16 C5.36 16 2.72 16 0 16 C0 10.72 0 5.44 0 0 Z " fill="#8B4B2B" transform="translate(160,32)"/>
<path d="M0 0 C2.05078125 0.03255208 4.1015625 0.06510417 6.15234375 0.09765625 C6.15234375 2.73765625 6.15234375 5.37765625 6.15234375 8.09765625 C1.69734375 8.59265625 1.69734375 8.59265625 -2.84765625 9.09765625 C-2.9453125 2.9453125 -2.9453125 2.9453125 -2.84765625 1.09765625 C-1.84765625 0.09765625 -1.84765625 0.09765625 0 0 Z " fill="#B97335" transform="translate(17.84765625,175.90234375)"/>
<path d="M0 0 C6.15234375 -0.09765625 6.15234375 -0.09765625 8 0 C9 1 9 1 9.09765625 2.84765625 C9.04882812 5.92382812 9.04882812 5.92382812 9 9 C6.03 8.67 3.06 8.34 0 8 C0 5.36 0 2.72 0 0 Z " fill="#B87234" transform="translate(232,88)"/>
<path d="M0 0 C2.64 0 5.28 0 8 0 C8 2.64 8 5.28 8 8 C5.36 8 2.72 8 0 8 C0 5.36 0 2.72 0 0 Z " fill="#B97335" transform="translate(96,224)"/>
<path d="M0 0 C2.64 0 5.28 0 8 0 C8 2.64 8 5.28 8 8 C5.36 8 2.72 8 0 8 C0 5.36 0 2.72 0 0 Z " fill="#B97335" transform="translate(64,224)"/>
<path d="M0 0 C2.64 0 5.28 0 8 0 C8 2.64 8 5.28 8 8 C5.36 8 2.72 8 0 8 C0 5.36 0 2.72 0 0 Z " fill="#8B4B2B" transform="translate(88,208)"/>
<path d="M0 0 C2.64 0 5.28 0 8 0 C8 2.64 8 5.28 8 8 C5.36 8 2.72 8 0 8 C0 5.36 0 2.72 0 0 Z " fill="#8B4B2B" transform="translate(80,200)"/>
<path d="M0 0 C2.64 0 5.28 0 8 0 C8 2.64 8 5.28 8 8 C5.36 8 2.72 8 0 8 C0 5.36 0 2.72 0 0 Z " fill="#B97335" transform="translate(112,192)"/>
<path d="M0 0 C2.64 0 5.28 0 8 0 C8 2.64 8 5.28 8 8 C5.36 8 2.72 8 0 8 C0 5.36 0 2.72 0 0 Z " fill="#B97335" transform="translate(120,184)"/>
<path d="M0 0 C2.64 0 5.28 0 8 0 C8 2.64 8 5.28 8 8 C5.36 8 2.72 8 0 8 C0 5.36 0 2.72 0 0 Z " fill="#572F1A" transform="translate(88,184)"/>
<path d="M0 0 C2.64 0 5.28 0 8 0 C8 2.64 8 5.28 8 8 C5.36 8 2.72 8 0 8 C0 5.36 0 2.72 0 0 Z " fill="#B97335" transform="translate(24,184)"/>
<path d="M0 0 C2.64 0 5.28 0 8 0 C8 2.64 8 5.28 8 8 C5.36 8 2.72 8 0 8 C0 5.36 0 2.72 0 0 Z " fill="#B97335" transform="translate(128,176)"/>
<path d="M0 0 C2.64 0 5.28 0 8 0 C8 2.64 8 5.28 8 8 C5.36 8 2.72 8 0 8 C0 5.36 0 2.72 0 0 Z " fill="#572E1A" transform="translate(96,176)"/>
<path d="M0 0 C2.64 0 5.28 0 8 0 C8 2.64 8 5.28 8 8 C5.36 8 2.72 8 0 8 C0 5.36 0 2.72 0 0 Z " fill="#572F1A" transform="translate(80,176)"/>
<path d="M0 0 C2.64 0 5.28 0 8 0 C8 2.64 8 5.28 8 8 C5.36 8 2.72 8 0 8 C0 5.36 0 2.72 0 0 Z " fill="#B97335" transform="translate(136,168)"/>
<path d="M0 0 C2.64 0 5.28 0 8 0 C8 2.64 8 5.28 8 8 C5.36 8 2.72 8 0 8 C0 5.36 0 2.72 0 0 Z " fill="#572E1A" transform="translate(72,168)"/>
<path d="M0 0 C2.64 0 5.28 0 8 0 C8 2.64 8 5.28 8 8 C5.36 8 2.72 8 0 8 C0 5.36 0 2.72 0 0 Z " fill="#B97335" transform="translate(144,160)"/>
<path d="M0 0 C2.64 0 5.28 0 8 0 C8 2.64 8 5.28 8 8 C5.36 8 2.72 8 0 8 C0 5.36 0 2.72 0 0 Z " fill="#D9833E" transform="translate(136,160)"/>
<path d="M0 0 C2.64 0 5.28 0 8 0 C8 2.64 8 5.28 8 8 C5.36 8 2.72 8 0 8 C0 5.36 0 2.72 0 0 Z " fill="#8B4B2B" transform="translate(72,160)"/>
<path d="M0 0 C2.64 0 5.28 0 8 0 C8 2.64 8 5.28 8 8 C5.36 8 2.72 8 0 8 C0 5.36 0 2.72 0 0 Z " fill="#572F1A" transform="translate(64,160)"/>
<path d="M0 0 C2.64 0 5.28 0 8 0 C8 2.64 8 5.28 8 8 C5.36 8 2.72 8 0 8 C0 5.36 0 2.72 0 0 Z " fill="#B97335" transform="translate(152,152)"/>
<path d="M0 0 C2.64 0 5.28 0 8 0 C8 2.64 8 5.28 8 8 C5.36 8 2.72 8 0 8 C0 5.36 0 2.72 0 0 Z " fill="#572F1A" transform="translate(96,152)"/>
<path d="M0 0 C2.64 0 5.28 0 8 0 C8 2.64 8 5.28 8 8 C5.36 8 2.72 8 0 8 C0 5.36 0 2.72 0 0 Z " fill="#8B4B2B" transform="translate(64,152)"/>
<path d="M0 0 C2.64 0 5.28 0 8 0 C8 2.64 8 5.28 8 8 C5.36 8 2.72 8 0 8 C0 5.36 0 2.72 0 0 Z " fill="#B97335" transform="translate(160,144)"/>
<path d="M0 0 C2.64 0 5.28 0 8 0 C8 2.64 8 5.28 8 8 C5.36 8 2.72 8 0 8 C0 5.36 0 2.72 0 0 Z " fill="#8B4B2B" transform="translate(136,144)"/>
<path d="M0 0 C2.64 0 5.28 0 8 0 C8 2.64 8 5.28 8 8 C5.36 8 2.72 8 0 8 C0 5.36 0 2.72 0 0 Z " fill="#8B4B2B" transform="translate(72,144)"/>
<path d="M0 0 C2.64 0 5.28 0 8 0 C8 2.64 8 5.28 8 8 C5.36 8 2.72 8 0 8 C0 5.36 0 2.72 0 0 Z " fill="#B97335" transform="translate(168,136)"/>
<path d="M0 0 C2.64 0 5.28 0 8 0 C8 2.64 8 5.28 8 8 C5.36 8 2.72 8 0 8 C0 5.36 0 2.72 0 0 Z " fill="#D9833E" transform="translate(160,136)"/>
<path d="M0 0 C2.64 0 5.28 0 8 0 C8 2.64 8 5.28 8 8 C5.36 8 2.72 8 0 8 C0 5.36 0 2.72 0 0 Z " fill="#572F1A" transform="translate(112,136)"/>
<path d="M0 0 C2.64 0 5.28 0 8 0 C8 2.64 8 5.28 8 8 C5.36 8 2.72 8 0 8 C0 5.36 0 2.72 0 0 Z " fill="#B97335" transform="translate(176,128)"/>
<path d="M0 0 C2.64 0 5.28 0 8 0 C8 2.64 8 5.28 8 8 C5.36 8 2.72 8 0 8 C0 5.36 0 2.72 0 0 Z " fill="#D9833E" transform="translate(168,128)"/>
<path d="M0 0 C2.64 0 5.28 0 8 0 C8 2.64 8 5.28 8 8 C5.36 8 2.72 8 0 8 C0 5.36 0 2.72 0 0 Z " fill="#B97335" transform="translate(184,120)"/>
<path d="M0 0 C2.64 0 5.28 0 8 0 C8 2.64 8 5.28 8 8 C5.36 8 2.72 8 0 8 C0 5.36 0 2.72 0 0 Z " fill="#572F1A" transform="translate(128,120)"/>
<path d="M0 0 C2.64 0 5.28 0 8 0 C8 2.64 8 5.28 8 8 C5.36 8 2.72 8 0 8 C0 5.36 0 2.72 0 0 Z " fill="#B97335" transform="translate(192,112)"/>
<path d="M0 0 C2.64 0 5.28 0 8 0 C8 2.64 8 5.28 8 8 C5.36 8 2.72 8 0 8 C0 5.36 0 2.72 0 0 Z " fill="#8B4B2B" transform="translate(168,112)"/>
<path d="M0 0 C2.64 0 5.28 0 8 0 C8 2.64 8 5.28 8 8 C5.36 8 2.72 8 0 8 C0 5.36 0 2.72 0 0 Z " fill="#572E1A" transform="translate(168,104)"/>
<path d="M0 0 C2.64 0 5.28 0 8 0 C8 2.64 8 5.28 8 8 C5.36 8 2.72 8 0 8 C0 5.36 0 2.72 0 0 Z " fill="#572F1A" transform="translate(144,104)"/>
<path d="M0 0 C2.64 0 5.28 0 8 0 C8 2.64 8 5.28 8 8 C5.36 8 2.72 8 0 8 C0 5.36 0 2.72 0 0 Z " fill="#B97335" transform="translate(224,96)"/>
<path d="M0 0 C2.64 0 5.28 0 8 0 C8 2.64 8 5.28 8 8 C5.36 8 2.72 8 0 8 C0 5.36 0 2.72 0 0 Z " fill="#572F1A" transform="translate(160,88)"/>
<path d="M0 0 C2.64 0 5.28 0 8 0 C8 2.64 8 5.28 8 8 C5.36 8 2.72 8 0 8 C0 5.36 0 2.72 0 0 Z " fill="#D9833E" transform="translate(112,88)"/>
<path d="M0 0 C2.64 0 5.28 0 8 0 C8 2.64 8 5.28 8 8 C5.36 8 2.72 8 0 8 C0 5.36 0 2.72 0 0 Z " fill="#8B4B2B" transform="translate(208,80)"/>
<path d="M0 0 C2.64 0 5.28 0 8 0 C8 2.64 8 5.28 8 8 C5.36 8 2.72 8 0 8 C0 5.36 0 2.72 0 0 Z " fill="#D9833E" transform="translate(192,80)"/>
<path d="M0 0 C2.64 0 5.28 0 8 0 C8 2.64 8 5.28 8 8 C5.36 8 2.72 8 0 8 C0 5.36 0 2.72 0 0 Z " fill="#572E1A" transform="translate(168,80)"/>
<path d="M0 0 C2.64 0 5.28 0 8 0 C8 2.64 8 5.28 8 8 C5.36 8 2.72 8 0 8 C0 5.36 0 2.72 0 0 Z " fill="#572E19" transform="translate(144,72)"/>
<path d="M0 0 C2.64 0 5.28 0 8 0 C8 2.64 8 5.28 8 8 C5.36 8 2.72 8 0 8 C0 5.36 0 2.72 0 0 Z " fill="#572E1A" transform="translate(152,64)"/>
<path d="M0 0 C1.42944945 2.35438733 2.08661261 3.48032433 1.625 6.25 C1.41875 6.8275 1.2125 7.405 1 8 C-1.31 8 -3.62 8 -6 8 C-5.979375 9.134375 -5.95875 10.26875 -5.9375 11.4375 C-6 15 -6 15 -7 16 C-9.33297433 16.04092937 -11.66705225 16.04241723 -14 16 C-14.33 16.99 -14.66 17.98 -15 19 C-15 15 -15 15 -14 14 C-12.00041636 13.95919217 -9.99954746 13.95745644 -8 14 C-8.020625 13.05125 -8.04125 12.1025 -8.0625 11.125 C-8 8 -8 8 -7 6 C-4.69 6 -2.38 6 0 6 C0 4.02 0 2.04 0 0 Z " fill="#F99457" transform="translate(71,121)"/>
<path d="M0 0 C0.66 0.33 1.32 0.66 2 1 C1.125 8.875 1.125 8.875 0 10 C-2.33297433 10.04092937 -4.66705225 10.04241723 -7 10 C-7 11.98 -7 13.96 -7 16 C-7.33 16 -7.66 16 -8 16 C-9.125 10.25 -9.125 10.25 -8 8 C-5.69 8 -3.38 8 -1 8 C-1.020625 7.05125 -1.04125 6.1025 -1.0625 5.125 C-1 2 -1 2 0 0 Z " fill="#F9A940" transform="translate(104,87)"/>
<path d="M0 0 C1.42944945 2.35438733 2.08661261 3.48032433 1.625 6.25 C1.41875 6.8275 1.2125 7.405 1 8 C-1.31 8 -3.62 8 -6 8 C-6.33 8.66 -6.66 9.32 -7 10 C-7 8.68 -7 7.36 -7 6 C-4.69 6 -2.38 6 0 6 C0 4.02 0 2.04 0 0 Z " fill="#FA9A4C" transform="translate(71,121)"/>
<path d="M0 0 C0.66 0 1.32 0 2 0 C2 1.98 2 3.96 2 6 C-0.3125 6.625 -0.3125 6.625 -3 7 C-3.99 6.34 -4.98 5.68 -6 5 C-4.02 5 -2.04 5 0 5 C0 3.35 0 1.7 0 0 Z " fill="#F78D52" transform="translate(31,146)"/>
</svg>
