<?xml version="1.0" encoding="UTF-8"?>
<svg version="1.1" xmlns="http://www.w3.org/2000/svg" width="286" height="232">
<path d="M0 0 C2.31 0 4.62 0 7 0 C8.35439668 2.70879335 8.06501451 5.00933268 8 8 C10.31 8 12.62 8 15 8 C15 15.26 15 22.52 15 30 C19.95 30 24.9 30 30 30 C30 22.74 30 15.48 30 8 C32.31 8 34.62 8 37 8 C36.9690625 6.2984375 36.9690625 6.2984375 36.9375 4.5625 C37 1 37 1 38 0 C40.33297433 -0.04092937 42.66705225 -0.04241723 45 0 C45.33 2.31 45.66 4.62 46 7 C48.31 7.33 50.62 7.66 53 8 C53.33 17.57 53.66 27.14 54 37 C63.57 37.33 73.14 37.66 83 38 C83 45.59 83 53.18 83 61 C80.69 61 78.38 61 76 61 C76.061875 62.423125 76.061875 62.423125 76.125 63.875 C76 67 76 67 74 69 C70.875 69.125 70.875 69.125 68 69 C68.0309375 70.4540625 68.0309375 70.4540625 68.0625 71.9375 C68 75 68 75 67 76 C64.85441173 76.08775605 62.70595579 76.10695219 60.55859375 76.09765625 C59.38353271 76.09515869 58.20847168 76.09266113 56.99780273 76.09008789 C55.49290283 76.08098389 53.98800293 76.07187988 52.4375 76.0625 C47.673125 76.041875 42.90875 76.02125 38 76 C38 88.21 38 100.42 38 113 C34.535 113.99 34.535 113.99 31 115 C30.67 127.21 30.34 139.42 30 152 C27.69 152 25.38 152 23 152 C23 164.21 23 176.42 23 189 C24.98 189 26.96 189 29 189 C30 190 30 190 30.09765625 193.37890625 C30.09191424 194.77347492 30.07890228 196.16801597 30.0625 197.5625 C30.041875 200.016875 30.02125 202.47125 30 205 C22.74 205 15.48 205 8 205 C7.01 201.535 7.01 201.535 6 198 C4.02 197.67 2.04 197.34 0 197 C-0.33 180.17 -0.66 163.34 -1 146 C-2.65 145.67 -4.3 145.34 -6 145 C-7.87824891 146.87824891 -7.39102397 150.03935276 -7.5625 152.5625 C-7.64628906 153.76003906 -7.73007813 154.95757812 -7.81640625 156.19140625 C-7.87699219 157.11824219 -7.93757812 158.04507813 -8 159 C-10.31 159.33 -12.62 159.66 -15 160 C-15 169.57 -15 179.14 -15 189 C-13.02 189 -11.04 189 -9 189 C-8 190 -8 190 -7.90234375 193.37890625 C-7.90808576 194.77347492 -7.92109772 196.16801597 -7.9375 197.5625 C-7.958125 200.016875 -7.97875 202.47125 -8 205 C-15.26 205 -22.52 205 -30 205 C-30.99 201.535 -30.99 201.535 -32 198 C-33.98 197.67 -35.96 197.34 -38 197 C-38.33 184.79 -38.66 172.58 -39 160 C-50.88 160 -62.76 160 -75 160 C-75.33 162.31 -75.66 164.62 -76 167 C-78.31 167 -80.62 167 -83 167 C-83 174.26 -83 181.52 -83 189 C-80.69 189.33 -78.38 189.66 -76 190 C-76 194.95 -76 199.9 -76 205 C-83.26 205 -90.52 205 -98 205 C-98.99 201.535 -98.99 201.535 -100 198 C-101.98 197.67 -103.96 197.34 -106 197 C-107.09857724 190.8323971 -107.11539104 184.81584877 -107.0625 178.5625 C-107.05798828 177.54478516 -107.05347656 176.52707031 -107.04882812 175.47851562 C-107.03712454 172.98565142 -107.01919192 170.4928178 -107 168 C-111.62 167.67 -116.24 167.34 -121 167 C-121 174.26 -121 181.52 -121 189 C-118.69 189.33 -116.38 189.66 -114 190 C-114 194.95 -114 199.9 -114 205 C-121.26 205 -128.52 205 -136 205 C-136.66 202.69 -137.32 200.38 -138 198 C-139.98 197.67 -141.96 197.34 -144 197 C-144 182.15 -144 167.3 -144 152 C-142.02 151.67 -140.04 151.34 -138 151 C-137.67 143.74 -137.34 136.48 -137 129 C-138.98 129.33 -140.96 129.66 -143 130 C-143.66 132.31 -144.32 134.62 -145 137 C-146.98 137 -148.96 137 -151 137 C-151.33 139.31 -151.66 141.62 -152 144 C-157.25105442 144.02464928 -162.50207545 144.04283568 -167.75317383 144.05493164 C-169.54094021 144.05997218 -171.32870245 144.06680454 -173.11645508 144.07543945 C-175.68051168 144.0875173 -178.24451397 144.09323094 -180.80859375 144.09765625 C-182.01484657 144.10539818 -182.01484657 144.10539818 -183.24546814 144.11329651 C-185.16401715 144.11349215 -187.08245368 144.06201983 -189 144 C-190 143 -190 143 -190.0625 139.9375 C-190.041875 138.968125 -190.02125 137.99875 -190 137 C-192.31 137 -194.62 137 -197 137 C-197 131.72 -197 126.44 -197 121 C-189.74 121 -182.48 121 -175 121 C-174.67 118.69 -174.34 116.38 -174 114 C-171.03 113.505 -171.03 113.505 -168 113 C-167.34 110.69 -166.68 108.38 -166 106 C-156.43 106 -146.86 106 -137 106 C-136.505 109.96 -136.505 109.96 -136 114 C-133.03 113.505 -133.03 113.505 -130 113 C-129.34 110.69 -128.68 108.38 -128 106 C-123.38 106 -118.76 106 -114 106 C-114 103.69 -114 101.38 -114 99 C-109.05 99 -104.1 99 -99 99 C-99 96.69 -99 94.38 -99 92 C-97.14034925 90.14034925 -94.05110881 90.75912451 -91.55859375 90.68359375 C-90.25341797 90.64169922 -88.94824219 90.59980469 -87.60351562 90.55664062 C-86.2148467 90.51682392 -84.82617478 90.47711175 -83.4375 90.4375 C-82.04490817 90.39432011 -80.65232972 90.350706 -79.25976562 90.30664062 C-75.83995199 90.20014124 -72.42006237 90.09813077 -69 90 C-68.814375 88.5459375 -68.814375 88.5459375 -68.625 87.0625 C-68.41875 86.051875 -68.2125 85.04125 -68 84 C-65.65147472 82.82573736 -64.26225935 82.88491827 -61.6484375 82.90234375 C-60.79765625 82.90556641 -59.946875 82.90878906 -59.0703125 82.91210938 C-58.18085938 82.92048828 -57.29140625 82.92886719 -56.375 82.9375 C-55.4778125 82.94201172 -54.580625 82.94652344 -53.65625 82.95117188 C-51.43743352 82.96297409 -49.21874982 82.97943845 -47 83 C-46.34 80.69 -45.68 78.38 -45 76 C-40.38 76 -35.76 76 -31 76 C-31 71.38 -31 66.76 -31 62 C-29.88625 61.814375 -28.7725 61.62875 -27.625 61.4375 C-26.42875 60.963125 -25.2325 60.48875 -24 60 C-22.45913678 56.48599332 -22.45913678 56.48599332 -22 53 C-20.02 53 -18.04 53 -16 53 C-15.67 50.69 -15.34 48.38 -15 46 C-11.535 45.505 -11.535 45.505 -8 45 C-8 32.79 -8 20.58 -8 8 C-5.69 8 -3.38 8 -1 8 C-1.0309375 6.576875 -1.0309375 6.576875 -1.0625 5.125 C-1 2 -1 2 0 0 Z " fill="#864037" transform="translate(198,5)"/>
<path d="M0 0 C2.31 0 4.62 0 7 0 C8.35439668 2.70879335 8.06501451 5.00933268 8 8 C10.31 8 12.62 8 15 8 C15 15.26 15 22.52 15 30 C19.95 30 24.9 30 30 30 C30 22.74 30 15.48 30 8 C32.31 8 34.62 8 37 8 C36.9690625 6.2984375 36.9690625 6.2984375 36.9375 4.5625 C37 1 37 1 38 0 C40.33297433 -0.04092937 42.66705225 -0.04241723 45 0 C45.33 2.31 45.66 4.62 46 7 C48.31 7.33 50.62 7.66 53 8 C53.33 17.57 53.66 27.14 54 37 C63.57 37.33 73.14 37.66 83 38 C83 45.59 83 53.18 83 61 C80.69 61 78.38 61 76 61 C76.061875 62.423125 76.061875 62.423125 76.125 63.875 C76 67 76 67 74 69 C70.875 69.125 70.875 69.125 68 69 C68.0309375 70.4540625 68.0309375 70.4540625 68.0625 71.9375 C68 75 68 75 67 76 C64.85441173 76.08775605 62.70595579 76.10695219 60.55859375 76.09765625 C59.38353271 76.09515869 58.20847168 76.09266113 56.99780273 76.09008789 C55.49290283 76.08098389 53.98800293 76.07187988 52.4375 76.0625 C47.673125 76.041875 42.90875 76.02125 38 76 C38 88.21 38 100.42 38 113 C34.535 113.99 34.535 113.99 31 115 C30.67 127.21 30.34 139.42 30 152 C27.69 152 25.38 152 23 152 C23 164.21 23 176.42 23 189 C24.98 189 26.96 189 29 189 C30 190 30 190 30.09765625 193.37890625 C30.09191424 194.77347492 30.07890228 196.16801597 30.0625 197.5625 C30.041875 200.016875 30.02125 202.47125 30 205 C22.74 205 15.48 205 8 205 C7.01 201.535 7.01 201.535 6 198 C4.02 197.67 2.04 197.34 0 197 C0 179.84 0 162.68 0 145 C2.31 145 4.62 145 7 145 C7 162.16 7 179.32 7 197 C11.95 197 16.9 197 22 197 C22 194.69 22 192.38 22 190 C19.69 190 17.38 190 15 190 C15 177.46 15 164.92 15 152 C17.31 151.67 19.62 151.34 22 151 C22.33 138.79 22.66 126.58 23 114 C25.31 114 27.62 114 30 114 C30 98.82 30 83.64 30 68 C27.69 68 25.38 68 23 68 C23 65.69 23 63.38 23 61 C27.62 61 32.24 61 37 61 C37 58.69 37 56.38 37 54 C34.69 54 32.38 54 30 54 C30 48.72 30 43.44 30 38 C22.41 38 14.82 38 7 38 C7 40.31 7 42.62 7 45 C1.91913204 45.84681133 -2.84828377 46.09038099 -8 46 C-8 48.31 -8 50.62 -8 53 C-10.31 53 -12.62 53 -15 53 C-15 55.64 -15 58.28 -15 61 C-17.64 61 -20.28 61 -23 61 C-23 65.95 -23 70.9 -23 76 C-26.465 76.495 -26.465 76.495 -30 77 C-30.33 79.31 -30.66 81.62 -31 84 C-37.435 84.495 -37.435 84.495 -44 85 C-44.66 87.31 -45.32 89.62 -46 92 C-56.395 92.495 -56.395 92.495 -67 93 C-67.66 95.31 -68.32 97.62 -69 100 C-78.24 100.33 -87.48 100.66 -97 101 C-97.33 102.98 -97.66 104.96 -98 107 C-102.62 107 -107.24 107 -112 107 C-112 109.31 -112 111.62 -112 114 C-117.61 114 -123.22 114 -129 114 C-129 126.54 -129 139.08 -129 152 C-131.31 152 -133.62 152 -136 152 C-136.33 167.18 -136.66 182.36 -137 198 C-139.31 197.67 -141.62 197.34 -144 197 C-144 182.15 -144 167.3 -144 152 C-142.02 151.67 -140.04 151.34 -138 151 C-137.67 143.74 -137.34 136.48 -137 129 C-138.98 129.33 -140.96 129.66 -143 130 C-143.66 132.31 -144.32 134.62 -145 137 C-146.98 137 -148.96 137 -151 137 C-151.33 139.31 -151.66 141.62 -152 144 C-157.25105442 144.02464928 -162.50207545 144.04283568 -167.75317383 144.05493164 C-169.54094021 144.05997218 -171.32870245 144.06680454 -173.11645508 144.07543945 C-175.68051168 144.0875173 -178.24451397 144.09323094 -180.80859375 144.09765625 C-182.01484657 144.10539818 -182.01484657 144.10539818 -183.24546814 144.11329651 C-185.16401715 144.11349215 -187.08245368 144.06201983 -189 144 C-190 143 -190 143 -190.0625 139.9375 C-190.041875 138.968125 -190.02125 137.99875 -190 137 C-192.31 137 -194.62 137 -197 137 C-197 131.72 -197 126.44 -197 121 C-189.74 121 -182.48 121 -175 121 C-174.67 118.69 -174.34 116.38 -174 114 C-171.03 113.505 -171.03 113.505 -168 113 C-167.34 110.69 -166.68 108.38 -166 106 C-156.43 106 -146.86 106 -137 106 C-136.505 109.96 -136.505 109.96 -136 114 C-133.03 113.505 -133.03 113.505 -130 113 C-129.34 110.69 -128.68 108.38 -128 106 C-123.38 106 -118.76 106 -114 106 C-114 103.69 -114 101.38 -114 99 C-109.05 99 -104.1 99 -99 99 C-99 96.69 -99 94.38 -99 92 C-97.14034925 90.14034925 -94.05110881 90.75912451 -91.55859375 90.68359375 C-90.25341797 90.64169922 -88.94824219 90.59980469 -87.60351562 90.55664062 C-86.2148467 90.51682392 -84.82617478 90.47711175 -83.4375 90.4375 C-82.04490817 90.39432011 -80.65232972 90.350706 -79.25976562 90.30664062 C-75.83995199 90.20014124 -72.42006237 90.09813077 -69 90 C-68.814375 88.5459375 -68.814375 88.5459375 -68.625 87.0625 C-68.41875 86.051875 -68.2125 85.04125 -68 84 C-65.65147472 82.82573736 -64.26225935 82.88491827 -61.6484375 82.90234375 C-60.79765625 82.90556641 -59.946875 82.90878906 -59.0703125 82.91210938 C-58.18085938 82.92048828 -57.29140625 82.92886719 -56.375 82.9375 C-55.4778125 82.94201172 -54.580625 82.94652344 -53.65625 82.95117188 C-51.43743352 82.96297409 -49.21874982 82.97943845 -47 83 C-46.34 80.69 -45.68 78.38 -45 76 C-40.38 76 -35.76 76 -31 76 C-31 71.38 -31 66.76 -31 62 C-29.88625 61.814375 -28.7725 61.62875 -27.625 61.4375 C-26.42875 60.963125 -25.2325 60.48875 -24 60 C-22.45913678 56.48599332 -22.45913678 56.48599332 -22 53 C-20.02 53 -18.04 53 -16 53 C-15.67 50.69 -15.34 48.38 -15 46 C-11.535 45.505 -11.535 45.505 -8 45 C-8 32.79 -8 20.58 -8 8 C-5.69 8 -3.38 8 -1 8 C-1.0309375 6.576875 -1.0309375 6.576875 -1.0625 5.125 C-1 2 -1 2 0 0 Z " fill="#4C2827" transform="translate(198,5)"/>
<path d="M0 0 C7.59 0 15.18 0 23 0 C23 5.28 23 10.56 23 16 C25.31 16 27.62 16 30 16 C30 18.31 30 20.62 30 23 C25.38 23 20.76 23 16 23 C16 25.31 16 27.62 16 30 C18.31 30 20.62 30 23 30 C23 45.18 23 60.36 23 76 C20.69 76 18.38 76 16 76 C16.00523682 77.11560303 16.01047363 78.23120605 16.01586914 79.38061523 C16.03391775 83.50479333 16.04543149 87.62896791 16.05493164 91.75317383 C16.05997218 93.54094021 16.06680454 95.32870245 16.07543945 97.11645508 C16.0875173 99.68051168 16.09323094 102.24451397 16.09765625 104.80859375 C16.10281754 105.6127623 16.10797882 106.41693085 16.11329651 107.24546814 C16.11349215 109.16401715 16.06201983 111.08245368 16 113 C15.67 113.33 15.34 113.66 15 114 C12.69 114 10.38 114 8 114 C8 126.54 8 139.08 8 152 C10.31 152 12.62 152 15 152 C15 154.31 15 156.62 15 159 C10.05 159 5.1 159 0 159 C0 141.84 0 124.68 0 107 C-2.64 107.33 -5.28 107.66 -8 108 C-8 105.03 -8 102.06 -8 99 C-10.31 99 -12.62 99 -15 99 C-15 101.31 -15 103.62 -15 106 C-17.64 106 -20.28 106 -23 106 C-23 110.95 -23 115.9 -23 121 C-25.31 121 -27.62 121 -30 121 C-30 131.23 -30 141.46 -30 152 C-27.69 152 -25.38 152 -23 152 C-23 154.31 -23 156.62 -23 159 C-27.62 159 -32.24 159 -37 159 C-37 136.89 -37 114.78 -37 92 C-34.69 92 -32.38 92 -30 92 C-30 89.36 -30 86.72 -30 84 C-26.535 83.505 -26.535 83.505 -23 83 C-23 73.43 -23 63.86 -23 54 C-25.31 53.67 -27.62 53.34 -30 53 C-30 50.69 -30 48.38 -30 46 C-32.31 46 -34.62 46 -37 46 C-37 43.36 -37 40.72 -37 38 C-34.69 38 -32.38 38 -30 38 C-30 33.05 -30 28.1 -30 23 C-27.36 23 -24.72 23 -22 23 C-22 20.36 -22 17.72 -22 15 C-19.69 15 -17.38 15 -15 15 C-15 12.69 -15 10.38 -15 8 C-10.05 7.67 -5.1 7.34 0 7 C0 4.69 0 2.38 0 0 Z " fill="#C57440" transform="translate(205,43)"/>
<path d="M0 0 C4.95 0 9.9 0 15 0 C15.66 2.31 16.32 4.62 17 7 C18.32 7 19.64 7 21 7 C21.33 4.69 21.66 2.38 22 0 C24.64 0 27.28 0 30 0 C30.66 2.31 31.32 4.62 32 7 C33.65 7 35.3 7 37 7 C37 4.69 37 2.38 37 0 C43.15234375 -0.09765625 43.15234375 -0.09765625 45 0 C46 1 46 1 46.0625 4.5625 C46.041875 5.696875 46.02125 6.83125 46 8 C47.98 8 49.96 8 52 8 C51.979375 6.865625 51.95875 5.73125 51.9375 4.5625 C52 1 52 1 53 0 C55.31 0 57.62 0 60 0 C60 20.46 60 40.92 60 62 C57.69 61.67 55.38 61.34 53 61 C52.67 48.79 52.34 36.58 52 24 C40.12 24 28.24 24 16 24 C15.67 26.31 15.34 28.62 15 31 C12.69 31 10.38 31 8 31 C8 38.26 8 45.52 8 53 C10.31 53.33 12.62 53.66 15 54 C15 58.95 15 63.9 15 69 C7.74 69 0.48 69 -7 69 C-7.66 66.69 -8.32 64.38 -9 62 C-10.98 61.67 -12.96 61.34 -15 61 C-16.09857724 54.8323971 -16.11539104 48.81584877 -16.0625 42.5625 C-16.05798828 41.54478516 -16.05347656 40.52707031 -16.04882812 39.47851562 C-16.03712454 36.98565142 -16.01919192 34.4928178 -16 32 C-22.93 31.505 -22.93 31.505 -30 31 C-30 28.69 -30 26.38 -30 24 C-22.74 24 -15.48 24 -8 24 C-8 36.21 -8 48.42 -8 61 C-3.05 61 1.9 61 7 61 C6.505 58.03 6.505 58.03 6 55 C3.03 54.505 3.03 54.505 0 54 C0 46.41 0 38.82 0 31 C2.31 31 4.62 31 7 31 C6.67 26.71 6.34 22.42 6 18 C4.02 17.67 2.04 17.34 0 17 C0 18.98 0 20.96 0 23 C-2.31 23 -4.62 23 -7 23 C-7 20.69 -7 18.38 -7 16 C-4.69 16 -2.38 16 0 16 C0 10.72 0 5.44 0 0 Z " fill="#3F2121" transform="translate(107,141)"/>
<path d="M0 0 C2.97 0 5.94 0 9 0 C9.125 2.375 9.125 2.375 9 5 C7 7 7 7 3.875 7.125 C2.92625 7.08375 1.9775 7.0425 1 7 C1.020625 7.969375 1.04125 8.93875 1.0625 9.9375 C1 13 1 13 0 14 C-2.14558827 14.08775605 -4.29404421 14.10695219 -6.44140625 14.09765625 C-7.61646729 14.09515869 -8.79152832 14.09266113 -10.00219727 14.09008789 C-11.50709717 14.08098389 -13.01199707 14.07187988 -14.5625 14.0625 C-19.326875 14.041875 -24.09125 14.02125 -29 14 C-29 26.21 -29 38.42 -29 51 C-31.31 51.66 -33.62 52.32 -36 53 C-36.33 65.21 -36.66 77.42 -37 90 C-39.31 90 -41.62 90 -44 90 C-44 102.21 -44 114.42 -44 127 C-42.02 127 -40.04 127 -38 127 C-37 128 -37 128 -36.90234375 131.37890625 C-36.90808576 132.77347492 -36.92109772 134.16801597 -36.9375 135.5625 C-36.958125 138.016875 -36.97875 140.47125 -37 143 C-44.26 143 -51.52 143 -59 143 C-59.66 140.69 -60.32 138.38 -61 136 C-62.98 135.67 -64.96 135.34 -67 135 C-67 117.84 -67 100.68 -67 83 C-64.69 83 -62.38 83 -60 83 C-60 100.16 -60 117.32 -60 135 C-55.05 135 -50.1 135 -45 135 C-45 132.69 -45 130.38 -45 128 C-47.31 128 -49.62 128 -52 128 C-52 115.46 -52 102.92 -52 90 C-48.535 89.505 -48.535 89.505 -45 89 C-44.67 76.79 -44.34 64.58 -44 52 C-41.69 52 -39.38 52 -37 52 C-37 39.46 -37 26.92 -37 14 C-34.69 14 -32.38 14 -30 14 C-30 11.36 -30 8.72 -30 6 C-20.43 5.67 -10.86 5.34 -1 5 C-0.67 3.35 -0.34 1.7 0 0 Z " fill="#432322" transform="translate(265,67)"/>
<path d="M0 0 C3.96 0 7.92 0 12 0 C12.33 1.65 12.66 3.3 13 5 C15.31 5.33 17.62 5.66 20 6 C20 8.31 20 10.62 20 13 C22.64 13 25.28 13 28 13 C28.495 16.465 28.495 16.465 29 20 C30.98 20.33 32.96 20.66 35 21 C35 25.62 35 30.24 35 35 C32.69 35 30.38 35 28 35 C28 37.64 28 40.28 28 43 C20.74 43 13.48 43 6 43 C6 45.64 6 48.28 6 51 C3.69 51 1.38 51 -1 51 C-1 58.26 -1 65.52 -1 73 C0.98 73 2.96 73 5 73 C5 75.64 5 78.28 5 81 C0.38 81 -4.24 81 -9 81 C-9 68.46 -9 55.92 -9 43 C-7.02 42.505 -7.02 42.505 -5 42 C-4.67 40.35 -4.34 38.7 -4 37 C-2.515 36.505 -2.515 36.505 -1 36 C-0.67 24.12 -0.34 12.24 0 0 Z " fill="#C5743F" transform="translate(71,121)"/>
<path d="M0 0 C9.57 0 19.14 0 29 0 C29 0.33 29 0.66 29 1 C20.09 1 11.18 1 2 1 C2 2.65 2 4.3 2 6 C10.25 6 18.5 6 27 6 C27 6.66 27 7.32 27 8 C27.99 8 28.98 8 30 8 C30 9.98 30 11.96 30 14 C28.02 14 26.04 14 24 14 C24.02320313 14.56847656 24.04640625 15.13695313 24.0703125 15.72265625 C24.19191688 20.92558648 23.67723492 25.07312243 22 30 C20.02 30 18.04 30 16 30 C15.67 32.31 15.34 34.62 15 37 C9.74894558 37.02464928 4.49792455 37.04283568 -0.75317383 37.05493164 C-2.54094021 37.05997218 -4.32870245 37.06680454 -6.11645508 37.07543945 C-8.68051168 37.0875173 -11.24451397 37.09323094 -13.80859375 37.09765625 C-15.01484657 37.10539818 -15.01484657 37.10539818 -16.24546814 37.11329651 C-18.16401715 37.11349215 -20.08245368 37.06201983 -22 37 C-23 36 -23 36 -23.0625 32.9375 C-23.041875 31.968125 -23.02125 30.99875 -23 30 C-25.31 30 -27.62 30 -30 30 C-30 24.72 -30 19.44 -30 14 C-22.74 14 -15.48 14 -8 14 C-7.67 11.69 -7.34 9.38 -7 7 C-5.02 6.67 -3.04 6.34 -1 6 C-0.67 4.02 -0.34 2.04 0 0 Z " fill="#532E30" transform="translate(31,112)"/>
<path d="M0 0 C14.85 0 29.7 0 45 0 C45 7.59 45 15.18 45 23 C42.69 23.33 40.38 23.66 38 24 C36.48705712 25.93597032 36.48705712 25.93597032 36 28 C36 26.68 36 25.36 36 24 C33.69 24 31.38 24 29 24 C29.020625 24.804375 29.04125 25.60875 29.0625 26.4375 C29 29 29 29 28 30 C25.85441173 30.08775605 23.70595579 30.10695219 21.55859375 30.09765625 C20.25341797 30.09443359 18.94824219 30.09121094 17.60351562 30.08789062 C16.2148431 30.07953401 14.82617123 30.07106905 13.4375 30.0625 C12.04492344 30.05748666 10.65234519 30.05292347 9.25976562 30.04882812 C5.8398013 30.03699434 2.41992156 30.0205088 -1 30 C-1 32.64 -1 35.28 -1 38 C-3.31 38 -5.62 38 -8 38 C-8 35.36 -8 32.72 -8 30 C-10.31 30 -12.62 30 -15 30 C-15 27.69 -15 25.38 -15 23 C-10.38 23 -5.76 23 -1 23 C-1 20.69 -1 18.38 -1 16 C-3.31 16 -5.62 16 -8 16 C-8 15.67 -8 15.34 -8 15 C-5.36 15 -2.72 15 0 15 C0 10.05 0 5.1 0 0 Z " fill="#864037" transform="translate(236,43)"/>
<path d="M0 0 C2.31 0 4.62 0 7 0 C7 9.9 7 19.8 7 30 C4.69 30 2.38 30 0 30 C0 37.59 0 45.18 0 53 C-2.31 53 -4.62 53 -7 53 C-7 55.64 -7 58.28 -7 61 C-11.95 61 -16.9 61 -22 61 C-22 58.36 -22 55.72 -22 53 C-24.64 53 -27.28 53 -30 53 C-30 48.05 -30 43.1 -30 38 C-27.69 38 -25.38 38 -23 38 C-23 33.05 -23 28.1 -23 23 C-20.36 23 -17.72 23 -15 23 C-15 17.72 -15 12.44 -15 7 C-10.38 7 -5.76 7 -1 7 C-0.67 4.69 -0.34 2.38 0 0 Z " fill="#F0B780" transform="translate(220,88)"/>
<path d="M0 0 C14 0 14 0 16 1 C16 2.98 16 4.96 16 7 C17.134375 6.979375 18.26875 6.95875 19.4375 6.9375 C23 7 23 7 24 8 C24.04080783 9.99958364 24.04254356 12.00045254 24 14 C25.7015625 13.9690625 25.7015625 13.9690625 27.4375 13.9375 C31 14 31 14 32 15 C32.04092937 17.33297433 32.04241723 19.66705225 32 22 C33.98 22 35.96 22 38 22 C38 27.28 38 32.56 38 38 C35.69 38 33.38 38 31 38 C31 40.31 31 42.62 31 45 C33.31 45 35.62 45 38 45 C38 43.02 38 41.04 38 39 C39.99954746 38.95745644 42.00041636 38.95919217 44 39 C45 40 45 40 45.09765625 42.94140625 C45.08605469 44.13636719 45.07445312 45.33132812 45.0625 46.5625 C45.05347656 47.76003906 45.04445312 48.95757812 45.03515625 50.19140625 C45.02355469 51.11824219 45.01195312 52.04507813 45 53 C42.69 53 40.38 53 38 53 C38 60.59 38 68.18 38 76 C39.98 76 41.96 76 44 76 C45 77 45 77 45 83 C40.05 83 35.1 83 30 83 C30 70.79 30 58.58 30 46 C22.74 46 15.48 46 8 46 C8 45.67 8 45.34 8 45 C15.26 45 22.52 45 30 45 C30 42.36 30 39.72 30 37 C32.31 37 34.62 37 37 37 C37 32.38 37 27.76 37 23 C35.02 23 33.04 23 31 23 C30 22 30 22 29.9375 18.4375 C29.958125 17.303125 29.97875 16.16875 30 15 C27.36 15 24.72 15 22 15 C22 12.69 22 10.38 22 8 C20.865625 8.020625 19.73125 8.04125 18.5625 8.0625 C15 8 15 8 14 7 C14 5.35 14 3.7 14 2 C10.04 2 6.08 2 2 2 C2 13.88 2 25.76 2 38 C0.02 38.495 0.02 38.495 -2 39 C-2.495 41.475 -2.495 41.475 -3 44 C-4.485 44.495 -4.485 44.495 -6 45 C-6.33 57.54 -6.66 70.08 -7 83 C-2.38 83 2.24 83 7 83 C7 80.36 7 77.72 7 75 C5.02 75 3.04 75 1 75 C1 67.74 1 60.48 1 53 C3.31 53 5.62 53 8 53 C8 60.26 8 67.52 8 75 C11.465 75.495 11.465 75.495 15 76 C15 80.95 15 85.9 15 91 C11.35411831 91.02682987 7.70843154 91.04675569 4.0625 91.0625 C2.50112305 91.07506836 2.50112305 91.07506836 0.90820312 91.08789062 C-0.08115234 91.09111328 -1.07050781 91.09433594 -2.08984375 91.09765625 C-3.46450806 91.10551147 -3.46450806 91.10551147 -4.86694336 91.11352539 C-7 91 -7 91 -8 90 C-8.09340434 88.37325222 -8.11745171 86.74245949 -8.11352539 85.11303711 C-8.11344986 84.07203354 -8.11337433 83.03102997 -8.11329651 81.95848083 C-8.10813522 80.8262056 -8.10297394 79.69393036 -8.09765625 78.52734375 C-8.0962413 77.37456436 -8.09482635 76.22178497 -8.09336853 75.03407288 C-8.08775005 71.33518936 -8.07519442 67.63636536 -8.0625 63.9375 C-8.05748738 61.43684983 -8.05292406 58.93619871 -8.04882812 56.43554688 C-8.03777462 50.29034412 -8.02101852 44.14517631 -8 38 C-6 37 -6 37 0 38 C0 25.46 0 12.92 0 0 Z " fill="#9D6042" transform="translate(69,119)"/>
<path d="M0 0 C2.31 0 4.62 0 7 0 C7.33 2.31 7.66 4.62 8 7 C10.31 7.33 12.62 7.66 15 8 C15.33 17.9 15.66 27.8 16 38 C10.72 38 5.44 38 0 38 C0 42.95 0 47.9 0 53 C-2.64 53 -5.28 53 -8 53 C-8 45.74 -8 38.48 -8 31 C-5.69 31 -3.38 31 -1 31 C-1.01160156 30.41734375 -1.02320313 29.8346875 -1.03515625 29.234375 C-1.10993846 22.43987745 -0.65055041 15.76107745 0 9 C1.65 8.67 3.3 8.34 5 8 C5 6.02 5 4.04 5 2 C3.02 2 1.04 2 -1 2 C-0.67 1.34 -0.34 0.68 0 0 Z " fill="#813F35" transform="translate(236,5)"/>
<path d="M0 0 C2.31 0 4.62 0 7 0 C7 2.64 7 5.28 7 8 C5.7934375 7.9690625 5.7934375 7.9690625 4.5625 7.9375 C2.06645115 7.70366379 2.06645115 7.70366379 1 9 C0.76518307 11.18292774 0.58636677 13.37203174 0.4375 15.5625 C0.35371094 16.76003906 0.26992187 17.95757812 0.18359375 19.19140625 C0.09271484 20.58166016 0.09271484 20.58166016 0 22 C-2.31 22.33 -4.62 22.66 -7 23 C-7 32.57 -7 42.14 -7 52 C-5.02 52 -3.04 52 -1 52 C0 53 0 53 0.09765625 56.37890625 C0.09098369 57.77347077 0.07902532 59.16801743 0.0625 60.5625 C0.05798828 61.27341797 0.05347656 61.98433594 0.04882812 62.71679688 C0.03700864 64.47790013 0.01907263 66.23896036 0 68 C-3.64581687 68.02887512 -7.29160463 68.04675585 -10.9375 68.0625 C-12.49887695 68.07506836 -12.49887695 68.07506836 -14.09179688 68.08789062 C-15.08115234 68.09111328 -16.07050781 68.09433594 -17.08984375 68.09765625 C-18.46450806 68.10551147 -18.46450806 68.10551147 -19.86694336 68.11352539 C-22 68 -22 68 -23 67 C-23 65.02 -23 63.04 -23 61 C-17.72 61 -12.44 61 -7 61 C-7 58.36 -7 55.72 -7 53 C-9.64 53 -12.28 53 -15 53 C-15 42.77 -15 32.54 -15 22 C-12.69 22 -10.38 22 -8 22 C-8 17.05 -8 12.1 -8 7 C-5.36 7 -2.72 7 0 7 C0 4.69 0 2.38 0 0 Z " fill="#3C2221" transform="translate(190,142)"/>
<path d="M0 0 C0.33 0 0.66 0 1 0 C1.0246501 5.10863896 1.04283607 10.21724359 1.05493164 15.32592773 C1.05997204 17.06519168 1.0668043 18.80445136 1.07543945 20.54370117 C1.08751792 23.03825937 1.09323108 25.53276173 1.09765625 28.02734375 C1.10281754 28.80963852 1.10797882 29.59193329 1.11329651 30.39793396 C1.11349226 32.26567114 1.06199694 34.13329204 1 36 C0.67 36.33 0.34 36.66 0 37 C-2.31 37 -4.62 37 -7 37 C-7 49.54 -7 62.08 -7 75 C-4.69 75 -2.38 75 0 75 C0 77.31 0 79.62 0 82 C-4.95 82 -9.9 82 -15 82 C-15 64.84 -15 47.68 -15 30 C-18.96 30.495 -18.96 30.495 -23 31 C-23 28.69 -23 26.38 -23 24 C-22.67 24 -22.34 24 -22 24 C-22 25.65 -22 27.3 -22 29 C-17.05 29 -12.1 29 -7 29 C-7 26.36 -7 23.72 -7 21 C-4.69 21 -2.38 21 0 21 C0 14.07 0 7.14 0 0 Z " fill="#874835" transform="translate(220,120)"/>
<path d="M0 0 C1.98 0 3.96 0 6 0 C6 1.98 6 3.96 6 6 C4.35 6.33 2.7 6.66 1 7 C0.67 9.64 0.34 12.28 0 15 C-2.64 15 -5.28 15 -8 15 C-8 19.95 -8 24.9 -8 30 C-10.31 30.33 -12.62 30.66 -15 31 C-15.33 33.31 -15.66 35.62 -16 38 C-22.435 38.495 -22.435 38.495 -29 39 C-29.66 40.98 -30.32 42.96 -31 45 C-31.66 45 -32.32 45 -33 45 C-33 44.01 -33 43.02 -33 42 C-33.48984375 42.32742187 -33.9796875 42.65484375 -34.484375 42.9921875 C-38.04269563 44.41772589 -41.48203011 44.21154348 -45.25 44.125 C-45.99507812 44.11597656 -46.74015625 44.10695312 -47.5078125 44.09765625 C-49.33868059 44.07418358 -51.16938238 44.03831525 -53 44 C-53 42.02 -53 40.04 -53 38 C-50.65147472 36.82573736 -49.26225935 36.88491827 -46.6484375 36.90234375 C-45.37226563 36.90717773 -45.37226563 36.90717773 -44.0703125 36.91210938 C-43.18085938 36.92048828 -42.29140625 36.92886719 -41.375 36.9375 C-40.4778125 36.94201172 -39.580625 36.94652344 -38.65625 36.95117188 C-36.43743352 36.96297409 -34.21874982 36.97943845 -32 37 C-31.34 34.69 -30.68 32.38 -30 30 C-25.38 30 -20.76 30 -16 30 C-16 25.38 -16 20.76 -16 16 C-14.88625 15.814375 -13.7725 15.62875 -12.625 15.4375 C-11.42875 14.963125 -10.2325 14.48875 -9 14 C-7.45913678 10.48599332 -7.45913678 10.48599332 -7 7 C-5.02 7 -3.04 7 -1 7 C-0.67 4.69 -0.34 2.38 0 0 Z " fill="#4C261E" transform="translate(183,51)"/>
<path d="M0 0 C2.69082872 0.17635452 5.32851446 0.61835921 8 1 C8.33 2.98 8.66 4.96 9 7 C13.29 7 17.58 7 22 7 C22 4.69 22 2.38 22 0 C24.64 0 27.28 0 30 0 C30 2.64 30 5.28 30 8 C27.36 8 24.72 8 22 8 C22 10.64 22 13.28 22 16 C10.12 16 -1.76 16 -14 16 C-14 17.65 -14 19.3 -14 21 C-16.60585556 17.09121666 -16.22321871 13.53878034 -16 9 C-15 8 -15 8 -11.62109375 7.90234375 C-10.22652923 7.90901631 -8.83198257 7.92097468 -7.4375 7.9375 C-6.72658203 7.94201172 -6.01566406 7.94652344 -5.28320312 7.95117188 C-3.52209987 7.96299136 -1.76103964 7.98092737 0 8 C-0.2784375 6.2984375 -0.2784375 6.2984375 -0.5625 4.5625 C-0.706875 3.386875 -0.85125 2.21125 -1 1 C-0.67 0.67 -0.34 0.34 0 0 Z " fill="#B5683D" transform="translate(24,126)"/>
<path d="M0 0 C2.31 0 4.62 0 7 0 C7 7.26 7 14.52 7 22 C9.31 22.33 11.62 22.66 14 23 C14 27.95 14 32.9 14 38 C10.35411831 38.02682987 6.70843154 38.04675569 3.0625 38.0625 C1.50112305 38.07506836 1.50112305 38.07506836 -0.09179688 38.08789062 C-1.08115234 38.09111328 -2.07050781 38.09433594 -3.08984375 38.09765625 C-4.46450806 38.10551147 -4.46450806 38.10551147 -5.86694336 38.11352539 C-8 38 -8 38 -9 37 C-9.04063832 35.33382885 -9.042721 33.66611905 -9 32 C-5.99686252 30.49843126 -3.20932478 30.90718796 0.125 30.9375 C1.40632813 30.94652344 2.68765625 30.95554688 4.0078125 30.96484375 C4.99523437 30.97644531 5.98265625 30.98804688 7 31 C6.67 28.36 6.34 25.72 6 23 C4.02 22.67 2.04 22.34 0 22 C0 14.74 0 7.48 0 0 Z " fill="#492925" transform="translate(70,172)"/>
<path d="M0 0 C1.98 0 3.96 0 6 0 C6 1.98 6 3.96 6 6 C4.68 6.33 3.36 6.66 2 7 C1.34 14.26 0.68 21.52 0 29 C-2.31 29 -4.62 29 -7 29 C-7 31.31 -7 33.62 -7 36 C-11.95 36 -16.9 36 -22 36 C-22 30 -22 30 -21 28 C-16.38 28 -11.76 28 -7 28 C-7 20.74 -7 13.48 -7 6 C-4.69 6 -2.38 6 0 6 C0 4.02 0 2.04 0 0 Z " fill="#472523" transform="translate(235,7)"/>
<path d="M0 0 C2.31 0 4.62 0 7 0 C7 10.23 7 20.46 7 31 C9.31 31 11.62 31 14 31 C14 33.31 14 35.62 14 38 C9.38 38 4.76 38 0 38 C0 25.46 0 12.92 0 0 Z " fill="#DAA575" transform="translate(62,164)"/>
<path d="M0 0 C1.98 0 3.96 0 6 0 C7.43509221 2.87018441 7.11158506 5.33543723 7.09765625 8.5390625 C7.09443359 9.84101563 7.09121094 11.14296875 7.08789062 12.484375 C7.07953466 13.86458399 7.07106971 15.24479232 7.0625 16.625 C7.05748501 18.01301926 7.0529221 19.40104022 7.04882812 20.7890625 C7.03700976 24.19275132 7.02053434 27.59635439 7 31 C9.31 31 11.62 31 14 31 C14 33.31 14 35.62 14 38 C9.38 38 4.76 38 0 38 C0 25.46 0 12.92 0 0 Z " fill="#E4AF7C" transform="translate(168,164)"/>
<path d="M0 0 C2.31 0 4.62 0 7 0 C7 7.26 7 14.52 7 22 C9.97 22 12.94 22 16 22 C15.67 24.31 15.34 26.62 15 29 C12.36 29 9.72 29 7 29 C7 31.31 7 33.62 7 36 C4.69 36 2.38 36 0 36 C0 24.12 0 12.24 0 0 Z " fill="#833F37" transform="translate(198,14)"/>
<path d="M0 0 C2.31 0 4.62 0 7 0 C7 9.9 7 19.8 7 30 C8.98 30 10.96 30 13 30 C14 31 14 31 14 37 C9.38 37 4.76 37 0 37 C0 24.79 0 12.58 0 0 Z " fill="#C0703E" transform="translate(100,165)"/>
<path d="M0 0 C6.6 0 13.2 0 20 0 C20 11.88 20 23.76 20 36 C18.02 36 16.04 36 14 36 C12.90142276 29.8323971 12.88460896 23.81584877 12.9375 17.5625 C12.94201172 16.54478516 12.94652344 15.52707031 12.95117188 14.47851562 C12.96287546 11.98565142 12.98080808 9.4928178 13 7 C8.71 6.67 4.42 6.34 0 6 C0 4.02 0 2.04 0 0 Z " fill="#3C2022" transform="translate(78,166)"/>
<path d="M0 0 C9.24 0 18.48 0 28 0 C28.4375 8.8125 28.4375 8.8125 28.56811523 11.57739258 C28.6252771 12.66250122 28.6252771 12.66250122 28.68359375 13.76953125 C28.72025146 14.50792236 28.75690918 15.24631348 28.79467773 16.00708008 C28.94842141 18.207495 28.94842141 18.207495 30 21 C27.69 21 25.38 21 23 21 C22.67 18.69 22.34 16.38 22 14 C19.69 13.67 17.38 13.34 15 13 C15 10.36 15 7.72 15 5 C10.05 5 5.1 5 0 5 C0 3.35 0 1.7 0 0 Z " fill="#3D2021" transform="translate(251,45)"/>
<path d="M0 0 C1.98 0 3.96 0 6 0 C6.33 9.57 6.66 19.14 7 29 C9.31 29.33 11.62 29.66 14 30 C14 32.31 14 34.62 14 37 C9.38 37 4.76 37 0 37 C0 24.79 0 12.58 0 0 Z " fill="#C4733E" transform="translate(206,165)"/>
<path d="M0 0 C4.95 0 9.9 0 15 0 C15.66 2.31 16.32 4.62 17 7 C18.32 7 19.64 7 21 7 C21.33 4.69 21.66 2.38 22 0 C24.64 0 27.28 0 30 0 C30.66 2.31 31.32 4.62 32 7 C33.65 7 35.3 7 37 7 C37 4.69 37 2.38 37 0 C43.15234375 -0.09765625 43.15234375 -0.09765625 45 0 C46 1 46 1 46.0625 4.5625 C46.041875 5.696875 46.02125 6.83125 46 8 C47.98 8 49.96 8 52 8 C51.979375 6.865625 51.95875 5.73125 51.9375 4.5625 C52 1 52 1 53 0 C55.33297433 -0.04092937 57.66705225 -0.04241723 60 0 C60 0.66 60 1.32 60 2 C58.02 2 56.04 2 54 2 C54.020625 2.969375 54.04125 3.93875 54.0625 4.9375 C54 8 54 8 53 9 C50.32941149 9.14115161 47.67567762 9.04247107 45 9 C44.505 5.535 44.505 5.535 44 2 C42.02 1.67 40.04 1.34 38 1 C38 3.64 38 6.28 38 9 C35.36 9 32.72 9 30 9 C29.7525 8.030625 29.505 7.06125 29.25 6.0625 C28.8375 5.051875 28.425 4.04125 28 3 C25.96756452 2.03122943 25.96756452 2.03122943 24 2 C24 4.31 24 6.62 24 9 C17.84765625 9.87890625 17.84765625 9.87890625 16 10 C15 9 15 9 14.9375 5.4375 C14.958125 4.303125 14.97875 3.16875 15 2 C10.71 2 6.42 2 2 2 C2 6.29 2 10.58 2 15 C3.65 15 5.3 15 7 15 C8 16 8 16 8.09765625 19.16015625 C8.08605469 20.44792969 8.07445313 21.73570312 8.0625 23.0625 C8.05347656 24.35285156 8.04445313 25.64320313 8.03515625 26.97265625 C8.02355469 27.97167969 8.01195313 28.97070312 8 30 C7.67 30 7.34 30 7 30 C6.67 26.04 6.34 22.08 6 18 C4.02 17.67 2.04 17.34 0 17 C0 18.98 0 20.96 0 23 C-2.31 23 -4.62 23 -7 23 C-7 20.69 -7 18.38 -7 16 C-4.69 16 -2.38 16 0 16 C0 10.72 0 5.44 0 0 Z " fill="#5B2D28" transform="translate(107,141)"/>
<path d="M0 0 C2.31 0 4.62 0 7 0 C7 12.21 7 24.42 7 37 C4.69 37 2.38 37 0 37 C0 24.79 0 12.58 0 0 Z " fill="#3E2020" transform="translate(190,13)"/>
<path d="M0 0 C5.39346988 -0.02464849 10.78690725 -0.04283531 16.18041992 -0.05493164 C18.01668875 -0.05997231 19.85295354 -0.06680477 21.68920898 -0.07543945 C24.32276401 -0.08751672 26.95626616 -0.09323081 29.58984375 -0.09765625 C30.41588608 -0.10281754 31.24192841 -0.10797882 32.09300232 -0.11329651 C34.06236368 -0.11349205 36.03161614 -0.06204152 38 0 C40.04698414 2.04698414 39.70045693 6.30411241 40 9 C40.66 9 41.32 9 42 9 C42 8.01 42 7.02 42 6 C42.99 6 43.98 6 45 6 C45 17.22 45 28.44 45 40 C42.69 39.67 40.38 39.34 38 39 C37.67 26.79 37.34 14.58 37 2 C25.12 2 13.24 2 1 2 C0.67 4.31 0.34 6.62 0 9 C-1.98 9 -3.96 9 -6 9 C-5.38125 8.814375 -4.7625 8.62875 -4.125 8.4375 C-0.96740043 6.30147676 -0.91086102 3.58189943 0 0 Z " fill="#331818" transform="translate(122,163)"/>
<path d="M0 0 C2.31 0.33 4.62 0.66 7 1 C7.02465098 5.96622349 7.04283649 10.93241166 7.05493164 15.89868164 C7.0599719 17.58944316 7.06680405 19.28020029 7.07543945 20.97094727 C7.08751857 23.39600707 7.09323123 25.82100944 7.09765625 28.24609375 C7.10281754 29.00651474 7.10797882 29.76693573 7.11329651 30.55039978 C7.11349238 32.3673257 7.06197277 34.18413127 7 36 C6.505 36.495 6.505 36.495 6 37 C4.02 37 2.04 37 0 37 C0 24.79 0 12.58 0 0 Z " fill="#3E2223" transform="translate(229,82)"/>
<path d="M0 0 C0.33 9.9 0.66 19.8 1 30 C-1.97 30 -4.94 30 -8 30 C-8 20.43 -8 10.86 -8 1 C-3 0 -3 0 0 0 Z " fill="#3C2020" transform="translate(251,13)"/>
<path d="M0 0 C12.87 0 25.74 0 39 0 C38.67 1.98 38.34 3.96 38 6 C32.74894558 6.02464928 27.49792455 6.04283568 22.24682617 6.05493164 C20.45905979 6.05997218 18.67129755 6.06680454 16.88354492 6.07543945 C14.31948832 6.0875173 11.75548603 6.09323094 9.19140625 6.09765625 C7.98515343 6.10539818 7.98515343 6.10539818 6.75453186 6.11329651 C4.83598285 6.11349215 2.91754632 6.06201983 1 6 C0.67 5.67 0.34 5.34 0 5 C0 3.35 0 1.7 0 0 Z " fill="#3C1F21" transform="translate(8,143)"/>
<path d="M0 0 C2.31 0 4.62 0 7 0 C7 2.64 7 5.28 7 8 C5.7934375 7.9690625 5.7934375 7.9690625 4.5625 7.9375 C2.06645115 7.70366379 2.06645115 7.70366379 1 9 C0.71530684 12.36209065 0.55104937 15.72414001 0.37890625 19.09375 C0.25386719 20.0528125 0.12882813 21.011875 0 22 C-4.18462795 24.09231398 -9.32144372 23 -14 23 C-14 32.57 -14 42.14 -14 52 C-12.02 52 -10.04 52 -8 52 C-8 52.33 -8 52.66 -8 53 C-10.31 53 -12.62 53 -15 53 C-15 42.77 -15 32.54 -15 22 C-12.69 22 -10.38 22 -8 22 C-8 17.05 -8 12.1 -8 7 C-5.36 7 -2.72 7 0 7 C0 4.69 0 2.38 0 0 Z " fill="#774731" transform="translate(190,142)"/>
<path d="M0 0 C8.25 0 16.5 0 25 0 C20 5 20 5 17.76171875 5.48828125 C15.84114583 5.32552083 13.92057292 5.16276042 12 5 C12 7.31 12 9.62 12 12 C7.71 12 3.42 12 -1 12 C-1.33 10.02 -1.66 8.04 -2 6 C-4.31 6 -6.62 6 -9 6 C-9 5.67 -9 5.34 -9 5 C-6.36 5 -3.72 5 -1 5 C-0.67 3.35 -0.34 1.7 0 0 Z " fill="#883F36" transform="translate(34,121)"/>
<path d="M0 0 C2.475 0.495 2.475 0.495 5 1 C5 5.95 5 10.9 5 16 C1.35411831 16.02682987 -2.29156846 16.04675569 -5.9375 16.0625 C-7.49887695 16.07506836 -7.49887695 16.07506836 -9.09179688 16.08789062 C-10.08115234 16.09111328 -11.07050781 16.09433594 -12.08984375 16.09765625 C-13.46450806 16.10551147 -13.46450806 16.10551147 -14.86694336 16.11352539 C-17 16 -17 16 -18 15 C-18.04080783 13.00041636 -18.04254356 10.99954746 -18 9 C-17.67 9 -17.34 9 -17 9 C-17 10.65 -17 12.3 -17 14 C-16.34 14 -15.68 14 -15 14 C-14.34 12.68 -13.68 11.36 -13 10 C-9.37 10 -5.74 10 -2 10 C-2 7.36 -2 4.72 -2 2 C-1.34 2 -0.68 2 0 2 C0 1.34 0 0.68 0 0 Z " fill="#381C1E" transform="translate(223,194)"/>
<path d="M0 0 C1.06283203 -0.00128906 2.12566406 -0.00257812 3.22070312 -0.00390625 C4.33509766 -0.00003906 5.44949219 0.00382812 6.59765625 0.0078125 C7.70818359 0.00394531 8.81871094 0.00007813 9.96289062 -0.00390625 C11.55907227 -0.00197266 11.55907227 -0.00197266 13.1875 0 C14.65304321 0.00169189 14.65304321 0.00169189 16.14819336 0.00341797 C18.66015625 0.1328125 18.66015625 0.1328125 21.66015625 1.1328125 C21.66015625 3.1128125 21.66015625 5.0928125 21.66015625 7.1328125 C19.68015625 7.1328125 17.70015625 7.1328125 15.66015625 7.1328125 C15.68335938 7.70128906 15.7065625 8.26976563 15.73046875 8.85546875 C15.85207313 14.05839898 15.33739117 18.20593493 13.66015625 23.1328125 C8.70673359 24.12831956 4.00504934 24.26378653 -1.01953125 24.23046875 C-1.83229523 24.2290538 -2.6450592 24.22763885 -3.48245239 24.22618103 C-6.05995476 24.22061585 -8.63736795 24.2080699 -11.21484375 24.1953125 C-12.97005082 24.190293 -14.72525927 24.18573088 -16.48046875 24.18164062 C-20.76696107 24.17065784 -25.05338732 24.15341742 -29.33984375 24.1328125 C-29.33984375 23.8028125 -29.33984375 23.4728125 -29.33984375 23.1328125 C-17.45984375 23.1328125 -5.57984375 23.1328125 6.66015625 23.1328125 C6.66015625 20.4928125 6.66015625 17.8528125 6.66015625 15.1328125 C9.30015625 15.1328125 11.94015625 15.1328125 14.66015625 15.1328125 C14.61375 14.51792969 14.56734375 13.90304688 14.51953125 13.26953125 C14.46539062 12.05716797 14.46539062 12.05716797 14.41015625 10.8203125 C14.36375 10.01980469 14.31734375 9.21929687 14.26953125 8.39453125 C14.66015625 6.1328125 14.66015625 6.1328125 18.66015625 3.1328125 C10.74015625 2.8028125 2.82015625 2.4728125 -5.33984375 2.1328125 C-5.66984375 3.7828125 -5.99984375 5.4328125 -6.33984375 7.1328125 C-6.99984375 6.8028125 -7.65984375 6.4728125 -8.33984375 6.1328125 C-7.96484375 3.6953125 -7.96484375 3.6953125 -7.33984375 1.1328125 C-4.76089807 -0.15666034 -2.88462485 0.003334 0 0 Z " fill="#733B30" transform="translate(39.33984375,118.8671875)"/>
<path d="M0 0 C9.57 0 19.14 0 29 0 C29.33 2.64 29.66 5.28 30 8 C31.98 8 33.96 8 36 8 C36 8.33 36 8.66 36 9 C32.7 9 29.4 9 26 9 C26 8.34 26 7.68 26 7 C17.75 7 9.5 7 1 7 C1 5.35 1 3.7 1 2 C0.67 1.34 0.34 0.68 0 0 Z " fill="#3C1E20" transform="translate(32,111)"/>
<path d="M0 0 C9.9 0 19.8 0 30 0 C30 1.65 30 3.3 30 5 C29 6 29 6 26.22436523 6.11352539 C25.01466064 6.10828857 23.80495605 6.10305176 22.55859375 6.09765625 C21.25341797 6.09443359 19.94824219 6.09121094 18.60351562 6.08789062 C17.2148431 6.07953401 15.82617123 6.07106905 14.4375 6.0625 C13.04492344 6.05748666 11.65234519 6.05292347 10.25976562 6.04882812 C6.8398013 6.03699434 3.41992156 6.0205088 0 6 C0 4.02 0 2.04 0 0 Z " fill="#391C1D" transform="translate(236,75)"/>
<path d="M0 0 C6.93 0 13.86 0 21 0 C21 1.98 21 3.96 21 6 C16.05 6.33 11.1 6.66 6 7 C5.67 9.31 5.34 11.62 5 14 C2.69 14 0.38 14 -2 14 C-2 13.34 -2 12.68 -2 12 C-1.34 12 -0.68 12 0 12 C0 8.04 0 4.08 0 0 Z " fill="#412321" transform="translate(3,128)"/>
<path d="M0 0 C1.99954746 -0.04254356 4.00041636 -0.04080783 6 0 C7 1 7 1 7.09765625 3.94140625 C7.08605469 5.13636719 7.07445312 6.33132812 7.0625 7.5625 C7.05347656 8.76003906 7.04445312 9.95757812 7.03515625 11.19140625 C7.02355469 12.11824219 7.01195312 13.04507813 7 14 C4.69 14 2.38 14 0 14 C0 11.69 0 9.38 0 7 C-2.31 7 -4.62 7 -7 7 C-7 19.21 -7 31.42 -7 44 C-7.33 44 -7.66 44 -8 44 C-8 31.79 -8 19.58 -8 7 C-15.26 7 -22.52 7 -30 7 C-30 6.67 -30 6.34 -30 6 C-22.74 6 -15.48 6 -8 6 C-8 4.35 -8 2.7 -8 1 C-7.67 1 -7.34 1 -7 1 C-7 2.65 -7 4.3 -7 6 C-4.69 6 -2.38 6 0 6 C0 4.02 0 2.04 0 0 Z " fill="#834634" transform="translate(107,158)"/>
<path d="M0 0 C0.99 0.33 1.98 0.66 3 1 C3 5.95 3 10.9 3 16 C-0.64588169 16.02682987 -4.29156846 16.04675569 -7.9375 16.0625 C-9.49887695 16.07506836 -9.49887695 16.07506836 -11.09179688 16.08789062 C-12.08115234 16.09111328 -13.07050781 16.09433594 -14.08984375 16.09765625 C-15.46450806 16.10551147 -15.46450806 16.10551147 -16.86694336 16.11352539 C-19 16 -19 16 -20 15 C-20.04063832 13.33382885 -20.042721 11.66611905 -20 10 C-17.36 10 -14.72 10 -12 10 C-12.99 10.495 -12.99 10.495 -14 11 C-14 11.99 -14 12.98 -14 14 C-13.34 14 -12.68 14 -12 14 C-11.67 13.01 -11.34 12.02 -11 11 C-9.2984375 10.7834375 -9.2984375 10.7834375 -7.5625 10.5625 C-4.19222799 10.38828522 -4.19222799 10.38828522 -3 9 C-2.855625 7.865625 -2.71125 6.73125 -2.5625 5.5625 C-2 2 -2 2 0 0 Z " fill="#341919" transform="translate(81,194)"/>
<path d="M0 0 C4.29 0 8.58 0 13 0 C13 0.33 13 0.66 13 1 C7.06 1.495 7.06 1.495 1 2 C0.34 6.29 -0.32 10.58 -1 15 C-1.66 15 -2.32 15 -3 15 C-3 14.01 -3 13.02 -3 12 C-3.48984375 12.32742187 -3.9796875 12.65484375 -4.484375 12.9921875 C-8.04269563 14.41772589 -11.48203011 14.21154348 -15.25 14.125 C-15.99507812 14.11597656 -16.74015625 14.10695313 -17.5078125 14.09765625 C-19.33868059 14.07418358 -21.16938238 14.03831525 -23 14 C-23 12.02 -23 10.04 -23 8 C-20.65147472 6.82573736 -19.26225935 6.88491827 -16.6484375 6.90234375 C-15.37226563 6.90717773 -15.37226563 6.90717773 -14.0703125 6.91210938 C-13.18085938 6.92048828 -12.29140625 6.92886719 -11.375 6.9375 C-10.4778125 6.94201172 -9.580625 6.94652344 -8.65625 6.95117188 C-6.43743352 6.96297409 -4.21874982 6.97943845 -2 7 C-1.34 4.69 -0.68 2.38 0 0 Z " fill="#331718" transform="translate(153,81)"/>
<path d="M0 0 C1.98 0 3.96 0 6 0 C6 7.26 6 14.52 6 22 C7.32 22.33 8.64 22.66 10 23 C9.67 25.31 9.34 27.62 9 30 C8.34 30 7.68 30 7 30 C6.67 28.02 6.34 26.04 6 24 C4.02 23.67 2.04 23.34 0 23 C0 15.41 0 7.82 0 0 Z " fill="#442322" transform="translate(107,172)"/>
<path d="M0 0 C6.93 0.495 6.93 0.495 14 1 C14 3.31 14 5.62 14 8 C11.69 8 9.38 8 7 8 C7 10.31 7 12.62 7 15 C4.69 15 2.38 15 0 15 C0 10.05 0 5.1 0 0 Z " fill="#C47545" transform="translate(236,43)"/>
<path d="M0 0 C11.68031211 -0.22607056 23.33677472 0.44263184 35 1 C35.495 2.98 35.495 2.98 36 5 C24.12 5 12.24 5 0 5 C0 3.35 0 1.7 0 0 Z " fill="#C77641" transform="translate(10,136)"/>
<path d="M0 0 C2.31 0 4.62 0 7 0 C7 0.33 7 0.66 7 1 C5.02 1 3.04 1 1 1 C1.020625 2.11375 1.04125 3.2275 1.0625 4.375 C1 8 1 8 0 10 C-4.62 10 -9.24 10 -14 10 C-13.979375 12.289375 -13.95875 14.57875 -13.9375 16.9375 C-13.91629132 19.29166332 -13.92728259 21.64686445 -14 24 C-15 25 -15 25 -18.5625 25.0625 C-19.696875 25.041875 -20.83125 25.02125 -22 25 C-21.91621094 25.99902344 -21.83242187 26.99804688 -21.74609375 28.02734375 C-21.64425781 29.31769531 -21.54242188 30.60804687 -21.4375 31.9375 C-21.33308594 33.22527344 -21.22867188 34.51304688 -21.12109375 35.83984375 C-21.08113281 36.88269531 -21.04117188 37.92554688 -21 39 C-22 40 -22 40 -25.5625 40.0625 C-26.696875 40.041875 -27.83125 40.02125 -29 40 C-28.67 44.29 -28.34 48.58 -28 53 C-28.66 53 -29.32 53 -30 53 C-30 48.05 -30 43.1 -30 38 C-27.69 38 -25.38 38 -23 38 C-23 33.05 -23 28.1 -23 23 C-20.36 23 -17.72 23 -15 23 C-15 17.72 -15 12.44 -15 7 C-10.38 7 -5.76 7 -1 7 C-0.67 4.69 -0.34 2.38 0 0 Z " fill="#E5A16B" transform="translate(220,88)"/>
<path d="M0 0 C1.98 0 3.96 0 6 0 C5.67 8.91 5.34 17.82 5 27 C4.34 27 3.68 27 3 27 C2.67 25.68 2.34 24.36 2 23 C1.67 25.64 1.34 28.28 1 31 C0.67 31 0.34 31 0 31 C0 20.77 0 10.54 0 0 Z " fill="#F1B880" transform="translate(63,165)"/>
<path d="M0 0 C2.31 0.33 4.62 0.66 7 1 C7.12910853 7.74233419 6.797837 14.30386804 6 21 C4.02 21 2.04 21 0 21 C0 14.07 0 7.14 0 0 Z " fill="#3E2123" transform="translate(228,14)"/>
<path d="M0 0 C0.33 0 0.66 0 1 0 C1 7.26 1 14.52 1 22 C-1.31 22 -3.62 22 -6 22 C-6 15.4 -6 8.8 -6 2 C-4.35 2 -2.7 2 -1 2 C-0.67 1.34 -0.34 0.68 0 0 Z " fill="#3B1D1E" transform="translate(212,13)"/>
<path d="M0 0 C8.91 0 17.82 0 27 0 C27 1.32 27 2.64 27 4 C18.02243049 5.3300103 9.05168034 5.08788039 0 5 C0 3.35 0 1.7 0 0 Z " fill="#3C1F22" transform="translate(101,98)"/>
<path d="M0 0 C1.98 0 3.96 0 6 0 C6 11.55 6 23.1 6 35 C4.35 35 2.7 35 1 35 C2.98 34.505 2.98 34.505 5 34 C4.67 24.43 4.34 14.86 4 5 C3.34 5 2.68 5 2 5 C1.67 7.31 1.34 9.62 1 12 C-0.32 12 -1.64 12 -3 12 C-3 11.34 -3 10.68 -3 10 C-3.99 10.495 -3.99 10.495 -5 11 C-5 11.66 -5 12.32 -5 13 C-5.66 13 -6.32 13 -7 13 C-7 10.69 -7 8.38 -7 6 C-4.69 6 -2.38 6 0 6 C0 4.02 0 2.04 0 0 Z " fill="#42211E" transform="translate(62,121)"/>
<path d="M0 0 C2.97 0.495 2.97 0.495 6 1 C6 5.95 6 10.9 6 16 C-1.26 16 -8.52 16 -16 16 C-16 15.67 -16 15.34 -16 15 C-11.05 14.67 -6.1 14.34 -1 14 C-0.67 9.38 -0.34 4.76 0 0 Z " fill="#38191C" transform="translate(116,194)"/>
<path d="M0 0 C0.495 0.99 0.495 0.99 1 2 C3.25028329 1.85860519 5.50022206 1.71171997 7.75 1.5625 C9.00296875 1.48128906 10.2559375 1.40007812 11.546875 1.31640625 C14.18317553 1.07484478 16.48037294 0.75716066 19 0 C19 0.99 19 1.98 19 3 C9.1 3.495 9.1 3.495 -1 4 C-1.33 5.98 -1.66 7.96 -2 10 C-5.3 10 -8.6 10 -12 10 C-12 9.67 -12 9.34 -12 9 C-9.03 9 -6.06 9 -3 9 C-3 7.68 -3 6.36 -3 5 C-12.24 5 -21.48 5 -31 5 C-31 6.98 -31 8.96 -31 11 C-31.33 11 -31.66 11 -32 11 C-32.04241723 8.66705225 -32.04092937 6.33297433 -32 4 C-30.08780415 2.08780415 -26.66354496 2.75564702 -24.12109375 2.68359375 C-23.09110008 2.6524221 -23.09110008 2.6524221 -22.04029846 2.62062073 C-19.83947065 2.55505857 -17.63852025 2.49620985 -15.4375 2.4375 C-13.94855486 2.39432108 -12.45962227 2.350707 -10.97070312 2.30664062 C-7.31393447 2.1993707 -3.65702682 2.09812228 0 2 C0 1.34 0 0.68 0 0 Z " fill="#46282B" transform="translate(131,93)"/>
<path d="M0 0 C1.98 0 3.96 0 6 0 C7 1 7 1 7.09765625 4.16015625 C7.08605469 5.44792969 7.07445312 6.73570313 7.0625 8.0625 C7.05347656 9.35285156 7.04445312 10.64320312 7.03515625 11.97265625 C7.02355469 12.97167969 7.01195312 13.97070312 7 15 C4.69 15 2.38 15 0 15 C0 10.05 0 5.1 0 0 Z " fill="#482622" transform="translate(228,43)"/>
<path d="M0 0 C0.33 9.9 0.66 19.8 1 30 C-1.97 30 -4.94 30 -8 30 C-8 20.43 -8 10.86 -8 1 C-3 0 -3 0 0 0 Z M-7 2 C-7.05784708 6.12494151 -7.09354407 10.24977944 -7.125 14.375 C-7.14175781 15.550625 -7.15851563 16.72625 -7.17578125 17.9375 C-7.18222656 19.05898438 -7.18867188 20.18046875 -7.1953125 21.3359375 C-7.20578613 22.37282715 -7.21625977 23.4097168 -7.22705078 24.47802734 C-7.25615026 27.17108623 -7.25615026 27.17108623 -5 29 C-4.01 29 -3.02 29 -2 29 C-2 20.09 -2 11.18 -2 2 C-3.65 2 -5.3 2 -7 2 Z " fill="#3F2523" transform="translate(251,13)"/>
<path d="M0 0 C2.64 0 5.28 0 8 0 C7.67 4.62 7.34 9.24 7 14 C5.02 14.33 3.04 14.66 1 15 C-0.44207941 12.11584117 -0.09394887 9.58278472 -0.0625 6.375 C-0.05347656 5.18648437 -0.04445312 3.99796875 -0.03515625 2.7734375 C-0.02355469 1.85820312 -0.01195312 0.94296875 0 0 Z " fill="#3D1D1C" transform="translate(183,150)"/>
<path d="M0 0 C-0.33 2.31 -0.66 4.62 -1 7 C-1.91523438 7.06058594 -2.83046875 7.12117188 -3.7734375 7.18359375 C-4.96195313 7.26738281 -6.15046875 7.35117188 -7.375 7.4375 C-9.15003906 7.55931641 -9.15003906 7.55931641 -10.9609375 7.68359375 C-13.91518901 7.81084936 -13.91518901 7.81084936 -16 9 C-15.125 1.125 -15.125 1.125 -14 0 C-12.02715358 -0.26149658 -10.04574333 -0.45992624 -8.0625 -0.625 C-6.98097656 -0.72039062 -5.89945313 -0.81578125 -4.78515625 -0.9140625 C-2 -1 -2 -1 0 0 Z " fill="#452625" transform="translate(168,82)"/>
<path d="M0 0 C4.62 0 9.24 0 14 0 C14.33 2.31 14.66 4.62 15 7 C10.05 7 5.1 7 0 7 C0 4.69 0 2.38 0 0 Z " fill="#3D1E20" transform="translate(84,104)"/>
<path d="M0 0 C2.97 0.495 2.97 0.495 6 1 C6 5.29 6 9.58 6 14 C3.69 14.33 1.38 14.66 -1 15 C-1.02685412 12.68756208 -1.04632841 10.3750373 -1.0625 8.0625 C-1.07410156 6.77472656 -1.08570313 5.48695312 -1.09765625 4.16015625 C-1 1 -1 1 0 0 Z " fill="#41221F" transform="translate(168,66)"/>
<path d="M0 0 C9.57 0 19.14 0 29 0 C29.04125 3.25875 29.0825 6.5175 29.125 9.875 C29.14320801 10.90093262 29.16141602 11.92686523 29.18017578 12.98388672 C29.1851709 13.79100098 29.19016602 14.59811523 29.1953125 15.4296875 C29.20578613 16.25710449 29.21625977 17.08452148 29.22705078 17.93701172 C29 20 29 20 27 22 C27 15.4 27 8.8 27 2 C18.09 2 9.18 2 0 2 C0 1.34 0 0.68 0 0 Z " fill="#503739" transform="translate(252,43)"/>
<path d="M0 0 C2.64 0 5.28 0 8 0 C8.66 2.31 9.32 4.62 10 7 C11.65 7 13.3 7 15 7 C15 4.69 15 2.38 15 0 C21.15234375 -0.09765625 21.15234375 -0.09765625 23 0 C24 1 24 1 24.0625 4.5625 C24.041875 5.696875 24.02125 6.83125 24 8 C25.98 8 27.96 8 30 8 C29.9690625 6.2984375 29.9690625 6.2984375 29.9375 4.5625 C30 1 30 1 31 0 C33.33297433 -0.04092937 35.66705225 -0.04241723 38 0 C38 0.66 38 1.32 38 2 C36.02 2 34.04 2 32 2 C32.020625 2.969375 32.04125 3.93875 32.0625 4.9375 C32 8 32 8 31 9 C28.32941149 9.14115161 25.67567762 9.04247107 23 9 C22.67 6.69 22.34 4.38 22 2 C19.03 1.505 19.03 1.505 16 1 C16 3.64 16 6.28 16 9 C13.36 9 10.72 9 8 9 C7.67 6.69 7.34 4.38 7 2 C4.03 1.505 4.03 1.505 1 1 C1 3.31 1 5.62 1 8 C0.34 7.67 -0.32 7.34 -1 7 C-0.67 4.69 -0.34 2.38 0 0 Z " fill="#66322C" transform="translate(129,141)"/>
<path d="M0 0 C0.33 0.99 0.66 1.98 1 3 C1.66 3 2.32 3 3 3 C3 2.01 3 1.02 3 0 C7.29 0 11.58 0 16 0 C15.34 1.65 14.68 3.3 14 5 C18.455 4.505 18.455 4.505 23 4 C23 4.66 23 5.32 23 6 C19.35418313 6.02887512 15.70839537 6.04675585 12.0625 6.0625 C10.50112305 6.07506836 10.50112305 6.07506836 8.90820312 6.08789062 C7.91884766 6.09111328 6.92949219 6.09433594 5.91015625 6.09765625 C4.53549194 6.10551147 4.53549194 6.10551147 3.13305664 6.11352539 C1 6 1 6 0 5 C-0.04063832 3.33382885 -0.042721 1.66611905 0 0 Z " fill="#361A1E" transform="translate(167,204)"/>
<path d="M0 0 C0 6.93 0 13.86 0 21 C-0.66 20.67 -1.32 20.34 -2 20 C-2.625 16.9375 -2.625 16.9375 -3 14 C-3.66 14 -4.32 14 -5 14 C-5.8723412 11.00519083 -6.10829766 8.36424089 -6.0625 5.25 C-6.05347656 4.45078125 -6.04445313 3.6515625 -6.03515625 2.828125 C-6.02355469 2.22484375 -6.01195313 1.6215625 -6 1 C-3.92446352 0.4465236 -2.15634036 0 0 0 Z " fill="#341717" transform="translate(77,172)"/>
<path d="M0 0 C4.95 0 9.9 0 15 0 C15 2.64 15 5.28 15 8 C14.34 8 13.68 8 13 8 C13 7.01 13 6.02 13 5 C9.37 5 5.74 5 2 5 C2 5.66 2 6.32 2 7 C1.34 7 0.68 7 0 7 C0 4.69 0 2.38 0 0 Z " fill="#743734" transform="translate(251,50)"/>
<path d="M0 0 C2.31 0 4.62 0 7 0 C7 0.66 7 1.32 7 2 C5.35 2 3.7 2 2 2 C2 13.55 2 25.1 2 37 C1.34 37 0.68 37 0 37 C0 24.79 0 12.58 0 0 Z " fill="#32181C" transform="translate(190,13)"/>
<path d="M0 0 C2.31 0 4.62 0 7 0 C6.67 2.97 6.34 5.94 6 9 C5.67 8.01 5.34 7.02 5 6 C4.34644531 6.65484375 3.69289062 7.3096875 3.01953125 7.984375 C-0.9439577 10.63011924 -3.67961523 10.46529045 -8.3125 10.25 C-9.42334961 10.22292969 -9.42334961 10.22292969 -10.55664062 10.1953125 C-12.3716571 10.14847337 -14.18600166 10.07673789 -16 10 C-16 7.69 -16 5.38 -16 3 C-15.67 3 -15.34 3 -15 3 C-15 4.65 -15 6.3 -15 8 C-10.05 8 -5.1 8 0 8 C0 5.36 0 2.72 0 0 Z " fill="#915640" transform="translate(213,141)"/>
<path d="M0 0 C0.99 0.33 1.98 0.66 3 1 C3 2.65 3 4.3 3 6 C3.66 6 4.32 6 5 6 C5 6.66 5 7.32 5 8 C4.34 8 3.68 8 3 8 C3 10.64 3 13.28 3 16 C1.84371094 16.05607422 1.84371094 16.05607422 0.6640625 16.11328125 C-0.84027344 16.21189453 -0.84027344 16.21189453 -2.375 16.3125 C-3.37273437 16.37050781 -4.37046875 16.42851562 -5.3984375 16.48828125 C-6.25695312 16.65714844 -7.11546875 16.82601562 -8 17 C-8.66 17.99 -9.32 18.98 -10 20 C-10.66 20 -11.32 20 -12 20 C-12 18.35 -12 16.7 -12 15 C-12.66 14.67 -13.32 14.34 -14 14 C-8.72 14 -3.44 14 2 14 C2 11.69 2 9.38 2 7 C-0.31 7 -2.62 7 -5 7 C-5 6.67 -5 6.34 -5 6 C-3.02 6 -1.04 6 1 6 C0.67 4.02 0.34 2.04 0 0 Z " fill="#5A2F21" transform="translate(218,188)"/>
<path d="M0 0 C2.31 0 4.62 0 7 0 C7.12375 1.670625 7.12375 1.670625 7.25 3.375 C7.57873787 7.05753944 7.57873787 7.05753944 10.0625 8.4375 C10.701875 8.623125 11.34125 8.80875 12 9 C10.35 9 8.7 9 7 9 C7 18.24 7 27.48 7 37 C6.67 37 6.34 37 6 37 C6 27.76 6 18.52 6 9 C4.35 9 2.7 9 1 9 C2.32 8.67 3.64 8.34 5 8 C5 6.02 5 4.04 5 2 C3.02 2 1.04 2 -1 2 C-0.67 1.34 -0.34 0.68 0 0 Z " fill="#6C3B39" transform="translate(236,5)"/>
<path d="M0 0 C2.31 0 4.62 0 7 0 C7 0.33 7 0.66 7 1 C5.02 1 3.04 1 1 1 C1 7.93 1 14.86 1 22 C2.65 22 4.3 22 6 22 C6 24.31 6 26.62 6 29 C4.02 29 2.04 29 0 29 C0 19.43 0 9.86 0 0 Z " fill="#452622" transform="translate(176,165)"/>
<path d="M0 0 C1.93166016 0.01740234 1.93166016 0.01740234 3.90234375 0.03515625 C5.19269531 0.04417969 6.48304687 0.05320313 7.8125 0.0625 C8.81152344 0.07410156 9.81054688 0.08570313 10.83984375 0.09765625 C10.83984375 0.42765625 10.83984375 0.75765625 10.83984375 1.09765625 C6.54984375 1.09765625 2.25984375 1.09765625 -2.16015625 1.09765625 C-2.16015625 3.07765625 -2.16015625 5.05765625 -2.16015625 7.09765625 C9.71984375 7.09765625 21.59984375 7.09765625 33.83984375 7.09765625 C33.83984375 7.42765625 33.83984375 7.75765625 33.83984375 8.09765625 C21.95984375 8.09765625 10.07984375 8.09765625 -2.16015625 8.09765625 C-2.16015625 9.74765625 -2.16015625 11.39765625 -2.16015625 13.09765625 C-4.76601181 9.18887291 -4.38337496 5.63643659 -4.16015625 1.09765625 C-3.16015625 0.09765625 -3.16015625 0.09765625 0 0 Z " fill="#8B533A" transform="translate(12.16015625,133.90234375)"/>
<path d="M0 0 C0.99 0.66 1.98 1.32 3 2 C2.67 6.29 2.34 10.58 2 15 C0.02 15 -1.96 15 -4 15 C-4.625 13.125 -4.625 13.125 -5 11 C-4.34 10.34 -3.68 9.68 -3 9 C-2.835 7.845 -2.67 6.69 -2.5 5.5 C-2 2 -2 2 0 0 Z " fill="#3C2021" transform="translate(81,194)"/>
<path d="M0 0 C7.59 0 15.18 0 23 0 C22.67 0.66 22.34 1.32 22 2 C15.4 2 8.8 2 2 2 C2 5.96 2 9.92 2 14 C1.34 14 0.68 14 0 14 C0 9.38 0 4.76 0 0 Z " fill="#4F3536" transform="translate(1,126)"/>
<path d="M0 0 C2.31 0 4.62 0 7 0 C8.35439668 2.70879335 8.06501451 5.00933268 8 8 C5.03 8 2.06 8 -1 8 C-1.125 2.25 -1.125 2.25 0 0 Z " fill="#493032" transform="translate(198,5)"/>
<path d="M0 0 C3.96 0 7.92 0 12 0 C12.33 1.65 12.66 3.3 13 5 C8.71 5 4.42 5 0 5 C0 3.35 0 1.7 0 0 Z " fill="#3E2122" transform="translate(71,113)"/>
<path d="M0 0 C0.66 0 1.32 0 2 0 C2 0.66 2 1.32 2 2 C3.98 2 5.96 2 8 2 C8 3.32 8 4.64 8 6 C4.37 6.33 0.74 6.66 -3 7 C-3.33 5.35 -3.66 3.7 -4 2 C-2.68 2 -1.36 2 0 2 C0 1.34 0 0.68 0 0 Z " fill="#F1B881" transform="translate(173,194)"/>
<path d="M0 0 C0.66 0.33 1.32 0.66 2 1 C3.54023996 1.06950541 5.08334988 1.08452357 6.625 1.0625 C7.44226563 1.05347656 8.25953125 1.04445312 9.1015625 1.03515625 C9.72804687 1.02355469 10.35453125 1.01195312 11 1 C10.67 1.99 10.34 2.98 10 4 C10 3.34 10 2.68 10 2 C7.69 2 5.38 2 3 2 C3 4.31 3 6.62 3 9 C0.36 9 -2.28 9 -5 9 C-5 11.97 -5 14.94 -5 18 C-5.33 18 -5.66 18 -6 18 C-6.02688151 16.35425434 -6.04634123 14.70838587 -6.0625 13.0625 C-6.07410156 12.14597656 -6.08570313 11.22945312 -6.09765625 10.28515625 C-6 8 -6 8 -5 7 C-3.33382885 6.95936168 -1.66611905 6.957279 0 7 C0 4.69 0 2.38 0 0 Z " fill="#B57347" transform="translate(187,140)"/>
<path d="M0 0 C1.65 0 3.3 0 5 0 C4.71758359 1.46015291 4.42373386 2.91809793 4.125 4.375 C3.96257812 5.18710938 3.80015625 5.99921875 3.6328125 6.8359375 C3 9 3 9 1 11 C-0.175625 11.165 -1.35125 11.33 -2.5625 11.5 C-4.2640625 11.7475 -4.2640625 11.7475 -6 12 C-6.33 12.66 -6.66 13.32 -7 14 C-7.66 14 -8.32 14 -9 14 C-9 13.01 -9 12.02 -9 11 C-10.32 10.34 -11.64 9.68 -13 9 C-8.38 9 -3.76 9 1 9 C0.67 6.03 0.34 3.06 0 0 Z " fill="#4F302B" transform="translate(76,194)"/>
<path d="M0 0 C0.33 0 0.66 0 1 0 C1.33 8.25 1.66 16.5 2 25 C4.31 25.66 6.62 26.32 9 27 C9 28.65 9 30.3 9 32 C8.01 32 7.02 32 6 32 C6 30.35 6 28.7 6 27 C4.02 27 2.04 27 0 27 C-0.19582583 22.68783519 -0.38027074 18.3752591 -0.5625 14.0625 C-0.61857422 12.83080078 -0.67464844 11.59910156 -0.73242188 10.33007812 C-0.78076172 9.16025391 -0.82910156 7.99042969 -0.87890625 6.78515625 C-0.9260376 5.70113525 -0.97316895 4.61711426 -1.02172852 3.50024414 C-1 1 -1 1 0 0 Z " fill="#C87446" transform="translate(105,169)"/>
<path d="M0 0 C2.31 0 4.62 0 7 0 C7 0.33 7 0.66 7 1 C5.02 1 3.04 1 1 1 C1.020625 2.134375 1.04125 3.26875 1.0625 4.4375 C1 8 1 8 0 9 C-2.53049402 9.07313567 -5.03304837 9.09247527 -7.5625 9.0625 C-8.62887695 9.05573242 -8.62887695 9.05573242 -9.71679688 9.04882812 C-11.47790013 9.03700864 -13.23896036 9.01907263 -15 9 C-15 8.34 -15 7.68 -15 7 C-10.38 7 -5.76 7 -1 7 C-0.67 4.69 -0.34 2.38 0 0 Z " fill="#D58D58" transform="translate(220,88)"/>
<path d="M0 0 C2.31 0 4.62 0 7 0 C7.04254356 1.99954746 7.04080783 4.00041636 7 6 C6 7 6 7 2.9375 7.0625 C1.4834375 7.0315625 1.4834375 7.0315625 0 7 C0 4.69 0 2.38 0 0 Z " fill="#371A19" transform="translate(47,135)"/>
<path d="M0 0 C2.64 0 5.28 0 8 0 C8.125 2.375 8.125 2.375 8 5 C6 7 6 7 2.875 7.125 C1.451875 7.063125 1.451875 7.063125 0 7 C0 4.69 0 2.38 0 0 Z " fill="#492324" transform="translate(266,67)"/>
<path d="M0 0 C0.99 0 1.98 0 3 0 C3 1.65 3 3.3 3 5 C3.66 5 4.32 5 5 5 C5.33 3.68 5.66 2.36 6 1 C6.26252625 5.33168317 5.29243536 8.8803623 4 13 C3.34 13 2.68 13 2 13 C2 10.69 2 8.38 2 6 C0.02 6 -1.96 6 -4 6 C-3.01 5.67 -2.02 5.34 -1 5 C-0.67 3.35 -0.34 1.7 0 0 Z " fill="#CA7541" transform="translate(67,158)"/>
<path d="M0 0 C2.33294775 -0.04241723 4.66702567 -0.04092937 7 0 C8 1 8 1 8.1875 4.8125 C8.1585691 8.03540201 7.82970185 10.25544723 6 13 C6 11.68 6 10.36 6 9 C4.02 9 2.04 9 0 9 C0.33 8.34 0.66 7.68 1 7 C4.0625 6.375 4.0625 6.375 7 6 C6.67 4.68 6.34 3.36 6 2 C4.68 2 3.36 2 2 2 C2 2.66 2 3.32 2 4 C1.34 4 0.68 4 0 4 C0 2.68 0 1.36 0 0 Z " fill="#693430" transform="translate(266,58)"/>
<path d="M0 0 C2.475 0.99 2.475 0.99 5 2 C5 2.66 5 3.32 5 4 C4.01 4.495 4.01 4.495 3 5 C3.33 5.33 3.66 5.66 4 6 C4.04080783 7.99958364 4.04254356 10.00045254 4 12 C2.68 12 1.36 12 0 12 C0 8.04 0 4.08 0 0 Z " fill="#CB753A" transform="translate(238,45)"/>
<path d="M0 0 C0.33 0 0.66 0 1 0 C1.33 6.27 1.66 12.54 2 19 C3.485 15.535 3.485 15.535 5 12 C5.33 12 5.66 12 6 12 C6 14.97 6 17.94 6 21 C4.02 21 2.04 21 0 21 C0 14.07 0 7.14 0 0 Z " fill="#2F0F11" transform="translate(228,14)"/>
<path d="M0 0 C1.99954746 -0.04254356 4.00041636 -0.04080783 6 0 C7 1 7 1 7.0625 4.0625 C7.041875 5.031875 7.02125 6.00125 7 7 C6.34 5.68 5.68 4.36 5 3 C4.34 3 3.68 3 3 3 C2.9175 3.78375 2.835 4.5675 2.75 5.375 C2 8 2 8 0.1875 9.4375 C-2 10 -2 10 -4.25 9.125 C-4.8275 8.75375 -5.405 8.3825 -6 8 C-4.02 8 -2.04 8 0 8 C0 5.36 0 2.72 0 0 Z " fill="#4A221E" transform="translate(145,142)"/>
<path d="M0 0 C2.31 0 4.62 0 7 0 C7 1.65 7 3.3 7 5 C3.7 5 0.4 5 -3 5 C-3 4.34 -3 3.68 -3 3 C-2.01 2.67 -1.02 2.34 0 2 C0 1.34 0 0.68 0 0 Z " fill="#EFBB81" transform="translate(69,196)"/>
<path d="M0 0 C2.97 0 5.94 0 9 0 C8.8864371 1.64666203 8.75882619 3.29236082 8.625 4.9375 C8.55539063 5.85402344 8.48578125 6.77054688 8.4140625 7.71484375 C8.27742187 8.46894531 8.14078125 9.22304688 8 10 C5.3333581 11.33332095 3.83319697 10.67102033 1 10 C1 11.65 1 13.3 1 15 C0.67 15 0.34 15 0 15 C0 12.69 0 10.38 0 8 C2.31 8 4.62 8 7 8 C7 5.69 7 3.38 7 1 C4.69 1 2.38 1 0 1 C0 0.67 0 0.34 0 0 Z " fill="#8E4E3C" transform="translate(243,43)"/>
<path d="M0 0 C1.98 0 3.96 0 6 0 C6 2.31 6 4.62 6 7 C4.02 7 2.04 7 0 7 C0 4.69 0 2.38 0 0 Z " fill="#41211A" transform="translate(191,143)"/>
<path d="M0 0 C2.0625 0.4375 2.0625 0.4375 4 1 C3.01 1 2.02 1 1 1 C0.66619186 4.37436186 0.66619186 4.37436186 1 8 C2.9004467 9.84315671 2.9004467 9.84315671 5 11 C5 11.66 5 12.32 5 13 C3.02 13.66 1.04 14.32 -1 15 C-1.02685412 12.68756208 -1.04632841 10.3750373 -1.0625 8.0625 C-1.07410156 6.77472656 -1.08570313 5.48695312 -1.09765625 4.16015625 C-1 1 -1 1 0 0 Z " fill="#2B0D0E" transform="translate(168,66)"/>
<path d="M0 0 C6.93 0.495 6.93 0.495 14 1 C14 3.31 14 5.62 14 8 C11.69 8 9.38 8 7 8 C7 7.67 7 7.34 7 7 C8.98 7 10.96 7 13 7 C13 5.35 13 3.7 13 2 C9.37 2 5.74 2 2 2 C2 2.66 2 3.32 2 4 C1.34 4 0.68 4 0 4 C0 2.68 0 1.36 0 0 Z " fill="#AF6644" transform="translate(236,43)"/>
<path d="M0 0 C1.134375 0.020625 2.26875 0.04125 3.4375 0.0625 C3.4375 0.7225 3.4375 1.3825 3.4375 2.0625 C1.4575 2.0625 -0.5225 2.0625 -2.5625 2.0625 C-2.541875 3.031875 -2.52125 4.00125 -2.5 5 C-2.5625 8.0625 -2.5625 8.0625 -3.5625 9.0625 C-6.23308851 9.20365161 -8.88682238 9.10497107 -11.5625 9.0625 C-11.2325 8.4025 -10.9025 7.7425 -10.5625 7.0625 C-7.5925 7.5575 -7.5925 7.5575 -4.5625 8.0625 C-4.583125 6.928125 -4.60375 5.79375 -4.625 4.625 C-4.54525862 0.07974138 -4.54525862 0.07974138 0 0 Z " fill="#5C2D2A" transform="translate(163.5625,140.9375)"/>
<path d="M0 0 C1.98 0 3.96 0 6 0 C6 1.98 6 3.96 6 6 C4.02 6 2.04 6 0 6 C0 4.02 0 2.04 0 0 Z " fill="#C47240" transform="translate(47,127)"/>
<path d="M0 0 C0.33 0 0.66 0 1 0 C1.0093457 0.74161377 1.01869141 1.48322754 1.02832031 2.24731445 C1.08195751 5.60305714 1.16561793 8.95739562 1.25 12.3125 C1.26417969 13.47974609 1.27835938 14.64699219 1.29296875 15.84960938 C1.32519531 16.96787109 1.35742188 18.08613281 1.390625 19.23828125 C1.41157227 20.26993408 1.43251953 21.30158691 1.45410156 22.36450195 C1.76195134 25.14793356 1.76195134 25.14793356 4.03808594 26.86010742 C4.68551758 27.23627197 5.33294922 27.61243652 6 28 C4.02 28 2.04 28 0 28 C0 18.76 0 9.52 0 0 Z " fill="#532A2B" transform="translate(243,15)"/>
<path d="M0 0 C1.98 0 3.96 0 6 0 C6 1.98 6 3.96 6 6 C4.02 6 2.04 6 0 6 C0 4.02 0 2.04 0 0 Z " fill="#3B1F1D" transform="translate(235,7)"/>
<path d="M0 0 C0.33 0 0.66 0 1 0 C1.33 2.64 1.66 5.28 2 8 C3.134375 8.12375 4.26875 8.2475 5.4375 8.375 C6.613125 8.58125 7.78875 8.7875 9 9 C10.43088528 11.86177057 9.59991697 13.93375773 9 17 C8.34 17 7.68 17 7 17 C6.67 15.02 6.34 13.04 6 11 C3.03 10.505 3.03 10.505 0 10 C0 6.7 0 3.4 0 0 Z " fill="#693B29" transform="translate(107,185)"/>
<path d="M0 0 C1.2065625 0.0309375 1.2065625 0.0309375 2.4375 0.0625 C2.4375 2.0425 2.4375 4.0225 2.4375 6.0625 C0.4575 6.0625 -1.5225 6.0625 -3.5625 6.0625 C-3.605221 4.39638095 -3.60313832 2.72867115 -3.5625 1.0625 C-2.5625 0.0625 -2.5625 0.0625 0 0 Z " fill="#442523" transform="translate(179.5625,58.9375)"/>
<path d="M0 0 C0.99 0.33 1.98 0.66 3 1 C3 2.65 3 4.3 3 6 C3.66 6 4.32 6 5 6 C5 6.66 5 7.32 5 8 C4.34 8 3.68 8 3 8 C3 9.98 3 11.96 3 14 C2.67 14 2.34 14 2 14 C2 11.69 2 9.38 2 7 C-0.31 7 -2.62 7 -5 7 C-5 6.67 -5 6.34 -5 6 C-3.02 6 -1.04 6 1 6 C0.67 4.02 0.34 2.04 0 0 Z " fill="#603A2F" transform="translate(218,188)"/>
<path d="M0 0 C2.31 0 4.62 0 7 0 C7.12375 1.134375 7.2475 2.26875 7.375 3.4375 C7.58125 4.613125 7.7875 5.78875 8 7 C8.66 7.33 9.32 7.66 10 8 C8.35 7.67 6.7 7.34 5 7 C5 5.35 5 3.7 5 2 C3.02 2 1.04 2 -1 2 C-0.67 1.34 -0.34 0.68 0 0 Z " fill="#503131" transform="translate(236,5)"/>
<path d="M0 0 C2.97 0 5.94 0 9 0 C8.67 1.98 8.34 3.96 8 6 C6.35 6 4.7 6 3 6 C3 4.68 3 3.36 3 2 C2.01 1.34 1.02 0.68 0 0 Z " fill="#7A3B33" transform="translate(205,36)"/>
<path d="M0 0 C1.67542976 0.28604898 3.34385343 0.61781233 5 1 C5 2.65 5 4.3 5 6 C4.01 6 3.02 6 2 6 C1.67 4.68 1.34 3.36 1 2 C1 3.65 1 5.3 1 7 C0.34 7 -0.32 7 -1 7 C-1.04254356 5.00045254 -1.04080783 2.99958364 -1 1 C-0.67 0.67 -0.34 0.34 0 0 Z " fill="#361A1A" transform="translate(198,6)"/>
<path d="M0 0 C0.99 0.33 1.98 0.66 3 1 C3 4.63 3 8.26 3 12 C2.34 12 1.68 12 1 12 C0.67 8.04 0.34 4.08 0 0 Z " fill="#4A2D2F" transform="translate(225,196)"/>
<path d="M0 0 C0.33 0 0.66 0 1 0 C1 2.97 1 5.94 1 9 C2.98 9.495 2.98 9.495 5 10 C5 10.99 5 11.98 5 13 C3.35 13 1.7 13 0 13 C0 8.71 0 4.42 0 0 Z " fill="#793B32" transform="translate(205,151)"/>
<path d="M0 0 C1.65 0 3.3 0 5 0 C5 1.65 5 3.3 5 5 C3.35 5 1.7 5 0 5 C0 3.35 0 1.7 0 0 Z " fill="#401F21" transform="translate(101,158)"/>
<path d="M0 0 C1.17219543 0.78345715 2.33763668 1.57702836 3.5 2.375 C4.47453125 3.03628906 4.47453125 3.03628906 5.46875 3.7109375 C5.9740625 4.13632813 6.479375 4.56171875 7 5 C7 5.66 7 6.32 7 7 C5.02 7 3.04 7 1 7 C0.67 4.69 0.34 2.38 0 0 Z " fill="#351614" transform="translate(221,150)"/>
<path d="M0 0 C6.875 0.875 6.875 0.875 8 2 C8.04063832 3.66617115 8.042721 5.33388095 8 7 C7.01 7 6.02 7 5 7 C5 5.35 5 3.7 5 2 C3.35 2 1.7 2 0 2 C0 1.34 0 0.68 0 0 Z " fill="#BB7145" transform="translate(106,194)"/>
<path d="M0 0 C1.65 0 3.3 0 5 0 C4.67 1.65 4.34 3.3 4 5 C2.68 5.33 1.36 5.66 0 6 C0 4.02 0 2.04 0 0 Z " fill="#C17240" transform="translate(62,158)"/>
<path d="M0 0 C1.65 0 3.3 0 5 0 C5 1.65 5 3.3 5 5 C3.35 4.67 1.7 4.34 0 4 C0 2.68 0 1.36 0 0 Z " fill="#3D1F23" transform="translate(25,121)"/>
<path d="M0 0 C0.33 0 0.66 0 1 0 C1.26252625 4.33168317 0.29243536 7.8803623 -1 12 C-1.66 12 -2.32 12 -3 12 C-3 9.69 -3 7.38 -3 5 C-2.01 4.67 -1.02 4.34 0 4 C0 2.68 0 1.36 0 0 Z " fill="#CF7F4A" transform="translate(72,159)"/>
<path d="M0 0 C0.33 1.32 0.66 2.64 1 4 C2.65 4 4.3 4 6 4 C6.33 4.99 6.66 5.98 7 7 C5.02 7 3.04 7 1 7 C0.67 4.69 0.34 2.38 0 0 Z " fill="#261211" transform="translate(91,195)"/>
<path d="M0 0 C2.33944736 0.28730055 4.6739143 0.61936779 7 1 C7 3.31 7 5.62 7 8 C6.67 8 6.34 8 6 8 C6 6.02 6 4.04 6 2 C4.35 2 2.7 2 1 2 C1 3.98 1 5.96 1 8 C0.67 8 0.34 8 0 8 C-0.38063221 5.6739143 -0.71269945 3.33944736 -1 1 C-0.67 0.67 -0.34 0.34 0 0 Z " fill="#A66441" transform="translate(24,126)"/>
<path d="M0 0 C0.99 0.33 1.98 0.66 3 1 C3 1.66 3 2.32 3 3 C3.99 3.33 4.98 3.66 6 4 C5.01 4 4.02 4 3 4 C2.67 5.65 2.34 7.3 2 9 C1.67 9 1.34 9 1 9 C0.67 6.03 0.34 3.06 0 0 Z " fill="#472723" transform="translate(107,184)"/>
<path d="M0 0 C1.32 0 2.64 0 4 0 C3.43628586 3.26954202 2.50037734 4.82575883 0 7 C0 4.69 0 2.38 0 0 Z " fill="#BF7445" transform="translate(206,165)"/>
<path d="M0 0 C2.31 0 4.62 0 7 0 C7 2.31 7 4.62 7 7 C6.01 6.67 5.02 6.34 4 6 C4.33 4.68 4.66 3.36 5 2 C3.35 1.67 1.7 1.34 0 1 C0 0.67 0 0.34 0 0 Z " fill="#B76B46" transform="translate(92,134)"/>
<path d="M0 0 C1.98 0 3.96 0 6 0 C6 0.66 6 1.32 6 2 C4.68 2.33 3.36 2.66 2 3 C2 4.65 2 6.3 2 8 C1.67 8 1.34 8 1 8 C0.67 5.36 0.34 2.72 0 0 Z " fill="#50332C" transform="translate(182,194)"/>
<path d="M0 0 C0.99 0.33 1.98 0.66 3 1 C3 1.66 3 2.32 3 3 C2.34 3 1.68 3 1 3 C1 6.3 1 9.6 1 13 C0.67 13 0.34 13 0 13 C0 8.71 0 4.42 0 0 Z " fill="#442629" transform="translate(233,85)"/>
<path d="M0 0 C1.32 0.33 2.64 0.66 4 1 C4 1.66 4 2.32 4 3 C4.66 3.33 5.32 3.66 6 4 C4.35 4.33 2.7 4.66 1 5 C0.67 3.35 0.34 1.7 0 0 Z " fill="#391616" transform="translate(267,69)"/>
<path d="M0 0 C0.66 0.66 1.32 1.32 2 2 C4.32275177 2.40047444 6.65739357 2.7397104 9 3 C9 3.33 9 3.66 9 4 C5.7 4 2.4 4 -1 4 C-1.33 3.01 -1.66 2.02 -2 1 C-1.34 0.67 -0.68 0.34 0 0 Z " fill="#DDAD7F" transform="translate(67,192)"/>
<path d="M0 0 C2.31 0 4.62 0 7 0 C7 0.33 7 0.66 7 1 C5.02 1 3.04 1 1 1 C1.66 2.65 2.32 4.3 3 6 C2.01 6.33 1.02 6.66 0 7 C0 4.69 0 2.38 0 0 Z " fill="#532D23" transform="translate(47,135)"/>
</svg>
