<?xml version="1.0" encoding="UTF-8"?>
<svg version="1.1" xmlns="http://www.w3.org/2000/svg" width="196" height="178">
<path d="M0 0 C3.5 0.125 3.5 0.125 4.5 1.125 C4.54080783 3.12458364 4.54254356 5.12545254 4.5 7.125 C6.48 7.125 8.46 7.125 10.5 7.125 C11.49 10.59 11.49 10.59 12.5 14.125 C14.48 14.455 16.46 14.785 18.5 15.125 C18.4690625 13.4234375 18.4690625 13.4234375 18.4375 11.6875 C18.5 8.125 18.5 8.125 19.5 7.125 C21.49958364 7.08419217 23.50045254 7.08245644 25.5 7.125 C25.4690625 5.6709375 25.4690625 5.6709375 25.4375 4.1875 C25.5 1.125 25.5 1.125 26.5 0.125 C30 0 30 0 33.5 0.125 C34.5 1.125 34.5 1.125 34.5625 4.1875 C34.541875 5.156875 34.52125 6.12625 34.5 7.125 C36.81 7.125 39.12 7.125 41.5 7.125 C41.5 14.715 41.5 22.305 41.5 30.125 C46.45 30.125 51.4 30.125 56.5 30.125 C57.56952974 33.33358923 57.62922738 35.66335228 57.6328125 39.03515625 C57.63410156 40.18951172 57.63539063 41.34386719 57.63671875 42.53320312 C57.63285156 43.73912109 57.62898437 44.94503906 57.625 46.1875 C57.62886719 47.39728516 57.63273438 48.60707031 57.63671875 49.85351562 C57.63478516 51.58311523 57.63478516 51.58311523 57.6328125 53.34765625 C57.63168457 54.40734619 57.63055664 55.46703613 57.62939453 56.55883789 C57.5 59.125 57.5 59.125 56.5 61.125 C53.4375 61.75 53.4375 61.75 50.5 62.125 C49.84 64.105 49.18 66.085 48.5 68.125 C45.53 68.62 45.53 68.62 42.5 69.125 C42.17 88.925 41.84 108.725 41.5 129.125 C39.19 129.125 36.88 129.125 34.5 129.125 C34.5 136.385 34.5 143.645 34.5 151.125 C36.48 151.125 38.46 151.125 40.5 151.125 C41.5 152.125 41.5 152.125 41.59765625 155.50390625 C41.59191424 156.89847492 41.57890228 158.29301597 41.5625 159.6875 C41.541875 162.141875 41.52125 164.59625 41.5 167.125 C34.24 167.125 26.98 167.125 19.5 167.125 C18.51 163.66 18.51 163.66 17.5 160.125 C16.71625 160.186875 15.9325 160.24875 15.125 160.3125 C14.25875 160.250625 13.3925 160.18875 12.5 160.125 C10.13991183 156.58486775 10.26536356 155.11378045 10.3046875 150.92578125 C10.31113281 149.71728516 10.31757813 148.50878906 10.32421875 147.26367188 C10.34935547 145.3697168 10.34935547 145.3697168 10.375 143.4375 C10.38402344 142.16326172 10.39304687 140.88902344 10.40234375 139.57617188 C10.42594278 136.42570146 10.46181421 133.27532738 10.5 130.125 C5.88 129.795 1.26 129.465 -3.5 129.125 C-3.5 136.385 -3.5 143.645 -3.5 151.125 C-1.19 151.455 1.12 151.785 3.5 152.125 C3.69448477 154.24937212 3.88038289 156.37453191 4.0625 158.5 C4.16691406 159.68335938 4.27132812 160.86671875 4.37890625 162.0859375 C4.5 165.125 4.5 165.125 3.5 167.125 C-0.14581687 167.15387512 -3.79160463 167.17175585 -7.4375 167.1875 C-8.47841797 167.19587891 -9.51933594 167.20425781 -10.59179688 167.21289062 C-11.58115234 167.21611328 -12.57050781 167.21933594 -13.58984375 167.22265625 C-14.50628662 167.22789307 -15.42272949 167.23312988 -16.36694336 167.23852539 C-18.5 167.125 -18.5 167.125 -19.5 166.125 C-19.54080783 164.12541636 -19.54254356 162.12454746 -19.5 160.125 C-21.81 159.795 -24.12 159.465 -26.5 159.125 C-26.5 149.225 -26.5 139.325 -26.5 129.125 C-33.76 129.455 -41.02 129.785 -48.5 130.125 C-48.5 136.725 -48.5 143.325 -48.5 150.125 C-46.19 150.785 -43.88 151.445 -41.5 152.125 C-41.5 157.075 -41.5 162.025 -41.5 167.125 C-49.09 167.125 -56.68 167.125 -64.5 167.125 C-64.5 164.815 -64.5 162.505 -64.5 160.125 C-65.44875 160.16625 -66.3975 160.2075 -67.375 160.25 C-70.5 160.125 -70.5 160.125 -72.5 158.125 C-72.72705078 155.23583984 -72.72705078 155.23583984 -72.6953125 151.5859375 C-72.68886719 150.28398437 -72.68242188 148.98203125 -72.67578125 147.640625 C-72.65906929 146.26041405 -72.64213939 144.88020571 -72.625 143.5 C-72.61497006 142.11198548 -72.60584423 140.72396411 -72.59765625 139.3359375 C-72.57401931 135.93221808 -72.53814731 132.52858772 -72.5 129.125 C-77.12 129.125 -81.74 129.125 -86.5 129.125 C-86.5 136.385 -86.5 143.645 -86.5 151.125 C-84.19 151.455 -81.88 151.785 -79.5 152.125 C-79.5 157.075 -79.5 162.025 -79.5 167.125 C-87.09 167.125 -94.68 167.125 -102.5 167.125 C-102.5 164.815 -102.5 162.505 -102.5 160.125 C-103.44875 160.16625 -104.3975 160.2075 -105.375 160.25 C-108.5 160.125 -108.5 160.125 -110.5 158.125 C-110.6874551 155.41189351 -110.75565406 152.80270915 -110.73046875 150.08984375 C-110.73001053 149.2959877 -110.72955231 148.50213165 -110.7290802 147.68421936 C-110.72605765 146.00552883 -110.71817125 144.3268411 -110.70581055 142.64819336 C-110.68754885 140.06939842 -110.68530087 137.49096223 -110.68554688 134.91210938 C-110.68063196 133.28385104 -110.67480376 131.65559516 -110.66796875 130.02734375 C-110.66685593 129.25132309 -110.6657431 128.47530243 -110.66459656 127.67576599 C-110.61605007 122.24105007 -110.61605007 122.24105007 -109.5 121.125 C-107.19 121.125 -104.88 121.125 -102.5 121.125 C-102.5 111.225 -102.5 101.325 -102.5 91.125 C-104.81 91.125 -107.12 91.125 -109.5 91.125 C-109.83 88.815 -110.16 86.505 -110.5 84.125 C-111.469375 84.145625 -112.43875 84.16625 -113.4375 84.1875 C-116.5 84.125 -116.5 84.125 -117.5 83.125 C-117.57313567 80.59450598 -117.59247527 78.09195163 -117.5625 75.5625 C-117.55798828 74.85158203 -117.55347656 74.14066406 -117.54882812 73.40820312 C-117.53700864 71.64709987 -117.51907263 69.88603964 -117.5 68.125 C-115.19 68.125 -112.88 68.125 -110.5 68.125 C-110.561875 66.701875 -110.561875 66.701875 -110.625 65.25 C-110.5 62.125 -110.5 62.125 -108.5 60.125 C-105.75 59.859375 -105.75 59.859375 -102.5 59.875 C-100.89125 59.86726563 -100.89125 59.86726563 -99.25 59.859375 C-96.5 60.125 -96.5 60.125 -94.5 62.125 C-94.375 65.25 -94.375 65.25 -94.5 68.125 C-92.19 68.125 -89.88 68.125 -87.5 68.125 C-86.51 71.59 -86.51 71.59 -85.5 75.125 C-78.57 75.125 -71.64 75.125 -64.5 75.125 C-64.5 72.815 -64.5 70.505 -64.5 68.125 C-54.6 68.125 -44.7 68.125 -34.5 68.125 C-34.5 65.815 -34.5 63.505 -34.5 61.125 C-31.73547967 59.74273984 -29.4538637 60.02974613 -26.375 60.0625 C-25.27929688 60.07152344 -24.18359375 60.08054688 -23.0546875 60.08984375 C-21.79011719 60.10724609 -21.79011719 60.10724609 -20.5 60.125 C-20.42652344 58.75214844 -20.42652344 58.75214844 -20.3515625 57.3515625 C-20.27679688 56.16304687 -20.20203125 54.97453125 -20.125 53.75 C-20.05539063 52.56664062 -19.98578125 51.38328125 -19.9140625 50.1640625 C-19.5 47.125 -19.5 47.125 -17.5 45.125 C-14.375 45 -14.375 45 -11.5 45.125 C-11.50523682 44.00939697 -11.51047363 42.89379395 -11.51586914 41.74438477 C-11.53391775 37.62020667 -11.54543149 33.49603209 -11.55493164 29.37182617 C-11.55997218 27.58405979 -11.56680454 25.79629755 -11.57543945 24.00854492 C-11.5875173 21.44448832 -11.59323094 18.88048603 -11.59765625 16.31640625 C-11.60281754 15.5122377 -11.60797882 14.70806915 -11.61329651 13.87953186 C-11.61349215 11.96098285 -11.56201983 10.04254632 -11.5 8.125 C-10.5 7.125 -10.5 7.125 -7.4375 7.0625 C-5.9834375 7.0934375 -5.9834375 7.0934375 -4.5 7.125 C-4.520625 6.155625 -4.54125 5.18625 -4.5625 4.1875 C-4.47363297 -0.1669844 -4.43084524 0.15824447 0 0 Z " fill="#C8753F" transform="translate(129.5,0.875)"/>
<path d="M0 0 C1.0725 0.00515625 2.145 0.0103125 3.25 0.015625 C4.85875 0.00789063 4.85875 0.00789063 6.5 0 C9.25 0.265625 9.25 0.265625 11.25 2.265625 C11.375 5.390625 11.375 5.390625 11.25 8.265625 C13.56 8.265625 15.87 8.265625 18.25 8.265625 C18.91 10.575625 19.57 12.885625 20.25 15.265625 C27.18 15.265625 34.11 15.265625 41.25 15.265625 C41.25 12.955625 41.25 10.645625 41.25 8.265625 C51.15 8.265625 61.05 8.265625 71.25 8.265625 C71.25 10.905625 71.25 13.545625 71.25 16.265625 C61.35 16.265625 51.45 16.265625 41.25 16.265625 C41.25 18.575625 41.25 20.885625 41.25 23.265625 C40.25 24.265625 40.25 24.265625 37.47436523 24.37915039 C36.26466064 24.37391357 35.05495605 24.36867676 33.80859375 24.36328125 C32.63353271 24.36078369 31.45847168 24.35828613 30.24780273 24.35571289 C28.74290283 24.34660889 27.23800293 24.33750488 25.6875 24.328125 C20.923125 24.3075 16.15875 24.286875 11.25 24.265625 C11.25 36.805625 11.25 49.345625 11.25 62.265625 C8.94 62.265625 6.63 62.265625 4.25 62.265625 C4.25 74.475625 4.25 86.685625 4.25 99.265625 C8.87 99.265625 13.49 99.265625 18.25 99.265625 C18.25 96.955625 18.25 94.645625 18.25 92.265625 C16.27 92.265625 14.29 92.265625 12.25 92.265625 C12.25 82.695625 12.25 73.125625 12.25 63.265625 C14.56 62.605625 16.87 61.945625 19.25 61.265625 C19.58 59.285625 19.91 57.305625 20.25 55.265625 C41.7 55.265625 63.15 55.265625 85.25 55.265625 C85.745 59.225625 85.745 59.225625 86.25 63.265625 C88.56 63.265625 90.87 63.265625 93.25 63.265625 C93.25 64.915625 93.25 66.565625 93.25 68.265625 C91.27 68.265625 89.29 68.265625 87.25 68.265625 C87.25 78.495625 87.25 88.725625 87.25 99.265625 C91.87 99.265625 96.49 99.265625 101.25 99.265625 C100.92 97.285625 100.59 95.305625 100.25 93.265625 C98.6 92.935625 96.95 92.605625 95.25 92.265625 C95.25 85.005625 95.25 77.745625 95.25 70.265625 C97.56 70.265625 99.87 70.265625 102.25 70.265625 C102.25 77.195625 102.25 84.125625 102.25 91.265625 C104.56 91.595625 106.87 91.925625 109.25 92.265625 C109.44448477 94.38999712 109.63038289 96.51515691 109.8125 98.640625 C109.96912109 100.41566406 109.96912109 100.41566406 110.12890625 102.2265625 C110.25 105.265625 110.25 105.265625 109.25 107.265625 C105.60418313 107.29450012 101.95839537 107.31238085 98.3125 107.328125 C97.27158203 107.33650391 96.23066406 107.34488281 95.15820312 107.35351562 C94.16884766 107.35673828 93.17949219 107.35996094 92.16015625 107.36328125 C90.78549194 107.37113647 90.78549194 107.37113647 89.38305664 107.37915039 C87.25 107.265625 87.25 107.265625 86.25 106.265625 C86.20919217 104.26604136 86.20745644 102.26517246 86.25 100.265625 C83.94 99.935625 81.63 99.605625 79.25 99.265625 C79.25 89.365625 79.25 79.465625 79.25 69.265625 C71.99 69.595625 64.73 69.925625 57.25 70.265625 C57.25 76.865625 57.25 83.465625 57.25 90.265625 C59.56 90.925625 61.87 91.585625 64.25 92.265625 C64.25 97.215625 64.25 102.165625 64.25 107.265625 C56.66 107.265625 49.07 107.265625 41.25 107.265625 C41.25 104.955625 41.25 102.645625 41.25 100.265625 C40.30125 100.306875 39.3525 100.348125 38.375 100.390625 C35.25 100.265625 35.25 100.265625 33.25 98.265625 C33.02294922 95.37646484 33.02294922 95.37646484 33.0546875 91.7265625 C33.06113281 90.42460937 33.06757812 89.12265625 33.07421875 87.78125 C33.09093071 86.40103905 33.10786061 85.02083071 33.125 83.640625 C33.13502994 82.25261048 33.14415577 80.86458911 33.15234375 79.4765625 C33.17598069 76.07284308 33.21185269 72.66921272 33.25 69.265625 C28.63 69.265625 24.01 69.265625 19.25 69.265625 C19.25 76.525625 19.25 83.785625 19.25 91.265625 C21.56 91.595625 23.87 91.925625 26.25 92.265625 C26.25 97.215625 26.25 102.165625 26.25 107.265625 C18.66 107.265625 11.07 107.265625 3.25 107.265625 C3.25 104.955625 3.25 102.645625 3.25 100.265625 C2.30125 100.306875 1.3525 100.348125 0.375 100.390625 C-2.75 100.265625 -2.75 100.265625 -4.75 98.265625 C-4.9374551 95.55251851 -5.00565406 92.94333415 -4.98046875 90.23046875 C-4.98001053 89.4366127 -4.97955231 88.64275665 -4.9790802 87.82484436 C-4.97605765 86.14615383 -4.96817125 84.4674661 -4.95581055 82.78881836 C-4.93754885 80.21002342 -4.93530087 77.63158723 -4.93554688 75.05273438 C-4.93063196 73.42447604 -4.92480376 71.79622016 -4.91796875 70.16796875 C-4.91685593 69.39194809 -4.9157431 68.61592743 -4.91459656 67.81639099 C-4.86605007 62.38167507 -4.86605007 62.38167507 -3.75 61.265625 C-1.44 61.265625 0.87 61.265625 3.25 61.265625 C3.25 51.365625 3.25 41.465625 3.25 31.265625 C0.94 31.265625 -1.37 31.265625 -3.75 31.265625 C-4.08 28.955625 -4.41 26.645625 -4.75 24.265625 C-5.719375 24.28625 -6.68875 24.306875 -7.6875 24.328125 C-10.75 24.265625 -10.75 24.265625 -11.75 23.265625 C-11.82313567 20.73513098 -11.84247527 18.23257663 -11.8125 15.703125 C-11.80798828 14.99220703 -11.80347656 14.28128906 -11.79882812 13.54882812 C-11.78700864 11.78772487 -11.76907263 10.02666464 -11.75 8.265625 C-9.44 8.265625 -7.13 8.265625 -4.75 8.265625 C-4.79125 7.316875 -4.8325 6.368125 -4.875 5.390625 C-4.71293589 1.33902234 -4.07080781 0.39320303 0 0 Z " fill="#7E3E36" transform="translate(23.75,60.734375)"/>
<path d="M0 0 C3.5 0.125 3.5 0.125 4.5 1.125 C4.54080783 3.12458364 4.54254356 5.12545254 4.5 7.125 C6.48 7.125 8.46 7.125 10.5 7.125 C11.16 9.435 11.82 11.745 12.5 14.125 C14.48 14.455 16.46 14.785 18.5 15.125 C18.479375 13.990625 18.45875 12.85625 18.4375 11.6875 C18.5 8.125 18.5 8.125 19.5 7.125 C21.49958364 7.08419217 23.50045254 7.08245644 25.5 7.125 C25.479375 6.155625 25.45875 5.18625 25.4375 4.1875 C25.5 1.125 25.5 1.125 26.5 0.125 C30 0 30 0 33.5 0.125 C34.5 1.125 34.5 1.125 34.5625 4.1875 C34.541875 5.156875 34.52125 6.12625 34.5 7.125 C36.81 7.125 39.12 7.125 41.5 7.125 C41.5 14.715 41.5 22.305 41.5 30.125 C46.45 30.125 51.4 30.125 56.5 30.125 C57.56952974 33.33358923 57.62922738 35.66335228 57.6328125 39.03515625 C57.63410156 40.18951172 57.63539063 41.34386719 57.63671875 42.53320312 C57.63285156 43.73912109 57.62898438 44.94503906 57.625 46.1875 C57.62886719 47.39728516 57.63273437 48.60707031 57.63671875 49.85351562 C57.63542969 51.00658203 57.63414062 52.15964844 57.6328125 53.34765625 C57.63168457 54.40734619 57.63055664 55.46703613 57.62939453 56.55883789 C57.5 59.125 57.5 59.125 56.5 61.125 C53.4375 61.75 53.4375 61.75 50.5 62.125 C49.84 64.105 49.18 66.085 48.5 68.125 C46.52 68.455 44.54 68.785 42.5 69.125 C42.17 88.925 41.84 108.725 41.5 129.125 C39.19 129.125 36.88 129.125 34.5 129.125 C34.5 136.385 34.5 143.645 34.5 151.125 C36.48 151.125 38.46 151.125 40.5 151.125 C41.5 152.125 41.5 152.125 41.59765625 155.50390625 C41.59191424 156.89847492 41.57890228 158.29301597 41.5625 159.6875 C41.541875 162.141875 41.52125 164.59625 41.5 167.125 C34.24 167.125 26.98 167.125 19.5 167.125 C18.84 164.815 18.18 162.505 17.5 160.125 C16.71625 160.186875 15.9325 160.24875 15.125 160.3125 C14.25875 160.250625 13.3925 160.18875 12.5 160.125 C10.13991183 156.58486775 10.26536356 155.11378045 10.3046875 150.92578125 C10.31113281 149.71728516 10.31757813 148.50878906 10.32421875 147.26367188 C10.34097656 146.00103516 10.35773438 144.73839844 10.375 143.4375 C10.38402344 142.16326172 10.39304688 140.88902344 10.40234375 139.57617188 C10.42594278 136.42570146 10.46181421 133.27532738 10.5 130.125 C5.88 129.795 1.26 129.465 -3.5 129.125 C-3.5 126.815 -3.5 124.505 -3.5 122.125 C6.15054566 121.29228728 15.81156678 120.67925341 25.5 121.125 C26.5 122.125 26.5 122.125 26.5625 125.1875 C26.541875 126.156875 26.52125 127.12625 26.5 128.125 C28.81 128.125 31.12 128.125 33.5 128.125 C33.5 113.275 33.5 98.425 33.5 83.125 C31.19 83.125 28.88 83.125 26.5 83.125 C26.005 79.66 26.005 79.66 25.5 76.125 C22.53 75.63 22.53 75.63 19.5 75.125 C19.5 73.145 19.5 71.165 19.5 69.125 C24.12 69.125 28.74 69.125 33.5 69.125 C33.5 66.155 33.5 63.185 33.5 60.125 C36.14 60.125 38.78 60.125 41.5 60.125 C41.25443359 58.63806641 41.25443359 58.63806641 41.00390625 57.12109375 C40.43395774 53.13145421 40.40182495 49.21878059 40.4375 45.1875 C40.44201172 44.50365234 40.44652344 43.81980469 40.45117188 43.11523438 C40.4628044 41.45178396 40.48073306 39.7883795 40.5 38.125 C38.52 38.125 36.54 38.125 34.5 38.125 C33.25088333 30.47416042 33.40946574 22.85059014 33.5 15.125 C31.19 15.125 28.88 15.125 26.5 15.125 C26.520625 16.259375 26.54125 17.39375 26.5625 18.5625 C26.5 22.125 26.5 22.125 25.5 23.125 C20.4301448 24.05619789 15.62881696 24.21497924 10.5 24.125 C10.5 21.485 10.5 18.845 10.5 16.125 C9.324375 16.145625 8.14875 16.16625 6.9375 16.1875 C2.92970063 16.25781227 -0.37919936 15.71368581 -4.5 15.125 C-4.5 25.355 -4.5 35.585 -4.5 46.125 C-7.965 46.62 -7.965 46.62 -11.5 47.125 C-11.5 51.745 -11.5 56.365 -11.5 61.125 C-14.14 61.455 -16.78 61.785 -19.5 62.125 C-19.5 64.105 -19.5 66.085 -19.5 68.125 C-24.45 68.125 -29.4 68.125 -34.5 68.125 C-34.5 65.815 -34.5 63.505 -34.5 61.125 C-31.73547967 59.74273984 -29.4538637 60.02974613 -26.375 60.0625 C-25.27929688 60.07152344 -24.18359375 60.08054688 -23.0546875 60.08984375 C-22.21164063 60.10144531 -21.36859375 60.11304688 -20.5 60.125 C-20.42652344 58.75214844 -20.42652344 58.75214844 -20.3515625 57.3515625 C-20.27679688 56.16304687 -20.20203125 54.97453125 -20.125 53.75 C-20.02058594 51.97496094 -20.02058594 51.97496094 -19.9140625 50.1640625 C-19.5 47.125 -19.5 47.125 -17.5 45.125 C-14.375 45 -14.375 45 -11.5 45.125 C-11.50785522 43.45159546 -11.50785522 43.45159546 -11.51586914 41.74438477 C-11.53391775 37.62020667 -11.54543149 33.49603209 -11.55493164 29.37182617 C-11.55997218 27.58405979 -11.56680454 25.79629755 -11.57543945 24.00854492 C-11.5875173 21.44448832 -11.59323094 18.88048603 -11.59765625 16.31640625 C-11.60281754 15.5122377 -11.60797882 14.70806915 -11.61329651 13.87953186 C-11.61349215 11.96098285 -11.56201983 10.04254632 -11.5 8.125 C-10.5 7.125 -10.5 7.125 -7.4375 7.0625 C-5.9834375 7.0934375 -5.9834375 7.0934375 -4.5 7.125 C-4.520625 6.155625 -4.54125 5.18625 -4.5625 4.1875 C-4.47363297 -0.1669844 -4.43084524 0.15824447 0 0 Z " fill="#673E39" transform="translate(129.5,0.875)"/>
<path d="M0 0 C1.65 0 3.3 0 5 0 C6 1 6 1 6.0625 4.5625 C6.041875 5.696875 6.02125 6.83125 6 8 C8.31 8 10.62 8 13 8 C13.495 18.395 13.495 18.395 14 29 C11.36 29 8.72 29 6 29 C6 31.97 6 34.94 6 38 C1.38 38 -3.24 38 -8 38 C-8 39.98 -8 41.96 -8 44 C-7.030625 43.979375 -6.06125 43.95875 -5.0625 43.9375 C-2 44 -2 44 -1 45 C-0.95907063 47.33297433 -0.95758277 49.66705225 -1 52 C1.31 52 3.62 52 6 52 C6 66.85 6 81.7 6 97 C3.69 97 1.38 97 -1 97 C-1.33 95.02 -1.66 93.04 -2 91 C-16.85 90.505 -16.85 90.505 -32 90 C-32 92.31 -32 94.62 -32 97 C-34.31 97 -36.62 97 -39 97 C-39 92.05 -39 87.1 -39 82 C-36.69 82 -34.38 82 -32 82 C-32 79.69 -32 77.38 -32 75 C-26.72 75 -21.44 75 -16 75 C-16 52.89 -16 30.78 -16 8 C-14.02 8 -12.04 8 -10 8 C-9.67 10.31 -9.34 12.62 -9 15 C-6.36 15 -3.72 15 -1 15 C-0.67 10.05 -0.34 5.1 0 0 Z " fill="#EFB67E" transform="translate(157,32)"/>
<path d="M0 0 C4.95 0.33 9.9 0.66 15 1 C15 3.64 15 6.28 15 9 C19.95 8.34 24.9 7.68 30 7 C30.33 4.69 30.66 2.38 31 0 C33.31 0 35.62 0 38 0 C38.495 11.385 38.495 11.385 39 23 C40.98 23 42.96 23 45 23 C45 23.33 45 23.66 45 24 C42.69 24 40.38 24 38 24 C37.505 20.535 37.505 20.535 37 17 C35.35 16.67 33.7 16.34 32 16 C32.01160156 17.07121094 32.02320313 18.14242187 32.03515625 19.24609375 C32.04453299 20.64322743 32.05363331 22.04036299 32.0625 23.4375 C32.07087891 24.14455078 32.07925781 24.85160156 32.08789062 25.58007812 C32.09653588 27.38693559 32.05220011 29.19387603 32 31 C31 32 31 32 29.1875 32.1328125 C28.465625 32.13023438 27.74375 32.12765625 27 32.125 C26.278125 32.12757812 25.55625 32.13015625 24.8125 32.1328125 C23 32 23 32 22 31 C21.95907063 28.66702567 21.95758277 26.33294775 22 24 C20.02 24 18.04 24 16 24 C16 46.11 16 68.22 16 91 C15.67 91 15.34 91 15 91 C15 81.43 15 71.86 15 62 C7.74 62 0.48 62 -7 62 C-7.495 58.535 -7.495 58.535 -8 55 C-14.6 55 -21.2 55 -28 55 C-28 57.31 -28 59.62 -28 62 C-31.5922854 64.39485693 -32.96005459 64.17558429 -37.19921875 63.9765625 C-38.40771484 63.925 -39.61621094 63.8734375 -40.86132812 63.8203125 C-42.12396484 63.75585938 -43.38660156 63.69140625 -44.6875 63.625 C-45.96173828 63.56828125 -47.23597656 63.5115625 -48.54882812 63.453125 C-51.69977629 63.31150935 -54.84994472 63.16008115 -58 63 C-58 64.65 -58 66.3 -58 68 C-58.99 68 -59.98 68 -61 68 C-60.67 65.69 -60.34 63.38 -60 61 C-50.1 61 -40.2 61 -30 61 C-30 58.36 -30 55.72 -30 53 C-25.05 53 -20.1 53 -15 53 C-15 51.35 -15 49.7 -15 48 C-15.99 47.505 -15.99 47.505 -17 47 C-13.78548731 45.39274365 -10.56387464 45.94251815 -7 46 C-7 41.38 -7 36.76 -7 32 C-8.65 32 -10.3 32 -12 32 C-12 31.67 -12 31.34 -12 31 C-8.04 31 -4.08 31 0 31 C0 20.77 0 10.54 0 0 Z " fill="#C78759" transform="translate(125,16)"/>
<path d="M0 0 C0.33 0 0.66 0 1 0 C1 2.31 1 4.62 1 7 C2.7015625 6.9690625 2.7015625 6.9690625 4.4375 6.9375 C8 7 8 7 9 8 C9.14426614 12.66845228 9.04208415 17.32865953 9 22 C4.05 22.33 -0.9 22.66 -6 23 C-6 52.37 -6 81.74 -6 112 C-4.02 112 -2.04 112 0 112 C1 113 1 113 1.09765625 116.37890625 C1.09191424 117.77347492 1.07890228 119.16801597 1.0625 120.5625 C1.041875 123.016875 1.02125 125.47125 1 128 C-6.26 128 -13.52 128 -21 128 C-21.66 125.69 -22.32 123.38 -23 121 C-24.175625 121.0928125 -24.175625 121.0928125 -25.375 121.1875 C-26.24125 121.125625 -27.1075 121.06375 -28 121 C-30.36008817 117.45986775 -30.23463644 115.98878045 -30.1953125 111.80078125 C-30.18886719 110.59228516 -30.18242187 109.38378906 -30.17578125 108.13867188 C-30.15902344 106.87603516 -30.14226562 105.61339844 -30.125 104.3125 C-30.11597656 103.03826172 -30.10695312 101.76402344 -30.09765625 100.45117188 C-30.07405722 97.30070146 -30.03818579 94.15032738 -30 91 C-36.93 90.505 -36.93 90.505 -44 90 C-44 87.69 -44 85.38 -44 83 C-34.34945434 82.16728728 -24.68843322 81.55425341 -15 82 C-14 83 -14 83 -13.9375 86.0625 C-13.958125 87.031875 -13.97875 88.00125 -14 89 C-11.69 89 -9.38 89 -7 89 C-7 74.15 -7 59.3 -7 44 C-9.31 44 -11.62 44 -14 44 C-14.33 41.69 -14.66 39.38 -15 37 C-16.98 36.67 -18.96 36.34 -21 36 C-21 34.02 -21 32.04 -21 30 C-16.38 30 -11.76 30 -7 30 C-7 27.03 -7 24.06 -7 21 C-4.36 21 -1.72 21 1 21 C0.7525 19.700625 0.7525 19.700625 0.5 18.375 C-0.39266231 12.30238178 -0.07639812 6.12033868 0 0 Z " fill="#925C3F" transform="translate(170,40)"/>
<path d="M0 0 C9.57 0 19.14 0 29 0 C29 0.33 29 0.66 29 1 C19.76 1 10.52 1 1 1 C1 12.88 1 24.76 1 37 C2.98 37 4.96 37 7 37 C6.979375 35.865625 6.95875 34.73125 6.9375 33.5625 C7 30 7 30 8 29 C10.08075409 28.90056028 12.16491848 28.87200404 14.24804688 28.87060547 C14.90007584 28.86885315 15.5521048 28.86710083 16.22389221 28.86529541 C18.38887153 28.86087796 20.55376979 28.86381449 22.71875 28.8671875 C24.21708187 28.86651443 25.71541363 28.86554438 27.21374512 28.86428833 C30.35783933 28.8628115 33.50190517 28.86496542 36.64599609 28.86962891 C40.68486539 28.8753262 44.72366824 28.87204711 48.7625351 28.86605644 C51.8576508 28.86245042 54.95275065 28.86358961 58.04786682 28.86618423 C59.53748075 28.86685339 61.0270961 28.86602548 62.51670837 28.86370468 C64.59516235 28.86117747 66.67350731 28.86501967 68.75195312 28.87060547 C70.5294696 28.87179886 70.5294696 28.87179886 72.34289551 28.87301636 C75 29 75 29 76 30 C76.04092937 32.33297433 76.04241723 34.66705225 76 37 C78.31 37 80.62 37 83 37 C83 39.31 83 41.62 83 44 C85.31 44 87.62 44 90 44 C90 41.69 90 39.38 90 37 C94.95 37 99.9 37 105 37 C105 37.33 105 37.66 105 38 C100.38 38 95.76 38 91 38 C91 40.64 91 43.28 91 46 C88.69 46 86.38 46 84 46 C84 53.26 84 60.52 84 68 C85.65 68 87.3 68 89 68 C90 69 90 69 90 75 C85.38 75 80.76 75 76 75 C76 64.77 76 54.54 76 44 C77.98 44 79.96 44 82 44 C82 42.35 82 40.7 82 39 C79.69 39 77.38 39 75 39 C74 37 74 37 74 31 C52.55 31 31.1 31 9 31 C9 32.98 9 34.96 9 37 C6.69 37.66 4.38 38.32 2 39 C1.67 48.57 1.34 58.14 1 68 C2.98 68 4.96 68 7 68 C7 70.31 7 72.62 7 75 C2.38 75 -2.24 75 -7 75 C-7 62.79 -7 50.58 -7 38 C-4.69 38 -2.38 38 0 38 C0 25.46 0 12.92 0 0 Z " fill="#9C593E" transform="translate(35,85)"/>
<path d="M0 0 C1.65 0.33 3.3 0.66 5 1 C5 1.66 5 2.32 5 3 C6.14339844 2.98839844 7.28679687 2.97679687 8.46484375 2.96484375 C9.95572754 2.95546712 11.44661309 2.94636679 12.9375 2.9375 C14.06961914 2.92493164 14.06961914 2.92493164 15.22460938 2.91210938 C17.14994313 2.90347559 19.07535581 2.94775667 21 3 C22.76988265 4.76988265 22.13029068 7.31965418 22.1328125 9.71484375 C22.13474609 11.45604492 22.13474609 11.45604492 22.13671875 13.23242188 C22.13285156 14.45509766 22.12898438 15.67777344 22.125 16.9375 C22.13080078 18.76571289 22.13080078 18.76571289 22.13671875 20.63085938 C22.13542969 21.79294922 22.13414062 22.95503906 22.1328125 24.15234375 C22.13168457 25.22476318 22.13055664 26.29718262 22.12939453 27.40209961 C22 30 22 30 21 32 C17.9375 32.625 17.9375 32.625 15 33 C14.34 34.98 13.68 36.96 13 39 C10.03 39.495 10.03 39.495 7 40 C6.67 59.8 6.34 79.6 6 100 C3.69 100 1.38 100 -1 100 C-1 77.89 -1 55.78 -1 33 C6 32 6 32 14 32 C13.67 26.72 13.34 21.44 13 16 C11.35 16 9.7 16 8 16 C8 13.69 8 11.38 8 9 C5.36 8.67 2.72 8.34 0 8 C0 5.36 0 2.72 0 0 Z " fill="#3C2021" transform="translate(165,30)"/>
<path d="M0 0 C6.93 0.495 6.93 0.495 14 1 C14 3.64 14 6.28 14 9 C16.64 9 19.28 9 22 9 C22 10.98 22 12.96 22 15 C21.34 15 20.68 15 20 15 C20 17.31 20 19.62 20 22 C18.02 22 16.04 22 14 22 C14 32.23 14 42.46 14 53 C11.69 53 9.38 53 7 53 C7 50.69 7 48.38 7 46 C4.69 46 2.38 46 0 46 C0 30.82 0 15.64 0 0 Z " fill="#C5733F" transform="translate(126,16)"/>
<path d="M0 0 C4.95 0 9.9 0 15 0 C15 2.31 15 4.62 15 7 C17.31 7 19.62 7 22 7 C22 16.9 22 26.8 22 37 C26.95 37 31.9 37 37 37 C37 34.36 37 31.72 37 29 C34.69 29 32.38 29 30 29 C30 22.07 30 15.14 30 8 C32.64 8 35.28 8 38 8 C38 14.93 38 21.86 38 29 C39.98 29 41.96 29 44 29 C45 30 45 30 45.09765625 33.37890625 C45.09191424 34.77347492 45.07890228 36.16801597 45.0625 37.5625 C45.041875 40.016875 45.02125 42.47125 45 45 C37.74 45 30.48 45 23 45 C22.01 41.535 22.01 41.535 21 38 C19.824375 38.0928125 19.824375 38.0928125 18.625 38.1875 C17.75875 38.125625 16.8925 38.06375 16 38 C13.63991183 34.45986775 13.76536356 32.98878045 13.8046875 28.80078125 C13.81113281 27.59228516 13.81757813 26.38378906 13.82421875 25.13867188 C13.84097656 23.87603516 13.85773438 22.61339844 13.875 21.3125 C13.88402344 20.03826172 13.89304688 18.76402344 13.90234375 17.45117188 C13.92594278 14.30070146 13.96181421 11.15032738 14 8 C7.07 7.505 7.07 7.505 0 7 C0 4.69 0 2.38 0 0 Z " fill="#4B2923" transform="translate(126,123)"/>
<path d="M0 0 C3.5 0.125 3.5 0.125 4.5 1.125 C4.54080783 3.12458364 4.54254356 5.12545254 4.5 7.125 C1.86 7.455 -0.78 7.785 -3.5 8.125 C-3.5 9.115 -3.5 10.105 -3.5 11.125 C-2.84 11.125 -2.18 11.125 -1.5 11.125 C-1.83 12.445 -2.16 13.765 -2.5 15.125 C-3.16 15.125 -3.82 15.125 -4.5 15.125 C-4.5 25.355 -4.5 35.585 -4.5 46.125 C-7.965 46.62 -7.965 46.62 -11.5 47.125 C-11.5 51.745 -11.5 56.365 -11.5 61.125 C-14.14 61.455 -16.78 61.785 -19.5 62.125 C-19.5 64.105 -19.5 66.085 -19.5 68.125 C-24.45 68.125 -29.4 68.125 -34.5 68.125 C-34.5 65.815 -34.5 63.505 -34.5 61.125 C-31.73547967 59.74273984 -29.4538637 60.02974613 -26.375 60.0625 C-25.27929688 60.07152344 -24.18359375 60.08054688 -23.0546875 60.08984375 C-22.21164063 60.10144531 -21.36859375 60.11304688 -20.5 60.125 C-20.42652344 58.75214844 -20.42652344 58.75214844 -20.3515625 57.3515625 C-20.27679688 56.16304687 -20.20203125 54.97453125 -20.125 53.75 C-20.02058594 51.97496094 -20.02058594 51.97496094 -19.9140625 50.1640625 C-19.5 47.125 -19.5 47.125 -17.5 45.125 C-14.375 45 -14.375 45 -11.5 45.125 C-11.50785522 43.45159546 -11.50785522 43.45159546 -11.51586914 41.74438477 C-11.53391775 37.62020667 -11.54543149 33.49603209 -11.55493164 29.37182617 C-11.55997218 27.58405979 -11.56680454 25.79629755 -11.57543945 24.00854492 C-11.5875173 21.44448832 -11.59323094 18.88048603 -11.59765625 16.31640625 C-11.60281754 15.5122377 -11.60797882 14.70806915 -11.61329651 13.87953186 C-11.61349215 11.96098285 -11.56201983 10.04254632 -11.5 8.125 C-10.5 7.125 -10.5 7.125 -7.4375 7.0625 C-5.9834375 7.0934375 -5.9834375 7.0934375 -4.5 7.125 C-4.520625 6.155625 -4.54125 5.18625 -4.5625 4.1875 C-4.47363297 -0.1669844 -4.43084524 0.15824447 0 0 Z " fill="#462625" transform="translate(129.5,0.875)"/>
<path d="M0 0 C2.31 0 4.62 0 7 0 C7.66 2.31 8.32 4.62 9 7 C15.93 7 22.86 7 30 7 C30 4.69 30 2.38 30 0 C39.9 0 49.8 0 60 0 C60 2.64 60 5.28 60 8 C50.1 8 40.2 8 30 8 C30 10.31 30 12.62 30 15 C20.1 15 10.2 15 0 15 C0 10.05 0 5.1 0 0 Z " fill="#492926" transform="translate(35,69)"/>
<path d="M0 0 C0.33 0 0.66 0 1 0 C1 15.18 1 30.36 1 46 C3.31 46 5.62 46 8 46 C8 48.31 8 50.62 8 53 C10.31 53 12.62 53 15 53 C15 55.31 15 57.62 15 60 C8.07 60 1.14 60 -6 60 C-6.33 57.69 -6.66 55.38 -7 53 C-9.64 53 -12.28 53 -15 53 C-15 51.35 -15 49.7 -15 48 C-15.66 47.67 -16.32 47.34 -17 47 C-13.78548731 45.39274365 -10.56387464 45.94251815 -7 46 C-7 41.38 -7 36.76 -7 32 C-8.65 32 -10.3 32 -12 32 C-12 31.67 -12 31.34 -12 31 C-8.04 31 -4.08 31 0 31 C0 20.77 0 10.54 0 0 Z " fill="#874237" transform="translate(125,16)"/>
<path d="M0 0 C2.47923801 -0.02685095 4.9581884 -0.04676547 7.4375 -0.0625 C8.14455078 -0.07087891 8.85160156 -0.07925781 9.58007812 -0.08789062 C11.38693559 -0.09653588 13.19387603 -0.05220011 15 0 C16 1 16 1 16.0625 4.0625 C16.041875 5.031875 16.02125 6.00125 16 7 C18.31 7 20.62 7 23 7 C23 7.33 23 7.66 23 8 C20.36 8 17.72 8 15 8 C15.33 15.59 15.66 23.18 16 31 C17.98 31.33 19.96 31.66 22 32 C22 33.65 22 35.3 22 37 C18.04 37 14.08 37 10 37 C10 27.43 10 17.86 10 8 C7.03 8 4.06 8 1 8 C0.67 5.36 0.34 2.72 0 0 Z " fill="#C67440" transform="translate(140,122)"/>
<path d="M0 0 C0.87454834 0.00523682 1.74909668 0.01047363 2.65014648 0.01586914 C3.59438477 0.0190918 4.53862305 0.02231445 5.51147461 0.02563477 C6.50469727 0.03401367 7.49791992 0.04239258 8.52124023 0.05102539 C9.51833008 0.05553711 10.51541992 0.06004883 11.54272461 0.06469727 C14.01478872 0.07652532 16.48673541 0.0930069 18.95874023 0.11352539 C19.28874023 2.42352539 19.61874023 4.73352539 19.95874023 7.11352539 C9.06874023 7.60852539 9.06874023 7.60852539 -2.04125977 8.11352539 C-2.04125977 15.04352539 -2.04125977 21.97352539 -2.04125977 29.11352539 C-4.35125977 29.11352539 -6.66125977 29.11352539 -9.04125977 29.11352539 C-9.04125977 21.85352539 -9.04125977 14.59352539 -9.04125977 7.11352539 C-7.06125977 7.11352539 -5.08125977 7.11352539 -3.04125977 7.11352539 C-3.06188477 6.14415039 -3.08250977 5.17477539 -3.10375977 4.17602539 C-3.02196471 0.16806765 -3.02196471 0.16806765 0 0 Z " fill="#3E1F20" transform="translate(83.041259765625,122.886474609375)"/>
<path d="M0 0 C1.97909398 -0.02686553 3.95828971 -0.04633375 5.9375 -0.0625 C7.03964844 -0.07410156 8.14179688 -0.08570312 9.27734375 -0.09765625 C12 0 12 0 13 1 C13.08851529 3.59359322 13.11525945 6.16039691 13.09765625 8.75390625 C13.0962413 9.52935287 13.09482635 10.3047995 13.09336853 11.10374451 C13.08775345 13.59003494 13.07519846 16.0762366 13.0625 18.5625 C13.05748694 20.24413933 13.0529237 21.92578006 13.04882812 23.60742188 C13.03777913 27.73831566 13.02050445 31.86914276 13 36 C10.69 36 8.38 36 6 36 C6 26.1 6 16.2 6 6 C3.69 6 1.38 6 -1 6 C-1.33 5.01 -1.66 4.02 -2 3 C-1.34 3 -0.68 3 0 3 C0 2.01 0 1.02 0 0 Z " fill="#412427" transform="translate(21,86)"/>
<path d="M0 0 C3.63 0 7.26 0 11 0 C11.33 1.65 11.66 3.3 12 5 C14.64 5.66 17.28 6.32 20 7 C20 16.9 20 26.8 20 37 C18.35 37 16.7 37 15 37 C13 35 13 35 12.77294922 32.11083984 C12.78342285 30.90637207 12.79389648 29.7019043 12.8046875 28.4609375 C12.81435547 26.50800781 12.81435547 26.50800781 12.82421875 24.515625 C12.84093071 23.13541405 12.85786061 21.75520571 12.875 20.375 C12.88502994 18.98698548 12.89415577 17.59896411 12.90234375 16.2109375 C12.92598069 12.80721808 12.96185269 9.40358772 13 6 C8.71 6 4.42 6 0 6 C0 4.02 0 2.04 0 0 Z " fill="#3C211F" transform="translate(44,124)"/>
<path d="M0 0 C1.134375 0.020625 2.26875 0.04125 3.4375 0.0625 C3.1075 0.7225 2.7775 1.3825 2.4375 2.0625 C2.35066555 4.83410626 2.3219421 7.58024765 2.33984375 10.3515625 C2.3412587 11.16998627 2.34267365 11.98841003 2.34413147 12.83163452 C2.3497371 15.45029325 2.36229052 18.06886704 2.375 20.6875 C2.38001428 22.46093627 2.38457731 24.23437387 2.38867188 26.0078125 C2.39970836 30.35940782 2.41697675 34.7109395 2.4375 39.0625 C0.0625 39.1875 0.0625 39.1875 -2.5625 39.0625 C-5.11683751 36.50816249 -4.79980793 34.85516117 -4.81474304 31.37278748 C-4.80396477 30.21179283 -4.80396477 30.21179283 -4.79296875 29.02734375 C-4.79251053 28.2334877 -4.79205231 27.43963165 -4.7915802 26.62171936 C-4.78855765 24.94302883 -4.78067125 23.2643411 -4.76831055 21.58569336 C-4.75004885 19.00689842 -4.74780087 16.42846223 -4.74804688 13.84960938 C-4.74313196 12.22135104 -4.73730376 10.59309516 -4.73046875 8.96484375 C-4.72935593 8.18882309 -4.7282431 7.41280243 -4.72709656 6.61326599 C-4.66875414 0.08190797 -4.66875414 0.08190797 0 0 Z " fill="#402322" transform="translate(23.5625,121.9375)"/>
<path d="M0 0 C2.31 0 4.62 0 7 0 C7.33 7.26 7.66 14.52 8 22 C9.98 22.33 11.96 22.66 14 23 C14 25.31 14 27.62 14 30 C9.38 30 4.76 30 0 30 C0 20.1 0 10.2 0 0 Z " fill="#F0B880" transform="translate(28,130)"/>
<path d="M0 0 C2.31 0 4.62 0 7 0 C7.33 7.26 7.66 14.52 8 22 C9.98 22.66 11.96 23.32 14 24 C14 25.98 14 27.96 14 30 C9.38 30 4.76 30 0 30 C0 20.1 0 10.2 0 0 Z " fill="#F2B780" transform="translate(111,130)"/>
<path d="M0 0 C0.33 0 0.66 0 1 0 C1 7.59 1 15.18 1 23 C5.95 23 10.9 23 16 23 C16 23.66 16 24.32 16 25 C10.72 25 5.44 25 0 25 C0 24.34 0 23.68 0 23 C-1.32 23 -2.64 23 -4 23 C-4.33 25.31 -4.66 27.62 -5 30 C-4.05125 29.979375 -3.1025 29.95875 -2.125 29.9375 C1 30 1 30 3 31 C3 33.31 3 35.62 3 38 C4.65 38 6.3 38 8 38 C8 38.33 8 38.66 8 39 C5.69 39 3.38 39 1 39 C0.67 36.69 0.34 34.38 0 32 C-1.98 31.67 -3.96 31.34 -6 31 C-6.95468258 24.62542652 -7.1202324 18.43938347 -7.0625 12 C-7.05798828 11.03449219 -7.05347656 10.06898437 -7.04882812 9.07421875 C-7.03715417 6.71607911 -7.02078021 4.35807398 -7 2 C-4.69 2 -2.38 2 0 2 C0 1.34 0 0.68 0 0 Z " fill="#53332D" transform="translate(170,8)"/>
<path d="M0 0 C1.98 0 3.96 0 6 0 C6 5.28 6 10.56 6 16 C2.04 16.495 2.04 16.495 -2 17 C-2 18.98 -2 20.96 -2 23 C-6.95 23 -11.9 23 -17 23 C-17 20.69 -17 18.38 -17 16 C-14.23547967 14.61773984 -11.9538637 14.90474613 -8.875 14.9375 C-7.77929688 14.94652344 -6.68359375 14.95554687 -5.5546875 14.96484375 C-4.71164063 14.97644531 -3.86859375 14.98804688 -3 15 C-2.95101562 14.08476563 -2.90203125 13.16953125 -2.8515625 12.2265625 C-2.77679688 11.03804687 -2.70203125 9.84953125 -2.625 8.625 C-2.52058594 6.84996094 -2.52058594 6.84996094 -2.4140625 5.0390625 C-2 2 -2 2 0 0 Z " fill="#442322" transform="translate(112,46)"/>
<path d="M0 0 C2.475 0.495 2.475 0.495 5 1 C5 5.95 5 10.9 5 16 C-2.59 16 -10.18 16 -18 16 C-18 14.02 -18 12.04 -18 10 C-14.99686252 8.49843126 -12.20932478 8.90718796 -8.875 8.9375 C-7.59367187 8.94652344 -6.31234375 8.95554688 -4.9921875 8.96484375 C-4.00476562 8.97644531 -3.01734375 8.98804688 -2 9 C-2.04125 7.88625 -2.0825 6.7725 -2.125 5.625 C-2 2 -2 2 0 0 Z " fill="#3A1E1E" transform="translate(45,152)"/>
<path d="M0 0 C2.97 0.495 2.97 0.495 6 1 C6 5.95 6 10.9 6 16 C-1.59 16 -9.18 16 -17 16 C-17 14.02 -17 12.04 -17 10 C-14.16730334 8.58365167 -11.52533562 8.6536995 -8.375 8.4375 C-6.59222656 8.31181641 -6.59222656 8.31181641 -4.7734375 8.18359375 C-3.85820313 8.12300781 -2.94296875 8.06242188 -2 8 C-1.34 5.36 -0.68 2.72 0 0 Z " fill="#3D2122" transform="translate(82,152)"/>
<path d="M0 0 C1.67542976 0.28604898 3.34385343 0.61781233 5 1 C5.19448477 3.12437212 5.38038289 5.24953191 5.5625 7.375 C5.66691406 8.55835938 5.77132812 9.74171875 5.87890625 10.9609375 C6 14 6 14 5 16 C1.35418313 16.02887512 -2.29160463 16.04675585 -5.9375 16.0625 C-7.49887695 16.07506836 -7.49887695 16.07506836 -9.09179688 16.08789062 C-10.08115234 16.09111328 -11.07050781 16.09433594 -12.08984375 16.09765625 C-13.46450806 16.10551147 -13.46450806 16.10551147 -14.86694336 16.11352539 C-17 16 -17 16 -18 15 C-18 13.35 -18 11.7 -18 10 C-9.585 9.505 -9.585 9.505 -1 9 C-1 6.36 -1 3.72 -1 1 C-0.67 0.67 -0.34 0.34 0 0 Z " fill="#3B2022" transform="translate(128,152)"/>
<path d="M0 0 C7.59 0 15.18 0 23 0 C23.495 3.465 23.495 3.465 24 7 C30.93 7 37.86 7 45 7 C45 7.66 45 8.32 45 9 C37.74 9 30.48 9 23 9 C22.505 5.535 22.505 5.535 22 2 C15.4 2 8.8 2 2 2 C2 4.31 2 6.62 2 9 C-1.5922854 11.39485693 -2.96005459 11.17558429 -7.19921875 10.9765625 C-8.40771484 10.925 -9.61621094 10.8734375 -10.86132812 10.8203125 C-12.12396484 10.75585938 -13.38660156 10.69140625 -14.6875 10.625 C-15.96173828 10.56828125 -17.23597656 10.5115625 -18.54882812 10.453125 C-21.69977629 10.31150935 -24.84994472 10.16008115 -28 10 C-28 11.65 -28 13.3 -28 15 C-28.99 15 -29.98 15 -31 15 C-30.67 12.69 -30.34 10.38 -30 8 C-20.1 8 -10.2 8 0 8 C0 5.36 0 2.72 0 0 Z " fill="#A6603C" transform="translate(95,69)"/>
<path d="M0 0 C1.98 0 3.96 0 6 0 C6 10.23 6 20.46 6 31 C4.02 30.67 2.04 30.34 0 30 C0 20.1 0 10.2 0 0 Z " fill="#3D2324" transform="translate(103,130)"/>
<path d="M0 0 C3.3 0 6.6 0 10 0 C10 0.66 10 1.32 10 2 C11.32 1.34 12.64 0.68 14 0 C13.67 1.65 13.34 3.3 13 5 C11.02 5.33 9.04 5.66 7 6 C6.67 18.87 6.34 31.74 6 45 C5.67 45 5.34 45 5 45 C5 36.09 5 27.18 5 18 C3.35 19.32 1.7 20.64 0 22 C0 14.74 0 7.48 0 0 Z " fill="#371C1E" transform="translate(165,64)"/>
<path d="M0 0 C1.98 0 3.96 0 6 0 C6 9.24 6 18.48 6 28 C4.35 28.33 2.7 28.66 1 29 C-1.36511111 25.45233334 -1.18013277 24.1927218 -0.9765625 20.01953125 C-0.925 18.85615234 -0.8734375 17.69277344 -0.8203125 16.49414062 C-0.75585938 15.27919922 -0.69140625 14.06425781 -0.625 12.8125 C-0.56828125 11.58595703 -0.5115625 10.35941406 -0.453125 9.09570312 C-0.31153051 6.06322112 -0.16010492 3.03155194 0 0 Z " fill="#3E2122" transform="translate(141,132)"/>
<path d="M0 0 C1.86785156 0.01353516 1.86785156 0.01353516 3.7734375 0.02734375 C5.18496094 0.04474609 5.18496094 0.04474609 6.625 0.0625 C7.1631968 1.43079696 7.67972409 2.80762465 8.1875 4.1875 C8.47753906 4.95320312 8.76757812 5.71890625 9.06640625 6.5078125 C9.625 9.0625 9.625 9.0625 8.625 15.0625 C12.915 15.0625 17.205 15.0625 21.625 15.0625 C21.625 15.3925 21.625 15.7225 21.625 16.0625 C16.54413204 16.90931133 11.77671623 17.15288099 6.625 17.0625 C6.625 14.4225 6.625 11.7825 6.625 9.0625 C5.408125 9.083125 4.19125 9.10375 2.9375 9.125 C-0.29477322 9.13074116 -3.22434741 8.85016315 -6.375 8.0625 C-6.045 6.7425 -5.715 5.4225 -5.375 4.0625 C-6.035 4.0625 -6.695 4.0625 -7.375 4.0625 C-7.375 3.4025 -7.375 2.7425 -7.375 2.0625 C-9.355 2.0625 -11.335 2.0625 -13.375 2.0625 C-13.375 1.7325 -13.375 1.4025 -13.375 1.0625 C-8.85684719 0.17972245 -4.59987306 -0.04339503 0 0 Z " fill="#6E3E3C" transform="translate(133.375,7.9375)"/>
<path d="M0 0 C1.81242052 -0.02687279 3.62495233 -0.04633715 5.4375 -0.0625 C6.44683594 -0.07410156 7.45617187 -0.08570312 8.49609375 -0.09765625 C11 0 11 0 12 1 C12.14355117 5.00220653 12.04216403 8.99441683 12 13 C8.04 13 4.08 13 0 13 C-1.18306728 10.63386544 -1.13354608 9.13219264 -1.125 6.5 C-1.12757812 5.7059375 -1.13015625 4.911875 -1.1328125 4.09375 C-1 2 -1 2 0 0 Z " fill="#853E37" transform="translate(22,71)"/>
<path d="M0 0 C9.57 0 19.14 0 29 0 C29 0.33 29 0.66 29 1 C19.76 1 10.52 1 1 1 C1 12.88 1 24.76 1 37 C2.98 37 4.96 37 7 37 C7 34.69 7 32.38 7 30 C7.33 30 7.66 30 8 30 C8 32.64 8 35.28 8 38 C5.03 38.495 5.03 38.495 2 39 C1.67 48.24 1.34 57.48 1 67 C0.67 67 0.34 67 0 67 C0 59.74 0 52.48 0 45 C-2.31 45 -4.62 45 -7 45 C-7 42.69 -7 40.38 -7 38 C-4.69 38 -2.38 38 0 38 C0 25.46 0 12.92 0 0 Z " fill="#9B5C3C" transform="translate(35,85)"/>
<path d="M0 0 C0.33 0 0.66 0 1 0 C1 12.21 1 24.42 1 37 C-1.31 37 -3.62 37 -6 37 C-6 49.21 -6 61.42 -6 74 C-1.38 74 3.24 74 8 74 C8 71.69 8 69.38 8 67 C6.02 67 4.04 67 2 67 C2 66.67 2 66.34 2 66 C4.97 66 7.94 66 11 66 C10.34 68.97 9.68 71.94 9 75 C6.35448944 75.19386492 3.70882217 75.38038267 1.0625 75.5625 C-0.06961914 75.64661133 -0.06961914 75.64661133 -1.22460938 75.73242188 C-3.14745958 75.86176157 -5.07389548 75.93516912 -7 76 C-8 75 -8 75 -8.11352539 71.48999023 C-8.11336626 69.92951578 -8.10767142 68.36903607 -8.09765625 66.80859375 C-8.09553383 65.57883568 -8.09553383 65.57883568 -8.09336853 64.32423401 C-8.08775289 61.69528618 -8.07519779 59.06642227 -8.0625 56.4375 C-8.05748701 54.65950643 -8.05292376 52.88151154 -8.04882812 51.10351562 C-8.03777839 46.73564455 -8.02050331 42.36783652 -8 38 C-9.32 37.67 -10.64 37.34 -12 37 C-7.7345163 35.96594335 -4.62683027 36 0 36 C0 24.12 0 12.24 0 0 Z " fill="#7A5039" transform="translate(34,86)"/>
<path d="M0 0 C2.31 0 4.62 0 7 0 C7 7.26 7 14.52 7 22 C4.69 22 2.38 22 0 22 C0 14.74 0 7.48 0 0 Z " fill="#412525" transform="translate(36,130)"/>
<path d="M0 0 C1.31742188 0.00644531 2.63484375 0.01289062 3.9921875 0.01953125 C7.125 0.1875 7.125 0.1875 8.125 1.1875 C8.16580783 3.18708364 8.16754356 5.18795254 8.125 7.1875 C10.105 7.1875 12.085 7.1875 14.125 7.1875 C14.15005615 8.12134521 14.1751123 9.05519043 14.20092773 10.01733398 C14.29586928 13.47075189 14.39511258 16.9239896 14.49731445 20.37719727 C14.54071813 21.87389269 14.58238913 23.37063939 14.62231445 24.86743164 C14.67988616 27.01464312 14.74361716 29.16159521 14.80859375 31.30859375 C14.84525146 32.6020874 14.88190918 33.89558105 14.91967773 35.22827148 C14.7917278 38.07305008 14.7917278 38.07305008 16.125 39.1875 C16.16563832 40.85367115 16.167721 42.52138095 16.125 44.1875 C15.898125 43.56875 15.67125 42.95 15.4375 42.3125 C13.74570165 39.57339791 12.13255839 39.13725528 9.125 38.1875 C11.105 37.6925 11.105 37.6925 13.125 37.1875 C13.125 27.9475 13.125 18.7075 13.125 9.1875 C10.155 8.6925 10.155 8.6925 7.125 8.1875 C6.465 7.8575 5.805 7.5275 5.125 7.1875 C4.795 5.8675 4.465 4.5475 4.125 3.1875 C0.495 2.8575 -3.135 2.5275 -6.875 2.1875 C-6.875 4.1675 -6.875 6.1475 -6.875 8.1875 C-9.515 8.1875 -12.155 8.1875 -14.875 8.1875 C-14.875 6.2075 -14.875 4.2275 -14.875 2.1875 C-9.75133962 0.50401159 -5.45264115 -0.0593852 0 0 Z " fill="#5B2D2C" transform="translate(50.875,121.8125)"/>
<path d="M0 0 C2.31 0 4.62 0 7 0 C7 6.93 7 13.86 7 21 C4.69 21 2.38 21 0 21 C0 14.07 0 7.14 0 0 Z " fill="#3C1F20" transform="translate(119,131)"/>
<path d="M0 0 C4.62 0 9.24 0 14 0 C14 4.62 14 9.24 14 14 C11.69 14 9.38 14 7 14 C6.67 11.69 6.34 9.38 6 7 C3.03 6.505 3.03 6.505 0 6 C0 4.02 0 2.04 0 0 Z " fill="#C87744" transform="translate(149,70)"/>
<path d="M0 0 C1.97909398 -0.02686553 3.95828971 -0.04633375 5.9375 -0.0625 C7.03964844 -0.07410156 8.14179688 -0.08570312 9.27734375 -0.09765625 C12 0 12 0 13 1 C13.08790975 3.29151417 13.10694038 5.58572524 13.09765625 7.87890625 C13.0962413 8.5655687 13.09482635 9.25223114 13.09336853 9.95970154 C13.08775479 12.16067801 13.07520007 14.36155409 13.0625 16.5625 C13.05748676 18.05143083 13.05292355 19.54036324 13.04882812 21.02929688 C13.03778093 24.68623075 13.02050713 28.34310558 13 32 C12.67 32 12.34 32 12 32 C12 22.76 12 13.52 12 4 C10.02 4.99 10.02 4.99 8 6 C7.67 15.9 7.34 25.8 7 36 C6.67 36 6.34 36 6 36 C6 26.1 6 16.2 6 6 C3.69 6 1.38 6 -1 6 C-1.33 5.01 -1.66 4.02 -2 3 C-1.34 3 -0.68 3 0 3 C0 2.01 0 1.02 0 0 Z " fill="#381E21" transform="translate(21,86)"/>
<path d="M0 0 C0 3.96 0 7.92 0 12 C-4.29 12 -8.58 12 -13 12 C-13 9.69 -13 7.38 -13 5 C-11.02 5 -9.04 5 -7 5 C-7 3.35 -7 1.7 -7 0 C-5 -1 -5 -1 0 0 Z " fill="#3E201F" transform="translate(155,11)"/>
<path d="M0 0 C1.65 0 3.3 0 5 0 C3.68 0.33 2.36 0.66 1 1 C1 10.24 1 19.48 1 29 C2.65 29 4.3 29 6 29 C6 19.43 6 9.86 6 0 C6.33 0 6.66 0 7 0 C7.33 7.26 7.66 14.52 8 22 C9.98 22.66 11.96 23.32 14 24 C14 25.98 14 27.96 14 30 C9.38 30 4.76 30 0 30 C0 20.1 0 10.2 0 0 Z " fill="#D5A277" transform="translate(111,130)"/>
<path d="M0 0 C2.64 0 5.28 0 8 0 C8.02685412 2.31243792 8.04632841 4.6249627 8.0625 6.9375 C8.07410156 8.22527344 8.08570313 9.51304688 8.09765625 10.83984375 C8 14 8 14 7 15 C4 15.125 4 15.125 1 15 C0 14 0 14 -0.09765625 10.83984375 C-0.08025391 8.90818359 -0.08025391 8.90818359 -0.0625 6.9375 C-0.05347656 5.64714844 -0.04445312 4.35679688 -0.03515625 3.02734375 C-0.02355469 2.02832031 -0.01195312 1.02929688 0 0 Z " fill="#56342B" transform="translate(148,32)"/>
<path d="M0 0 C4.95 0 9.9 0 15 0 C15 0.33 15 0.66 15 1 C8.565 1.495 8.565 1.495 2 2 C1.34 4.31 0.68 6.62 0 9 C-1.98 9 -3.96 9 -6 9 C-6 9.66 -6 10.32 -6 11 C-5.01 10.67 -4.02 10.34 -3 10 C-3 10.66 -3 11.32 -3 12 C-2.34 12 -1.68 12 -1 12 C0.1577506 15.47325181 0.06866652 18.36067448 0 22 C-2.31 22 -4.62 22 -7 22 C-7 17.05 -7 12.1 -7 7 C-4.69 7 -2.38 7 0 7 C0 4.69 0 2.38 0 0 Z " fill="#E7A974" transform="translate(125,107)"/>
<path d="M0 0 C2.31 0 4.62 0 7 0 C7.33 7.26 7.66 14.52 8 22 C9.98 22.33 11.96 22.66 14 23 C14 25.31 14 27.62 14 30 C9.38 30 4.76 30 0 30 C0 20.1 0 10.2 0 0 Z M1 3 C0.58262128 5.71483594 0.58262128 5.71483594 0.70703125 8.8828125 C0.71669922 10.04941406 0.72636719 11.21601563 0.73632812 12.41796875 C0.76146484 13.64128906 0.78660156 14.86460937 0.8125 16.125 C0.82603516 17.35605469 0.83957031 18.58710938 0.85351562 19.85546875 C0.8889617 22.90383082 0.94276993 25.95196909 1 29 C4.96 29 8.92 29 13 29 C13 27.35 13 25.7 13 24 C11.02 24 9.04 24 7 24 C7 23.34 7 22.68 7 22 C6.34 22 5.68 22 5 22 C5 15.07 5 8.14 5 1 C3.53774984 0.90754997 3.53774984 0.90754997 1 3 Z " fill="#D3A074" transform="translate(28,130)"/>
<path d="M0 0 C1.65 0 3.3 0 5 0 C4.84660156 1.051875 4.69320312 2.10375 4.53515625 3.1875 C3.79552465 9.10455276 3.64554912 15.04502033 3.4375 21 C3.39431641 22.15628906 3.35113281 23.31257813 3.30664062 24.50390625 C3.20132083 27.33583854 3.09918913 30.16784747 3 33 C1.515 33.495 1.515 33.495 0 34 C-0.04938628 29.76417673 -0.08571263 25.52850535 -0.10986328 21.29248047 C-0.11992963 19.85104453 -0.1335838 18.40962905 -0.15087891 16.96826172 C-0.17510012 14.89806066 -0.18647641 12.82812924 -0.1953125 10.7578125 C-0.20578613 9.5114502 -0.21625977 8.26508789 -0.22705078 6.98095703 C0 4 0 4 2 2 C1.34 2 0.68 2 0 2 C0 1.34 0 0.68 0 0 Z " fill="#3A2125" transform="translate(120,11)"/>
<path d="M0 0 C2.31 0 4.62 0 7 0 C7 0.99 7 1.98 7 3 C7.15551489 5.2299724 7.32349235 7.45909096 7.5 9.6875 C7.5928125 10.86699219 7.685625 12.04648438 7.78125 13.26171875 C7.8534375 14.16535156 7.925625 15.06898437 8 16 C5.66705225 16.04241723 3.33297433 16.04092937 1 16 C0 15 0 15 -0.09765625 11.62109375 C-0.09098369 10.22652923 -0.07902532 8.83198257 -0.0625 7.4375 C-0.05798828 6.72658203 -0.05347656 6.01566406 -0.04882812 5.28320312 C-0.03700864 3.52209987 -0.01907263 1.76103964 0 0 Z " fill="#3F2423" transform="translate(12,69)"/>
<path d="M0 0 C6.27 0 12.54 0 19 0 C18.01 1.485 18.01 1.485 17 3 C17 4.32 17 5.64 17 7 C10.07 7 3.14 7 -4 7 C-4 6.67 -4 6.34 -4 6 C-2.02 6 -0.04 6 2 6 C2 4.35 2 2.7 2 1 C1.34 0.67 0.68 0.34 0 0 Z " fill="#392022" transform="translate(46,76)"/>
<path d="M0 0 C1.98 0 3.96 0 6 0 C6 5.94 6 11.88 6 18 C4.02 18.33 2.04 18.66 0 19 C0 12.73 0 6.46 0 0 Z " fill="#3C2123" transform="translate(158,132)"/>
<path d="M0 0 C1.28132813 0.00902344 2.56265625 0.01804688 3.8828125 0.02734375 C4.87023438 0.03894531 5.85765625 0.05054688 6.875 0.0625 C6.545 0.7225 6.215 1.3825 5.875 2.0625 C6.205 3.7125 6.535 5.3625 6.875 7.0625 C1.595 7.0625 -3.685 7.0625 -9.125 7.0625 C-9.125 5.0825 -9.125 3.1025 -9.125 1.0625 C-6.12186252 -0.43906874 -3.33432478 -0.03031204 0 0 Z " fill="#412526" transform="translate(36.125,160.9375)"/>
<path d="M0 0 C-0.66 1.32 -1.32 2.64 -2 4 C-2.66 4 -3.32 4 -4 4 C-4 3.34 -4 2.68 -4 2 C-7.3 2 -10.6 2 -14 2 C-14 23.78 -14 45.56 -14 68 C-14.33 68 -14.66 68 -15 68 C-15 45.89 -15 23.78 -15 1 C-9.64210878 0.23458697 -5.29481709 -0.09289153 0 0 Z " fill="#54322A" transform="translate(179,62)"/>
<path d="M0 0 C0.33 0 0.66 0 1 0 C1.33 2.64 1.66 5.28 2 8 C3.65 8.33 5.3 8.66 7 9 C7.33 12.96 7.66 16.92 8 21 C5.69 21 3.38 21 1 21 C-0.32719886 14.03220597 -0.08825381 7.07011089 0 0 Z " fill="#C8814E" transform="translate(170,40)"/>
<path d="M0 0 C0.33 0 0.66 0 1 0 C1 9.24 1 18.48 1 28 C5.95 28 10.9 28 16 28 C15.67 26.02 15.34 24.04 15 22 C13.35 21.67 11.7 21.34 10 21 C10 20.67 10 20.34 10 20 C12.97 20 15.94 20 19 20 C18.4140625 26.93359375 18.4140625 26.93359375 18 29 C15.11584117 30.44207941 12.58278472 30.09394887 9.375 30.0625 C8.18648437 30.05347656 6.99796875 30.04445312 5.7734375 30.03515625 C4.85820313 30.02355469 3.94296875 30.01195312 3 30 C2.67 31.32 2.34 32.64 2 34 C0.0557641 29.91979559 -0.23494474 26.6662283 -0.1953125 22.16796875 C-0.18886719 20.87568359 -0.18242188 19.58339844 -0.17578125 18.25195312 C-0.15907327 16.8971327 -0.14214342 15.54231499 -0.125 14.1875 C-0.11496003 12.81315749 -0.10583596 11.43880797 -0.09765625 10.06445312 C-0.07411242 6.70945683 -0.04122567 3.35481801 0 0 Z " fill="#57362B" transform="translate(109,132)"/>
<path d="M0 0 C0.33 0 0.66 0 1 0 C1 4.29 1 8.58 1 13 C0.67 12.34 0.34 11.68 0 11 C-0.66 11 -1.32 11 -2 11 C-1.67 11.99 -1.34 12.98 -1 14 C-2.98 14.99 -2.98 14.99 -5 16 C-6.33583899 11.15758367 -7.25328119 7.06562383 -7 2 C-4.69 2 -2.38 2 0 2 C0 1.34 0 0.68 0 0 Z " fill="#412422" transform="translate(170,8)"/>
<path d="M0 0 C0.33 0 0.66 0 1 0 C1.33 6.93 1.66 13.86 2 21 C2.33 17.7 2.66 14.4 3 11 C3.66 10.67 4.32 10.34 5 10 C5 15 5 20 5 25 C5.33 25.99 5.66 26.98 6 28 C4.35 28.33 2.7 28.66 1 29 C-1.36511111 25.45233334 -1.18013277 24.1927218 -0.9765625 20.01953125 C-0.925 18.85615234 -0.8734375 17.69277344 -0.8203125 16.49414062 C-0.75585938 15.27919922 -0.69140625 14.06425781 -0.625 12.8125 C-0.56828125 11.58595703 -0.5115625 10.35941406 -0.453125 9.09570312 C-0.31153051 6.06322112 -0.16010492 3.03155194 0 0 Z " fill="#311719" transform="translate(141,132)"/>
<path d="M0 0 C0.33 0 0.66 0 1 0 C1.33 2.64 1.66 5.28 2 8 C2.33 8 2.66 8 3 8 C3.33 6.35 3.66 4.7 4 3 C4.33 3 4.66 3 5 3 C5.02696365 4.79158489 5.04637917 6.58328473 5.0625 8.375 C5.07410156 9.37273438 5.08570313 10.37046875 5.09765625 11.3984375 C5 14 5 14 4 16 C1.67843403 16.40729228 -0.6568787 16.74438677 -3 17 C-2.88630789 14.54066009 -2.75957349 12.0832091 -2.625 9.625 C-2.5940625 8.92632812 -2.563125 8.22765625 -2.53125 7.5078125 C-2.2265625 2.2265625 -2.2265625 2.2265625 0 0 Z " fill="#331A1A" transform="translate(182,46)"/>
<path d="M0 0 C4.29 0 8.58 0 13 0 C13 1.98 13 3.96 13 6 C8.71 6 4.42 6 0 6 C0 4.02 0 2.04 0 0 Z " fill="#3E1F23" transform="translate(127,124)"/>
<path d="M0 0 C3.63 0 7.26 0 11 0 C11.33 1.65 11.66 3.3 12 5 C12.66 5 13.32 5 14 5 C14 6.98 14 8.96 14 11 C13.67 11 13.34 11 13 11 C13 9.35 13 7.7 13 6 C8.71 6 4.42 6 0 6 C0 4.02 0 2.04 0 0 Z " fill="#38191B" transform="translate(44,124)"/>
<path d="M0 0 C1.32 0.66 2.64 1.32 4 2 C4 3.98 4 5.96 4 8 C-0.62 8 -5.24 8 -10 8 C-10 6.35 -10 4.7 -10 3 C-6.37 3 -2.74 3 1 3 C0.67 2.01 0.34 1.02 0 0 Z " fill="#402123" transform="translate(31,61)"/>
<path d="M0 0 C2.31 0 4.62 0 7 0 C7 4.95 7 9.9 7 15 C4.03 14.505 4.03 14.505 1 14 C0.79913557 10.28400809 0.8480563 9.22791555 3 6 C3 5.01 3 4.02 3 3 C2.34 2.67 1.68 2.34 1 2 C1 3.98 1 5.96 1 8 C0.34 7.67 -0.32 7.34 -1 7 C-0.67 4.69 -0.34 2.38 0 0 Z " fill="#BC6D3E" transform="translate(156,16)"/>
<path d="M0 0 C0.90492187 0.02320312 1.80984375 0.04640625 2.7421875 0.0703125 C3.65226562 0.08835937 4.56234375 0.10640625 5.5 0.125 C6.19867188 0.14820312 6.89734375 0.17140625 7.6171875 0.1953125 C7.9471875 1.8453125 8.2771875 3.4953125 8.6171875 5.1953125 C1.3571875 5.1953125 -5.9028125 5.1953125 -13.3828125 5.1953125 C-13.3828125 4.8653125 -13.3828125 4.5353125 -13.3828125 4.1953125 C-12.75632812 4.07414063 -12.12984375 3.95296875 -11.484375 3.828125 C-10.66710937 3.66054687 -9.84984375 3.49296875 -9.0078125 3.3203125 C-8.19570312 3.15789062 -7.38359375 2.99546875 -6.546875 2.828125 C-3.68233917 1.99048095 -3.04799617 0.24983575 0 0 Z " fill="#32181A" transform="translate(94.3828125,124.8046875)"/>
<path d="M0 0 C0.99 0 1.98 0 3 0 C3.33 4.29 3.66 8.58 4 13 C5.051875 12.814375 6.10375 12.62875 7.1875 12.4375 C10.57119882 12.04920669 12.76425888 12.11752515 16 13 C15.67 13.99 15.34 14.98 15 16 C11.04 15.67 7.08 15.34 3 15 C3 15.99 3 16.98 3 18 C2.34 18 1.68 18 1 18 C0.67 12.06 0.34 6.12 0 0 Z " fill="#5E2F2C" transform="translate(18,71)"/>
<path d="M0 0 C2.31 0 4.62 0 7 0 C7 0.33 7 0.66 7 1 C5.02 1 3.04 1 1 1 C1 4.3 1 7.6 1 11 C2.65 11.33 4.3 11.66 6 12 C6.125 16.75 6.125 16.75 5 19 C5.66 19.66 6.32 20.32 7 21 C4.69 21 2.38 21 0 21 C0 14.07 0 7.14 0 0 Z M1 12 C1 12.66 1 13.32 1 14 C1.99 14 2.98 14 4 14 C4 13.34 4 12.68 4 12 C3.01 12 2.02 12 1 12 Z " fill="#472824" transform="translate(119,131)"/>
<path d="M0 0 C1.65 0.33 3.3 0.66 5 1 C4.01 1.33 3.02 1.66 2 2 C1.67 10.25 1.34 18.5 1 27 C0.34 27 -0.32 27 -1 27 C-1.02913821 23.4375173 -1.04684529 19.87506546 -1.0625 16.3125 C-1.07087891 15.30509766 -1.07925781 14.29769531 -1.08789062 13.25976562 C-1.09111328 12.28330078 -1.09433594 11.30683594 -1.09765625 10.30078125 C-1.10289307 9.40528564 -1.10812988 8.50979004 -1.11352539 7.5871582 C-0.99840198 4.96358241 -0.58234285 2.55706947 0 0 Z " fill="#412527" transform="translate(58,130)"/>
<path d="M0 0 C0.33 0 0.66 0 1 0 C1 9.9 1 19.8 1 30 C-0.65 30 -2.3 30 -4 30 C-3.34 29.34 -2.68 28.68 -2 28 C-1.64475184 25.43060127 -1.64475184 25.43060127 -1.62109375 22.44140625 C-1.58693359 21.33345703 -1.55277344 20.22550781 -1.51757812 19.08398438 C-1.49115234 17.92189453 -1.46472656 16.75980469 -1.4375 15.5625 C-1.37759344 13.27203022 -1.3139628 10.98165393 -1.24609375 8.69140625 C-1.22216553 7.67248291 -1.1982373 6.65355957 -1.17358398 5.60375977 C-1 3 -1 3 0 0 Z " fill="#482318" transform="translate(124,16)"/>
<path d="M0 0 C3.5 0.125 3.5 0.125 4.5 1.125 C4.54080783 3.12458364 4.54254356 5.12545254 4.5 7.125 C1.53 7.125 -1.44 7.125 -4.5 7.125 C-4.54254356 5.12545254 -4.54080783 3.12458364 -4.5 1.125 C-3.5 0.125 -3.5 0.125 0 0 Z " fill="#462B2A" transform="translate(159.5,0.875)"/>
<path d="M0 0 C0.99 1.32 1.98 2.64 3 4 C3.66 3.34 4.32 2.68 5 2 C5 4.64 5 7.28 5 10 C3.02 10.99 1.04 11.98 -1 13 C-1.02686553 11.02090602 -1.04633375 9.04171029 -1.0625 7.0625 C-1.07410156 5.96035156 -1.08570312 4.85820313 -1.09765625 3.72265625 C-1 1 -1 1 0 0 Z " fill="#371F23" transform="translate(111,47)"/>
<path d="M0 0 C0.33 0 0.66 0 1 0 C1.33 8.58 1.66 17.16 2 26 C2.99 25.67 3.98 25.34 5 25 C5.33 26.98 5.66 28.96 6 31 C4.02 30.67 2.04 30.34 0 30 C0 20.1 0 10.2 0 0 Z " fill="#301715" transform="translate(103,130)"/>
<path d="M0 0 C2.33294775 -0.04241723 4.66702567 -0.04092937 7 0 C8 1 8 1 8.09765625 4.16015625 C8.06510417 7.7734375 8.03255208 11.38671875 8 15 C2.72 15 -2.56 15 -8 15 C-8 14.67 -8 14.34 -8 14 C-3.05 14 1.9 14 7 14 C6.67 12.68 6.34 11.36 6 10 C5.87794671 7.32459184 5.95532687 4.68038762 6 2 C4.35 2 2.7 2 1 2 C0.67 1.34 0.34 0.68 0 0 Z " fill="#9F6443" transform="translate(171,47)"/>
<path d="M0 0 C2.47923801 -0.02685095 4.9581884 -0.04676547 7.4375 -0.0625 C8.14455078 -0.07087891 8.85160156 -0.07925781 9.58007812 -0.08789062 C11.38693559 -0.09653588 13.19387603 -0.05220011 15 0 C16 1 16 1 16.0625 4.0625 C16.041875 5.031875 16.02125 6.00125 16 7 C18.31 7 20.62 7 23 7 C23 7.33 23 7.66 23 8 C18.545 8.495 18.545 8.495 14 9 C14 6.69 14 4.38 14 2 C13.15695313 2.02320312 12.31390625 2.04640625 11.4453125 2.0703125 C9.80175781 2.09738281 9.80175781 2.09738281 8.125 2.125 C7.03445312 2.14820312 5.94390625 2.17140625 4.8203125 2.1953125 C2 2 2 2 0 0 Z " fill="#CE8956" transform="translate(140,122)"/>
<path d="M0 0 C1.4540625 0.0309375 1.4540625 0.0309375 2.9375 0.0625 C2.9375 2.3725 2.9375 4.6825 2.9375 7.0625 C0.6275 7.0625 -1.6825 7.0625 -4.0625 7.0625 C-4.10504356 5.06295254 -4.10330783 3.06208364 -4.0625 1.0625 C-3.0625 0.0625 -3.0625 0.0625 0 0 Z " fill="#894038" transform="translate(40.0625,122.9375)"/>
<path d="M0 0 C2.64 0 5.28 0 8 0 C8 1.98 8 3.96 8 6 C5.36 6 2.72 6 0 6 C0 4.02 0 2.04 0 0 Z " fill="#E9AC7A" transform="translate(148,25)"/>
<path d="M0 0 C2.64 0 5.28 0 8 0 C8.33 1.98 8.66 3.96 9 6 C2.84765625 6.09765625 2.84765625 6.09765625 1 6 C0 5 0 5 -0.0625 2.4375 C-0.041875 1.633125 -0.02125 0.82875 0 0 Z " fill="#432523" transform="translate(133,10)"/>
<path d="M0 0 C1.64574566 -0.02688151 3.29161413 -0.04634123 4.9375 -0.0625 C5.85402344 -0.07410156 6.77054688 -0.08570312 7.71484375 -0.09765625 C10 0 10 0 11 1 C11.08790975 3.29151417 11.10694038 5.58572524 11.09765625 7.87890625 C11.0962413 8.5655687 11.09482635 9.25223114 11.09336853 9.95970154 C11.08775479 12.16067801 11.07520007 14.36155409 11.0625 16.5625 C11.05748676 18.05143083 11.05292355 19.54036324 11.04882812 21.02929688 C11.03778093 24.68623075 11.02050713 28.34310558 11 32 C10.67 32 10.34 32 10 32 C10 22.76 10 13.52 10 4 C9.34 4 8.68 4 8 4 C8 3.01 8 2.02 8 1 C5.36 1 2.72 1 0 1 C0 0.67 0 0.34 0 0 Z " fill="#421E19" transform="translate(23,86)"/>
<path d="M0 0 C3.3 0 6.6 0 10 0 C11 2 11 2 10 7 C14.29 7 18.58 7 23 7 C23 7.33 23 7.66 23 8 C17.91913204 8.84681133 13.15171623 9.09038099 8 9 C8 6.36 8 3.72 8 1 C5.36 1 2.72 1 0 1 C0 0.67 0 0.34 0 0 Z " fill="#804C33" transform="translate(132,16)"/>
<path d="M0 0 C0.33 1.98 0.66 3.96 1 6 C-1.33294775 6.04241723 -3.66702567 6.04092937 -6 6 C-7 5 -7 5 -7.0625 2.4375 C-7.041875 1.633125 -7.02125 0.82875 -7 0 C-4.3333581 -1.33332095 -2.83319697 -0.67102033 0 0 Z " fill="#341719" transform="translate(19,79)"/>
<path d="M0 0 C2.31 0 4.62 0 7 0 C7.33 1.32 7.66 2.64 8 4 C7.34 4 6.68 4 6 4 C6 5.32 6 6.64 6 8 C4.35 8 2.7 8 1 8 C1.020625 7.05125 1.04125 6.1025 1.0625 5.125 C1.22551826 2.09333717 1.22551826 2.09333717 0 0 Z " fill="#3C1E21" transform="translate(35,69)"/>
<path d="M0 0 C2.97 0 5.94 0 9 0 C8.67 2.97 8.34 5.94 8 9 C2.72 9 -2.56 9 -8 9 C-8 8.67 -8 8.34 -8 8 C-3.38 8 1.24 8 6 8 C5.67 6.02 5.34 4.04 5 2 C3.35 1.67 1.7 1.34 0 1 C0 0.67 0 0.34 0 0 Z " fill="#7F5A3E" transform="translate(119,152)"/>
<path d="M0 0 C0.90492187 0.02320313 1.80984375 0.04640625 2.7421875 0.0703125 C4.10730469 0.09738281 4.10730469 0.09738281 5.5 0.125 C6.19867188 0.14820313 6.89734375 0.17140625 7.6171875 0.1953125 C7.9471875 1.1853125 8.2771875 2.1753125 8.6171875 3.1953125 C4.6571875 3.1953125 0.6971875 3.1953125 -3.3828125 3.1953125 C-3.3828125 4.8453125 -3.3828125 6.4953125 -3.3828125 8.1953125 C-3.7128125 8.1953125 -4.0428125 8.1953125 -4.3828125 8.1953125 C-4.5078125 5.3203125 -4.5078125 5.3203125 -4.3828125 2.1953125 C-2.3828125 0.1953125 -2.3828125 0.1953125 0 0 Z " fill="#4E3233" transform="translate(23.3828125,60.8046875)"/>
<path d="M0 0 C1.98 0 3.96 0 6 0 C6 1.98 6 3.96 6 6 C4.02 6 2.04 6 0 6 C0 4.02 0 2.04 0 0 Z " fill="#C87746" transform="translate(28,124)"/>
<path d="M0 0 C0.33 0.66 0.66 1.32 1 2 C3.52733235 2.65555119 3.52733235 2.65555119 6 3 C6 4.65 6 6.3 6 8 C4.35 8 2.7 8 1 8 C1.33 6.68 1.66 5.36 2 4 C1.34 4 0.68 4 0 4 C0 3.34 0 2.68 0 2 C-1.98 2 -3.96 2 -6 2 C-6 1.67 -6 1.34 -6 1 C-4.02 0.67 -2.04 0.34 0 0 Z " fill="#824640" transform="translate(126,8)"/>
<path d="M0 0 C2.31 0 4.62 0 7 0 C7 1.65 7 3.3 7 5 C4.69 5 2.38 5 0 5 C0 3.35 0 1.7 0 0 Z " fill="#432625" transform="translate(127,3)"/>
<path d="M0 0 C0.66 0.33 1.32 0.66 2 1 C1.67 1.66 1.34 2.32 1 3 C1.99 3 2.98 3 4 3 C4 3.66 4 4.32 4 5 C1.03 4.505 1.03 4.505 -2 4 C-2 4.99 -2 5.98 -2 7 C-3.32 6.67 -4.64 6.34 -6 6 C-6 4.68 -6 3.36 -6 2 C-4.02 2 -2.04 2 0 2 C0 1.34 0 0.68 0 0 Z " fill="#3D1D20" transform="translate(42,76)"/>
<path d="M0 0 C0 1.98 0 3.96 0 6 C-1.98 6 -3.96 6 -6 6 C-6 4.35 -6 2.7 -6 1 C-3 0 -3 0 0 0 Z " fill="#853F37" transform="translate(163,10)"/>
<path d="M0 0 C2.97 0.495 2.97 0.495 6 1 C6 5.95 6 10.9 6 16 C4.68 16 3.36 16 2 16 C2.33 15.34 2.66 14.68 3 14 C3.66 14.33 4.32 14.66 5 15 C4.67 11.04 4.34 7.08 4 3 C2.68 3 1.36 3 0 3 C0 2.01 0 1.02 0 0 Z " fill="#301517" transform="translate(82,152)"/>
<path d="M0 0 C1.32 0.33 2.64 0.66 4 1 C4 5.29 4 9.58 4 14 C1.06540254 10.08720339 0.61003626 9.2725511 0.3125 4.75 C0.24675781 3.85796875 0.18101562 2.9659375 0.11328125 2.046875 C0.07589844 1.37140625 0.03851563 0.6959375 0 0 Z " fill="#472829" transform="translate(182,45)"/>
<path d="M0 0 C2.31243792 -0.02685412 4.6249627 -0.04632841 6.9375 -0.0625 C8.22527344 -0.07410156 9.51304688 -0.08570312 10.83984375 -0.09765625 C14 0 14 0 15 1 C15.04063832 2.66617115 15.042721 4.33388095 15 6 C14.34 6 13.68 6 13 6 C12.67 4.68 12.34 3.36 12 2 C8.37 1.67 4.74 1.34 1 1 C1 2.98 1 4.96 1 7 C0.67 7 0.34 7 0 7 C0 4.69 0 2.38 0 0 Z " fill="#512422" transform="translate(43,123)"/>
<path d="M0 0 C1.134375 0.020625 2.26875 0.04125 3.4375 0.0625 C3.7675 0.7225 4.0975 1.3825 4.4375 2.0625 C2.1275 2.0625 -0.1825 2.0625 -2.5625 2.0625 C-2.541875 2.866875 -2.52125 3.67125 -2.5 4.5 C-2.5625 7.0625 -2.5625 7.0625 -3.5625 8.0625 C-5.22867115 8.10313832 -6.89638095 8.105221 -8.5625 8.0625 C-7.2425 7.7325 -5.9225 7.4025 -4.5625 7.0625 C-4.583125 6.093125 -4.60375 5.12375 -4.625 4.125 C-4.53542298 -0.264274 -4.48106193 0.07861512 0 0 Z " fill="#593F40" transform="translate(129.5625,0.9375)"/>
<path d="M0 0 C0.66 0 1.32 0 2 0 C2 1.98 2 3.96 2 6 C2.99 6 3.98 6 5 6 C5 4.35 5 2.7 5 1 C5.66 0.67 6.32 0.34 7 0 C7 2.64 7 5.28 7 8 C5.02 8 3.04 8 1 8 C0.67 5.36 0.34 2.72 0 0 Z " fill="#C07044" transform="translate(110,114)"/>
<path d="M0 0 C0 0.66 0 1.32 0 2 C-4.29 2 -8.58 2 -13 2 C-13 1.34 -13 0.68 -13 0 C-11.20909747 -0.19466332 -9.41723495 -0.38051213 -7.625 -0.5625 C-6.12839844 -0.71912109 -6.12839844 -0.71912109 -4.6015625 -0.87890625 C-2 -1 -2 -1 0 0 Z " fill="#321614" transform="translate(140,128)"/>
<path d="M0 0 C1.65 0 3.3 0 5 0 C5 1.65 5 3.3 5 5 C2.36 5.33 -0.28 5.66 -3 6 C-3 5.01 -3 4.02 -3 3 C-0.03 3.495 -0.03 3.495 3 4 C3 3.34 3 2.68 3 2 C2.01 2 1.02 2 0 2 C0 1.34 0 0.68 0 0 Z " fill="#43282C" transform="translate(43,77)"/>
<path d="M0 0 C0.99 0 1.98 0 3 0 C3 2.64 3 5.28 3 8 C1.68 8.33 0.36 8.66 -1 9 C-1.33 8.01 -1.66 7.02 -2 6 C-1.34 5.67 -0.68 5.34 0 5 C0 3.35 0 1.7 0 0 Z " fill="#CB7436" transform="translate(174,51)"/>
<path d="M0 0 C1.32 0.66 2.64 1.32 4 2 C4 3.98 4 5.96 4 8 C3.01 7.67 2.02 7.34 1 7 C0.67 6.34 0.34 5.68 0 5 C-0.66 5 -1.32 5 -2 5 C-2 4.34 -2 3.68 -2 3 C-1.01 3 -0.02 3 1 3 C0.67 2.01 0.34 1.02 0 0 Z " fill="#381C1C" transform="translate(31,61)"/>
<path d="M0 0 C1.65 0 3.3 0 5 0 C5.33 1.65 5.66 3.3 6 5 C4.35 5.33 2.7 5.66 1 6 C0.67 4.02 0.34 2.04 0 0 Z " fill="#442C30" transform="translate(142,16)"/>
<path d="M0 0 C-0.99 0.33 -1.98 0.66 -3 1 C-3 1.66 -3 2.32 -3 3 C-4.65 3 -6.3 3 -8 3 C-8 4.65 -8 6.3 -8 8 C-8.33 8 -8.66 8 -9 8 C-9 5.69 -9 3.38 -9 1 C-6.04335481 -0.4783226 -3.25770263 -0.06032783 0 0 Z " fill="#241412" transform="translate(104,61)"/>
<path d="M0 0 C0 2.31 0 4.62 0 7 C-2.31 7 -4.62 7 -7 7 C-5.68 6.67 -4.36 6.34 -3 6 C-2.67 4.68 -2.34 3.36 -2 2 C-2.99 1.67 -3.98 1.34 -5 1 C-1.125 0 -1.125 0 0 0 Z " fill="#6F382F" transform="translate(43,123)"/>
<path d="M0 0 C0.33 0 0.66 0 1 0 C1 2.31 1 4.62 1 7 C-0.65 7 -2.3 7 -4 7 C-4 5.68 -4 4.36 -4 3 C-2.68 3 -1.36 3 0 3 C0 2.01 0 1.02 0 0 Z " fill="#EAB07A" transform="translate(170,54)"/>
<path d="M0 0 C0.99 0 1.98 0 3 0 C2.67 3.96 2.34 7.92 2 12 C1.67 12 1.34 12 1 12 C0.855625 10.88625 0.71125 9.7725 0.5625 8.625 C0.21627965 5.17857953 0.21627965 5.17857953 -1 3 C-0.67 2.01 -0.34 1.02 0 0 Z " fill="#CE7E4B" transform="translate(116,110)"/>
<path d="M0 0 C2.31 0 4.62 0 7 0 C7 1.32 7 2.64 7 4 C5.35 4 3.7 4 2 4 C1.34 2.68 0.68 1.36 0 0 Z " fill="#321818" transform="translate(57,157)"/>
<path d="M0 0 C0 0.33 0 0.66 0 1 C-1.98 1 -3.96 1 -6 1 C-6 2.65 -6 4.3 -6 6 C-6.99 6.495 -6.99 6.495 -8 7 C-8 5.35 -8 3.7 -8 2 C-8.66 1.67 -9.32 1.34 -10 1 C-6.78548731 -0.60725635 -3.56387464 -0.05748185 0 0 Z " fill="#673634" transform="translate(118,62)"/>
<path d="M0 0 C2.31 0 4.62 0 7 0 C7 1.98 7 3.96 7 6 C6.67 4.68 6.34 3.36 6 2 C4.35 2.33 2.7 2.66 1 3 C0.67 2.01 0.34 1.02 0 0 Z " fill="#C87B4C" transform="translate(141,25)"/>
<path d="M0 0 C2 3 2 3 3 6 C1.35 6 -0.3 6 -2 6 C-2 3 -2 3 0 0 Z " fill="#2D1B1C" transform="translate(23,155)"/>
<path d="M0 0 C1.32 0 2.64 0 4 0 C4 2.64 4 5.28 4 8 C1.53721199 5.53721199 1.00228745 3.29323018 0 0 Z " fill="#492026" transform="translate(39,130)"/>
</svg>
